<?xml version="1.0" encoding="utf-8"?>
<!-- Generator: Adobe Illustrator 24.1.0, SVG Export Plug-In . SVG Version: 6.00 Build 0)  -->
<svg version="1.1" id="Layer_1" xmlns="http://www.w3.org/2000/svg" xmlns:xlink="http://www.w3.org/1999/xlink" x="0px" y="0px"
	 viewBox="0 0 210 211" style="enable-background:new 0 0 210 211;" xml:space="preserve">
<style type="text/css">
	.st0{fill:#FF0737;}
</style>
<g>
	<path class="st0" d="M128.9,25.4L135,7.7l6.4,2.2l-6.1,17.7L128.9,25.4z"/>
	<path class="st0" d="M148.3,12.2l6,3.6l2,11.5c0.1,1,0.2,1.9,0.1,2.8l0.1,0.1l1.5-2.5l4.2-7l5.2,3.2l-9.8,16l-5.6-3.4l-2.3-11.6
		c-0.1-0.7-0.3-2.2-0.1-2.9l-0.1-0.1l-1.5,2.5l-4.3,7l-5.2-3.2L148.3,12.2z"/>
	<path class="st0" d="M174.8,37.5l-2.1,1.9l8.4,9.1l-3.3,3.1l-8.4-9.1l-4.9,4.6l-4.6-5l13.8-12.7l13.3,14.4l-3.4,3.2L174.8,37.5z"/>
	<path class="st0" d="M182.1,52.5c5.5-2.8,11.2-0.1,14.7,6.9c3.5,6.9,2.2,13.1-3.3,15.8s-11.2,0.1-14.6-6.9
		C175.3,61.4,176.6,55.2,182.1,52.5z M190.3,68.8c2.8-1.4,3.6-4.3,2.1-7.3c-1.5-3-4.4-4.1-7.1-2.7s-3.6,4.3-2.1,7.3
		C184.7,69.2,187.5,70.2,190.3,68.8z"/>
	<path class="st0" d="M193,90.3l-0.7-3.9l-6,1.1l-1.2-6.7l18.5-3.2l2.2,12.9c1.1,6.4-1.6,8.8-4.6,9.3c-2.1,0.4-4.6-0.2-6.3-2.9
		l-6,5.7l-1.3-7.3L193,90.3z M196.3,85.7l0.8,4.7c0.4,2.1,1.5,2.6,2.6,2.4c1.1-0.2,1.9-1,1.6-3.1l-0.8-4.7L196.3,85.7z"/>
	<path class="st0" d="M207.9,106.7l-1.5,9.9l-9.9,1.9c-0.9,0.2-1.7,0.4-2.4,0.3l0,0.1c0.7,0.2,1.4,0.6,2.3,1l8.9,4.6l-1.5,10.1
		l-18.5-2.8l0.9-6.1l10.2,1.5c1.2,0.2,2.5,0.5,3.9,1l0-0.1c-0.6-0.3-2.3-1.1-3.5-1.8l-9.8-5.6l0.9-6.2l10.9-2.2
		c1.5-0.3,3-0.5,3.9-0.6l0-0.1c-1.3,0.1-2.7-0.1-3.9-0.3l-10.2-1.5l0.9-5.8L207.9,106.7z"/>
	<path class="st0" d="M179.6,149.9l4.1-7.8l-2.5-2.9l3.4-6.4l12.5,16.5L193,157l-20.6-1.1l3.4-6.4L179.6,149.9z M183.9,150.3
		l3.5,0.4c1.9,0.1,3.1,0.3,4.2,0.6l0-0.1c-1-0.8-1.7-1.6-2.9-3.1l-2.2-2.7L183.9,150.3z"/>
	<path class="st0" d="M170.7,177.2l4.8-5.4l-10.2-9l4.4-5.1l10.2,9l4.8-5.4l3.9,3.4l-14,15.9L170.7,177.2z"/>
	<path class="st0" d="M159,168.8l11.6,14.7l-5.3,4.2L153.7,173L159,168.8z"/>
	<path class="st0" d="M157,183.1c2.7,5.5,0,11.2-7,14.6c-7,3.4-13.1,2.1-15.8-3.4s0-11.2,7-14.6C148.1,176.2,154.2,177.6,157,183.1z
		 M140.5,191.1c1.4,2.8,4.2,3.7,7.3,2.2c3-1.5,4.1-4.3,2.8-7.1c-1.4-2.8-4.2-3.6-7.3-2.1C140.2,185.6,139.2,188.4,140.5,191.1z"/>
	<path class="st0" d="M131.6,204.6l-6.9,1.1l-8.9-7.5c-0.8-0.7-1.4-1.3-1.9-2.1l-0.1,0l0.4,2.9l1.2,8.1l-6,0.9l-2.9-18.5l6.5-1
		l9.3,7.4c0.5,0.5,1.6,1.5,1.9,2.1l0.1,0l-0.4-2.8l-1.3-8.1l6.1-0.9L131.6,204.6z"/>
	<path class="st0" d="M79.5,188.7l8.5,2.1l2.3-3.1l7.1,1.7l-13,16.1l-8.5-2.1l-3.9-20.3l7,1.7L79.5,188.7z M80.1,193l0.5,3.5
		c0.3,1.9,0.5,3,0.4,4.3l0.1,0c0.5-1.1,1.2-2.1,2.3-3.6l2.1-2.8L80.1,193z"/>
	<path class="st0" d="M58.8,182.2l3.4,2l3.1-5.3l5.8,3.4l-9.6,16.1l-11.3-6.7c-5.6-3.3-5.6-6.9-4-9.6c1.1-1.8,3.1-3.4,6.3-2.9
		l-0.4-8.3l6.4,3.8L58.8,182.2z M60.1,187.7l-4.1-2.4c-1.9-1.1-2.9-0.6-3.5,0.4c-0.6,1-0.5,2.1,1.3,3.2l4.1,2.4L60.1,187.7z"/>
	<path class="st0" d="M45.4,177.6c-4.3,4.1-11,3.1-16-2.3c-4.2-4.5-5.4-9.8-3.1-13.6l5.7,4.2c-1.2,1.9-0.9,4,1,6
		c2.3,2.5,5.2,2.7,7.4,0.6c2.3-2.1,2.2-4.9-0.1-7.4c-1.9-2.1-4-2.6-5.9-1.5l-3.6-6.1c4.2-1.9,9.1-0.3,13.4,4.3
		C49.3,167.3,49.8,173.5,45.4,177.6z"/>
	<path class="st0" d="M24.8,131.7l3,6.1l-6.5,3.1l4,8.1l6.5-3.1l3,6.1l-16.9,8.2l-3-6.1l6.3-3.1l-4-8.1l-6.3,3.1l-2.9-6.1
		L24.8,131.7z"/>
	<path class="st0" d="M24.5,128.4l-18.2,4.4l-1.6-6.6l18.2-4.4L24.5,128.4z"/>
	<path class="st0" d="M7.3,99.9l0.4,7.2l13.6-0.7l0.4,6.7L8,113.9l0.4,7.2l-5.1,0.3l-1.1-21.1L7.3,99.9z"/>
	<path class="st0" d="M20.6,77.7l4.5,0.9l-4,19.4L2.7,94.2L6.6,75l4.4,0.9L8.5,88.5l2.6,0.5l2.5-12.1l4.1,0.8l-2.5,12.1l2.8,0.6
		L20.6,77.7z"/>
	<path class="st0" d="M16.7,73.5c-5.3-2.7-6.6-9.3-3.1-15.9c2.9-5.5,7.4-8.4,11.8-7.5L23.4,57c-2.2-0.5-4.1,0.5-5.3,3
		c-1.6,3-0.8,5.8,1.9,7.2c2.8,1.4,5.4,0.5,7-2.6c1.3-2.5,1.1-4.6-0.6-6.1l4.6-5.4c3.1,3.3,3.3,8.5,0.4,14
		C27.8,73.8,22.1,76.3,16.7,73.5z"/>
	<path class="st0" d="M40.8,31.6l-4.9,5.3l10,9.2l-4.6,4.9l-10-9.2l-4.9,5.3l-3.8-3.5L37,28.1L40.8,31.6z"/>
	<path class="st0" d="M47.4,20.6l5.1,8.2c1.5,2.4,3.7,3.1,6.2,1.5c2.4-1.5,2.9-3.9,1.5-6.2l-5.1-8.2l5.8-3.5l5.5,8.9
		c2.8,4.6,1.3,9.7-4.9,13.5s-11.5,2.9-14.3-1.7l-5.5-8.9L47.4,20.6z"/>
	<path class="st0" d="M81.5,18.8l-3.8,1l1.6,5.9l-6.5,1.8L67.8,9.5L80.5,6c6.2-1.7,8.9,0.8,9.7,3.7c0.6,2,0.2,4.6-2.3,6.5l6.2,5.5
		l-7.2,2L81.5,18.8z M76.6,15.9l4.6-1.2c2.1-0.6,2.5-1.7,2.2-2.9c-0.3-1.1-1.2-1.8-3.2-1.3l-4.6,1.3L76.6,15.9z"/>
	<path class="st0" d="M115.4,17.5l-0.1,4.5l-19.8-0.3L95.9,3l19.6,0.3l-0.1,4.5l-12.8-0.2l0,2.7l12.4,0.2l-0.1,4.2l-12.4-0.2
		l-0.1,2.8L115.4,17.5z"/>
</g>
</svg>
