<?xml version="1.0" encoding="utf-8"?>
<!-- Generator: Adobe Illustrator 24.0.1, SVG Export Plug-In . SVG Version: 6.00 Build 0)  -->
<svg version="1.1" id="Layer_1" xmlns="http://www.w3.org/2000/svg" xmlns:xlink="http://www.w3.org/1999/xlink" x="0px" y="0px"
	 viewBox="0 0 210 211" style="enable-background:new 0 0 210 211;" xml:space="preserve">
<style type="text/css">
	.st0{fill:#6F42C1;}
</style>
<g>
	<path class="st0" d="M128.87,25.37l6.14-17.71l6.39,2.22l-6.14,17.71L128.87,25.37z"/>
	<path class="st0" d="M148.27,12.18l5.97,3.64l2.01,11.46c0.11,1.03,0.23,1.9,0.14,2.81l0.11,0.07l1.51-2.48l4.25-6.97l5.21,3.18
		l-9.76,16.01l-5.63-3.44l-2.3-11.64c-0.09-0.71-0.26-2.17-0.14-2.87l-0.11-0.07l-1.5,2.46l-4.29,7.03l-5.23-3.19L148.27,12.18z"/>
	<path class="st0" d="M174.8,37.48l-2.06,1.9l8.4,9.11l-3.34,3.08l-8.4-9.11l-4.95,4.56l-4.58-4.97l13.79-12.71l13.28,14.41
		l-3.44,3.17L174.8,37.48z"/>
	<path class="st0" d="M182.07,52.47c5.5-2.75,11.18-0.07,14.66,6.89c3.47,6.94,2.21,13.09-3.29,15.84
		c-5.5,2.75-11.18,0.07-14.65-6.87C175.31,61.37,176.57,55.22,182.07,52.47z M190.26,68.83c2.76-1.38,3.62-4.26,2.11-7.28
		c-1.51-3.02-4.35-4.08-7.11-2.7s-3.59,4.27-2.08,7.3C184.7,69.16,187.49,70.21,190.26,68.83z"/>
	<path class="st0" d="M193.02,90.26l-0.68-3.88l-6.03,1.05l-1.16-6.66l18.47-3.21l2.25,12.93c1.11,6.37-1.64,8.75-4.63,9.27
		c-2.08,0.36-4.61-0.19-6.26-2.88l-6.04,5.66l-1.28-7.33L193.02,90.26z M196.32,85.69l0.82,4.68c0.37,2.13,1.47,2.61,2.64,2.41
		c1.12-0.19,1.94-1.03,1.58-3.11l-0.82-4.71L196.32,85.69z"/>
	<path class="st0" d="M207.86,106.72l-1.5,9.89l-9.92,1.89c-0.94,0.18-1.71,0.36-2.43,0.33l-0.01,0.05
		c0.69,0.19,1.41,0.59,2.27,1.04l8.89,4.6l-1.54,10.15l-18.53-2.8l0.92-6.11l10.18,1.54c1.17,0.18,2.54,0.52,3.86,0.96l0.02-0.13
		c-0.63-0.26-2.31-1.12-3.49-1.81l-9.81-5.6l0.94-6.21l10.94-2.22c1.51-0.3,2.99-0.51,3.91-0.61l0.02-0.1
		c-1.26,0.05-2.7-0.14-3.95-0.33l-10.18-1.54l0.88-5.8L207.86,106.72z"/>
	<path class="st0" d="M179.59,149.87l4.11-7.77l-2.47-2.95l3.4-6.42l12.49,16.48l-4.1,7.75l-20.65-1.08l3.39-6.39L179.59,149.87z
		 M183.95,150.33l3.49,0.35c1.92,0.15,3.05,0.27,4.23,0.65l0.04-0.07c-0.96-0.78-1.7-1.65-2.91-3.13l-2.25-2.69L183.95,150.33z"/>
	<path class="st0" d="M170.74,177.2l4.77-5.44l-10.22-8.96l4.44-5.06l10.22,8.96l4.75-5.42l3.87,3.39l-13.96,15.92L170.74,177.2z"/>
	<path class="st0" d="M158.96,168.8l11.6,14.72l-5.31,4.18l-11.6-14.72L158.96,168.8z"/>
	<path class="st0" d="M156.96,183.08c2.71,5.52-0.02,11.18-7.01,14.61c-6.97,3.42-13.11,2.1-15.82-3.42
		c-2.71-5.52,0.02-11.18,6.99-14.59C148.11,176.25,154.25,177.56,156.96,183.08z M140.53,191.13c1.36,2.77,4.23,3.66,7.27,2.17
		c3.03-1.49,4.12-4.31,2.76-7.09c-1.36-2.77-4.24-3.62-7.28-2.13C140.25,185.57,139.17,188.36,140.53,191.13z"/>
	<path class="st0" d="M131.55,204.57l-6.91,1.07l-8.92-7.46c-0.75-0.71-1.4-1.31-1.92-2.05l-0.13,0.02l0.44,2.87l1.24,8.06
		l-6.03,0.93l-2.86-18.52l6.52-1.01l9.26,7.41c0.53,0.48,1.59,1.49,1.95,2.1l0.13-0.02l-0.44-2.84l-1.26-8.14l6.05-0.93
		L131.55,204.57z"/>
	<path class="st0" d="M79.47,188.7l8.53,2.11l2.27-3.11l7.05,1.74l-12.96,16.1l-8.51-2.11l-3.95-20.29l7.02,1.74L79.47,188.7z
		 M80.08,193.04l0.5,3.47c0.32,1.9,0.47,3.03,0.39,4.26l0.08,0.02c0.52-1.12,1.19-2.05,2.33-3.58l2.06-2.83L80.08,193.04z"/>
	<path class="st0" d="M58.75,182.18l3.38,2.01l3.13-5.27l5.81,3.45l-9.56,16.12l-11.28-6.7c-5.56-3.3-5.58-6.94-4.04-9.55
		c1.08-1.82,3.14-3.38,6.26-2.89l-0.38-8.26l6.4,3.8L58.75,182.18z M60.07,187.66l-4.09-2.42c-1.86-1.1-2.94-0.58-3.55,0.44
		c-0.58,0.98-0.47,2.14,1.34,3.22l4.11,2.44L60.07,187.66z"/>
	<path class="st0" d="M45.39,177.6c-4.34,4.05-10.98,3.09-16.03-2.34c-4.21-4.52-5.41-9.75-3.09-13.65l5.74,4.22
		c-1.22,1.9-0.87,3.98,1.02,6.01c2.34,2.51,5.17,2.72,7.43,0.61c2.28-2.12,2.24-4.91-0.11-7.44c-1.91-2.05-3.98-2.57-5.92-1.48
		l-3.6-6.1c4.19-1.85,9.1-0.26,13.35,4.3C49.34,167.28,49.83,173.46,45.39,177.6z"/>
	<path class="st0" d="M24.76,131.69l2.95,6.05l-6.48,3.15l3.95,8.12l6.48-3.15l2.96,6.08l-16.85,8.2l-2.96-6.08l6.34-3.08
		l-3.95-8.12l-6.34,3.08l-2.95-6.05L24.76,131.69z"/>
	<path class="st0" d="M24.45,128.36l-18.21,4.43l-1.6-6.57l18.21-4.43L24.45,128.36z"/>
	<path class="st0" d="M7.28,99.95l0.38,7.22l13.58-0.72l0.36,6.72L8.02,113.9l0.38,7.2l-5.14,0.27l-1.12-21.14L7.28,99.95z"/>
	<path class="st0" d="M20.57,77.67l4.45,0.91l-3.95,19.37L2.71,94.21l3.91-19.19l4.45,0.91L8.51,88.49l2.61,0.53l2.47-12.13
		l4.09,0.83l-2.47,12.13l2.77,0.56L20.57,77.67z"/>
	<path class="st0" d="M16.74,73.54c-5.27-2.74-6.58-9.32-3.15-15.9c2.85-5.48,7.39-8.36,11.84-7.47l-2.06,6.81
		c-2.2-0.52-4.05,0.51-5.33,2.97c-1.59,3.04-0.84,5.78,1.9,7.21c2.76,1.44,5.38,0.48,6.97-2.59c1.29-2.48,1.09-4.61-0.58-6.08
		l4.55-5.43c3.14,3.34,3.28,8.5,0.4,14.02C27.79,73.82,22.13,76.34,16.74,73.54z"/>
	<path class="st0" d="M40.79,31.59l-4.92,5.3l9.97,9.24l-4.58,4.94l-9.97-9.24l-4.9,5.28l-3.77-3.5l14.4-15.52L40.79,31.59z"/>
	<path class="st0" d="M47.36,20.65l5.07,8.23c1.47,2.38,3.66,3.08,6.25,1.49c2.43-1.5,2.92-3.87,1.46-6.23l-5.07-8.23l5.75-3.54
		l5.5,8.92c2.85,4.63,1.28,9.69-4.92,13.51c-6.2,3.82-11.48,2.91-14.34-1.74l-5.45-8.86L47.36,20.65z"/>
	<path class="st0" d="M81.48,18.81l-3.8,1.04l1.61,5.91l-6.52,1.78L67.83,9.46L80.49,6c6.24-1.71,8.87,0.81,9.67,3.74
		c0.56,2.04,0.25,4.61-2.27,6.51l6.21,5.48l-7.18,1.96L81.48,18.81z M76.62,15.95l4.59-1.25c2.09-0.57,2.46-1.71,2.15-2.86
		c-0.3-1.1-1.21-1.83-3.25-1.27l-4.61,1.26L76.62,15.95z"/>
	<path class="st0" d="M115.41,17.53l-0.07,4.54l-19.77-0.33L95.87,3l19.58,0.32l-0.07,4.54l-12.83-0.21l-0.04,2.67l12.38,0.2
		l-0.07,4.17l-12.38-0.2l-0.05,2.82L115.41,17.53z"/>
</g>
</svg>
