<?xml version="1.0" encoding="utf-8"?>
<!-- Generator: Adobe Illustrator 24.1.0, SVG Export Plug-In . SVG Version: 6.00 Build 0)  -->
<svg version="1.1" id="Layer_1" xmlns="http://www.w3.org/2000/svg" xmlns:xlink="http://www.w3.org/1999/xlink" x="0px" y="0px"
	 viewBox="0 0 178 178" style="enable-background:new 0 0 178 178;" xml:space="preserve">
<style type="text/css">
	.st0{fill:#FF0737;}
	.st1{font-family:'JetBrainsMono-ExtraBold';}
	.st2{font-size:23px;}
	.st3{font-size:22.999px;}
	.st4{font-size:22.9993px;}
	.st5{font-size:22.9563px;}
	.st6{font-size:23.0114px;}
	.st7{font-size:23.0735px;}
	.st8{font-size:23.0941px;}
	.st9{font-size:23.101px;}
	.st10{font-size:22.9989px;}
	.st11{font-size:22.9991px;}
	.st12{font-size:23.0007px;}
	.st13{font-size:23.093px;}
	.st14{font-size:23.0439px;}
	.st15{font-size:22.9781px;}
	.st16{font-size:22.9965px;}
</style>
<text transform="matrix(0.9956 9.393455e-02 -9.393455e-02 0.9956 88.7 19.44)" class="st0 st1 st2">T</text>
<text transform="matrix(0.9601 0.2795 -0.2795 0.9601 101.7402 20.5999)" class="st0 st1 st3">E</text>
<text transform="matrix(0.8902 0.4555 -0.4555 0.8902 114.3201 24.1903)" class="st0 st1 st4">L</text>
<text transform="matrix(0.7915 0.6112 -0.6112 0.7915 125.9904 30.0894)" class="st0 st1 st5">L</text>
<text transform="matrix(0.5089 0.8608 -0.8608 0.5089 145.08 47.8701)" class="st0 st1 st2">Y</text>
<text transform="matrix(0.3381 0.9411 -0.9411 0.3381 151.7996 59.09)" class="st0 st1 st2">O</text>
<text transform="matrix(0.1545 0.988 -0.988 0.1545 156.2801 71.38)" class="st0 st1 st2">U</text>
<text transform="matrix(-2.998502e-02 0.9996 -0.9996 -2.998502e-02 158.3676 84.3203)" class="st0 st1 st6">R</text>
<text transform="matrix(-0.3987 0.9171 -0.9171 -0.3987 155.2383 110.1902)" class="st0 st1 st7">O</text>
<text transform="matrix(-0.5635 0.8261 -0.8261 -0.5635 150.0791 122.23)" class="st0 st1 st2">W</text>
<text transform="matrix(-0.7071 0.7071 -0.7071 -0.7071 142.7585 133.0807)" class="st0 st1 st8">N</text>
<text transform="matrix(-0.9178 0.397 -0.397 -0.9178 122.7598 149.7899)" class="st0 st1 st2">B</text>
<text transform="matrix(-0.9757 0.219 -0.219 -0.9757 110.7698 155.0493)" class="st0 st1 st9">R</text>
<text transform="matrix(-0.9995 3.001666e-02 -3.001666e-02 -0.9995 98.0004 157.9495)" class="st0 st1 st10">A</text>
<text transform="matrix(-0.9877 -0.1561 0.1561 -0.9877 84.9104 158.4102)" class="st0 st1 st11">N</text>
<text transform="matrix(-0.9406 -0.3396 0.3396 -0.9406 71.9798 156.4402)" class="st0 st1 st2">D</text>
<text transform="matrix(-0.7494 -0.6621 0.6621 -0.7494 48.3601 145.4296)" class="st0 st1 st2">S</text>
<text transform="matrix(-0.6129 -0.7902 0.7902 -0.6129 38.4902 136.8112)" class="st0 st1 st12">T</text>
<text transform="matrix(-0.4538 -0.8911 0.8911 -0.4538 30.41 126.4906)" class="st0 st1 st2">O</text>
<text transform="matrix(-0.278 -0.9606 0.9606 -0.278 24.4202 114.8908)" class="st0 st1 st2">R</text>
<text transform="matrix(-8.963770e-02 -0.996 0.996 -8.963770e-02 20.7097 102.3312)" class="st0 st1 st13">Y</text>
<text transform="matrix(0.2792 -0.9602 0.9602 0.2792 20.5904 76.2507)" class="st0 st1 st4">B</text>
<text transform="matrix(0.4592 -0.8883 0.8883 0.4592 24.182 63.6694)" class="st0 st1 st14">E</text>
<text transform="matrix(0.6112 -0.7915 0.7915 0.6112 30.0794 51.99)" class="st0 st1 st5">T</text>
<text transform="matrix(0.7507 -0.6606 0.6606 0.7507 38.0704 41.6107)" class="st0 st1 st15">T</text>
<text transform="matrix(0.8601 -0.5101 0.5101 0.8601 47.8505 32.8909)" class="st0 st1 st16">E</text>
<text transform="matrix(0.9411 -0.3381 0.3381 0.9411 59.09 26.1601)" class="st0 st1 st2">R</text>
</svg>
