<?xml version="1.0" encoding="utf-8"?>
<!-- Generator: Adobe Illustrator 24.1.0, SVG Export Plug-In . SVG Version: 6.00 Build 0)  -->
<svg version="1.1" id="Layer_1" xmlns="http://www.w3.org/2000/svg" xmlns:xlink="http://www.w3.org/1999/xlink" x="0px" y="0px"
	 viewBox="0 0 208 209" style="enable-background:new 0 0 208 209;" xml:space="preserve">
<style type="text/css">
	.st0{fill:#FF0737;}
</style>
<g>
	<path class="st0" d="M139.3,4.9l8.3,4.4l3.7,15.2c0.2,1.4,0.5,2.5,0.4,3.8l0.2,0.1l1.8-3.5l5.1-9.7L166,19l-11.7,22.3l-7.9-4.1
		l-4.1-15.4c-0.2-0.9-0.5-2.9-0.4-3.8l-0.2-0.1l-1.8,3.4l-5.1,9.8l-7.3-3.8L139.3,4.9z"/>
	<path class="st0" d="M165.5,34c6.5-5.1,14.7-3.2,21.2,5c6.5,8.2,6.5,16.6,0,21.8c-6.5,5.1-14.7,3.2-21.2-5
		C159,47.6,159,39.2,165.5,34z M180.8,53.3c3.2-2.6,3.6-6.6,0.8-10.2s-6.9-4.2-10.1-1.6c-3.2,2.6-3.5,6.6-0.7,10.2
		S177.5,55.9,180.8,53.3z"/>
	<path class="st0" d="M201.5,89.6l-2.8-9.3l-17.5,5.3l-2.6-8.7l17.5-5.3l-2.8-9.3l6.6-2l8.3,27.2L201.5,89.6z"/>
	<path class="st0" d="M182.9,106.9c0.1-1.8,0.4-3.6,0.8-4.9l6.7,0.5c-0.2,0.8-0.3,1.6-0.4,2.4c-0.2,2.5,0.4,4.8,3.9,5.1l14.4,1.2
		l-0.7,9l-16.1-1.3C184.2,118.3,182.4,112.9,182.9,106.9z"/>
	<path class="st0" d="M203,138.3l-12-4.9c-3.5-1.4-6.4-0.4-8,3.3c-1.5,3.6-0.1,6.5,3.3,7.9l12,4.9l-3.5,8.4l-13-5.4
		c-6.8-2.8-9.1-9.5-5.3-18.6c3.7-9.1,10.2-12.2,17-9.4l12.9,5.3L203,138.3z"/>
	<path class="st0" d="M175.6,150.5l-0.4,7.8c-3.3,0.2-7.4,1.7-10.4,4.9c-2.6,2.7-3.3,4.5-2.4,5.4c0.7,0.7,1.4,0.4,3.1-0.9l5.9-4.8
		c5-4.1,8.9-4.7,12.4-1.3c3.7,3.6,2.4,9.4-3.9,15.8c-3.9,4-8.4,6.9-12.9,7.8l-0.4-7.3c2.8-0.2,6.4-2.1,9.3-5.1
		c2.1-2.2,2.8-3.7,1.9-4.6c-0.7-0.7-1.5-0.4-3.5,1.2l-5,4.2c-5.6,4.7-9.1,5.4-12.6,2c-4.2-4.1-2.6-10.4,4-17.3
		C165.3,153.6,171.3,150.7,175.6,150.5z"/>
	<path class="st0" d="M133.3,198.3l8.8-4.2l-7.9-16.5l8.2-3.9l7.9,16.5l8.8-4.2l3,6.2l-25.7,12.2L133.3,198.3z"/>
	<path class="st0" d="M96,187.9l11.8,0.3l2.1-4.7l9.8,0.3l-12.4,24.9l-11.8-0.3l-11-25.5l9.7,0.3L96,187.9z M98.1,193.4l1.7,4.4
		c1,2.4,1.5,3.8,1.7,5.5h0.1c0.4-1.6,1-3,2-5.4l1.9-4.3L98.1,193.4z"/>
	<path class="st0" d="M59.8,199.7l-14.2-9.3c-7.9-5.2-10.2-12-6-18.5c4.2-6.4,12.3-7.5,20-2.5l14,9.2L59.8,199.7z M57.6,175.2
		c-3.8-2.5-7.5-1.7-9.9,1.9c-2.3,3.4-1.2,7,2.3,9.3l5.3,3.5l7.4-11.2L57.6,175.2z"/>
	<path class="st0" d="M26.3,141l5-3.4l15,21.9l-20.8,14.2L10.7,152l5-3.4l9.8,14.2l3-2L19,147.1l4.6-3.2l9.4,13.7l3.1-2.1L26.3,141z
		"/>
	<path class="st0" d="M26.9,139.2l-6.3-4.5c1.6-2.9,2.6-7.2,1.6-11.4c-0.9-3.7-2-5.2-3.3-4.9c-0.9,0.2-1.1,0.9-0.9,3.1l0.8,7.5
		c0.7,6.4-0.9,10-5.7,11.1c-5,1.2-9.2-3.1-11.2-11.8c-1.3-5.4-1.3-10.8,0.5-15.1l6.3,3.7c-1.3,2.5-1.7,6.5-0.8,10.6
		c0.7,2.9,1.6,4.4,2.8,4.1c1-0.2,1.2-1,0.9-3.6l-0.9-6.5c-0.9-7.3,0.4-10.6,5.2-11.7c5.7-1.3,10.2,3.4,12.4,12.7
		C29.8,128.9,29,135.5,26.9,139.2z"/>
	<path class="st0" d="M25.2,105.7l-25.2-1l0.4-9.1l25.2,1L25.2,105.7z"/>
	<path class="st0" d="M12.6,90.7C5.2,88.1,1.5,80.1,4.9,70.1c2.6-7.6,7.5-12.4,12.9-12.2l-1.7,9.9c-2.1,0.1-4.1,1.3-5.2,4.6
		c-1.5,4.5,0.4,7.8,4.7,9.2c4,1.4,7.5-0.1,9-4.6c1.5-4.3,0.3-7.2-1.4-8.1l0,0l-2.7,7.9l-5-1.7l5.5-15.9l13.7,4.7l-2.2,6.6l-4.1-1.1
		c1.7,1.9,3.4,5.8,1.2,12C26.6,89.9,19.6,93.1,12.6,90.7z"/>
	<path class="st0" d="M17.5,44.7l6.4-6.9l15.6,0.4c1.4,0.1,2.6,0.2,3.7,0.6l0.1-0.1l-2.9-2.7l-8-7.4l5.6-6l18.5,17.1l-6,6.5l-16,0
		c-1-0.1-2.9-0.2-3.8-0.6l-0.1,0.1l2.8,2.6l8.1,7.5l-5.6,6L17.5,44.7z"/>
	<path class="st0" d="M81.3,21.2l2.6,5.5L59.7,37.9L49.2,15L73.1,4l2.6,5.6L60,16.7l1.5,3.3L76.6,13l2.3,5.1l-15.1,6.9l1.6,3.5
		L81.3,21.2z"/>
	<path class="st0" d="M100.4,17.1l-5.3,0.3l0.4,8.2l-9.1,0.5L85.2,0.9L102.8,0c8.7-0.4,11.4,3.6,11.6,7.7c0.1,2.8-1,6.1-4.9,7.9
		l6.6,9l-10,0.5L100.4,17.1z M94.8,12l6.4-0.3c2.9-0.1,3.7-1.5,3.7-3.1c-0.1-1.5-1.1-2.8-3.9-2.6l-6.4,0.3L94.8,12z"/>
</g>
</svg>
