<?xml version="1.0" encoding="utf-8"?>
<!-- Generator: Adobe Illustrator 24.0.1, SVG Export Plug-In . SVG Version: 6.00 Build 0)  -->
<svg version="1.1" id="Layer_1" xmlns="http://www.w3.org/2000/svg" xmlns:xlink="http://www.w3.org/1999/xlink" x="0px" y="0px"
	 viewBox="0 0 208 209" style="enable-background:new 0 0 208 209;" xml:space="preserve">
<style type="text/css">
	.st0{fill:#6F42C1;}
</style>
<g>
	<path class="st0" d="M139.26,4.95l8.33,4.37l3.69,15.2c0.24,1.37,0.47,2.53,0.43,3.76l0.16,0.08l1.81-3.46l5.1-9.71l7.26,3.81
		l-11.71,22.32l-7.86-4.12l-4.1-15.42c-0.19-0.94-0.53-2.88-0.43-3.84l-0.16-0.08l-1.8,3.43l-5.15,9.81l-7.29-3.83L139.26,4.95z"/>
	<path class="st0" d="M165.48,34.01c6.48-5.14,14.7-3.18,21.21,5.02c6.49,8.18,6.52,16.62,0.04,21.76c-6.48,5.14-14.7,3.18-21.18-5
		C159.03,47.6,159,39.15,165.48,34.01z M180.77,53.29c3.25-2.58,3.59-6.61,0.77-10.17s-6.85-4.18-10.1-1.59
		c-3.25,2.58-3.54,6.62-0.72,10.18S177.51,55.87,180.77,53.29z"/>
	<path class="st0" d="M201.53,89.56l-2.83-9.31l-17.49,5.33l-2.64-8.66l17.49-5.33l-2.82-9.27l6.62-2.02l8.3,27.24L201.53,89.56z"/>
	<path class="st0" d="M182.93,106.91c0.15-1.84,0.44-3.63,0.83-4.88l6.69,0.54c-0.17,0.77-0.31,1.61-0.37,2.39
		c-0.21,2.51,0.36,4.8,3.86,5.09l14.37,1.17l-0.74,9.02l-16.1-1.31C184.17,118.34,182.44,112.93,182.93,106.91z"/>
	<path class="st0" d="M203.03,138.29l-12.02-4.94c-3.48-1.43-6.42-0.45-7.97,3.33c-1.46,3.55-0.11,6.52,3.34,7.94l12.02,4.94
		l-3.46,8.41l-13.04-5.36c-6.76-2.78-9.06-9.52-5.33-18.59c3.73-9.06,10.18-12.25,16.98-9.45l12.94,5.32L203.03,138.29z"/>
	<path class="st0" d="M175.55,150.51l-0.4,7.76c-3.29,0.23-7.4,1.73-10.44,4.87c-2.62,2.7-3.34,4.47-2.37,5.41
		c0.69,0.67,1.39,0.45,3.05-0.9l5.87-4.79c5-4.05,8.86-4.67,12.38-1.26c3.7,3.58,2.36,9.4-3.86,15.83
		c-3.85,3.98-8.35,6.94-12.95,7.82l-0.35-7.3c2.78-0.22,6.39-2.11,9.28-5.1c2.1-2.17,2.78-3.74,1.93-4.55
		c-0.71-0.69-1.51-0.43-3.47,1.19l-4.98,4.22c-5.6,4.71-9.13,5.35-12.6,1.99c-4.21-4.07-2.63-10.45,3.96-17.26
		C165.28,153.62,171.31,150.66,175.55,150.51z"/>
	<path class="st0" d="M133.26,198.29l8.78-4.19l-7.87-16.5l8.17-3.89l7.87,16.5l8.75-4.17l2.98,6.25l-25.7,12.25L133.26,198.29z"/>
	<path class="st0" d="M96.01,187.9l11.82,0.32l2.08-4.74l9.76,0.27l-12.41,24.88l-11.78-0.32l-11.02-25.52l9.72,0.27L96.01,187.9z
		 M98.06,193.43l1.65,4.41c0.96,2.41,1.49,3.84,1.73,5.48h0.11c0.36-1.62,0.97-3.03,2.03-5.38l1.89-4.32L98.06,193.43z"/>
	<path class="st0" d="M59.75,199.7l-14.16-9.28c-7.9-5.18-10.24-11.97-5.98-18.47c4.22-6.44,12.28-7.53,19.97-2.49l13.99,9.16
		L59.75,199.7z M57.6,175.2c-3.77-2.47-7.54-1.71-9.87,1.85c-2.26,3.45-1.19,6.99,2.32,9.29l5.32,3.48l7.37-11.25L57.6,175.2z"/>
	<path class="st0" d="M26.29,141.03l5.04-3.45l15.03,21.93l-20.79,14.25l-14.89-21.73l5.04-3.45l9.75,14.23l2.96-2.03l-9.41-13.73
		l4.63-3.17l9.41,13.73l3.13-2.15L26.29,141.03z"/>
	<path class="st0" d="M26.85,139.18l-6.31-4.54c1.59-2.88,2.56-7.16,1.57-11.41c-0.85-3.67-1.95-5.23-3.26-4.93
		c-0.93,0.22-1.13,0.92-0.89,3.05l0.84,7.53c0.69,6.4-0.88,9.98-5.66,11.09c-5.01,1.17-9.18-3.11-11.21-11.82
		c-1.26-5.39-1.31-10.78,0.45-15.12l6.32,3.67c-1.32,2.46-1.69,6.52-0.75,10.56c0.68,2.94,1.64,4.36,2.78,4.09
		c0.97-0.23,1.18-1.04,0.88-3.56l-0.85-6.47c-0.93-7.26,0.45-10.57,5.16-11.66c5.71-1.33,10.21,3.45,12.36,12.69
		C29.8,128.87,29.02,135.54,26.85,139.18z"/>
	<path class="st0" d="M25.19,105.66l-25.19-1l0.36-9.08l25.19,1L25.19,105.66z"/>
	<path class="st0" d="M12.57,90.65C5.15,88.1,1.49,80.05,4.91,70.08c2.61-7.62,7.53-12.43,12.92-12.16l-1.69,9.85
		c-2.11,0.14-4.12,1.29-5.24,4.55c-1.54,4.5,0.38,7.75,4.68,9.23c4,1.37,7.5-0.09,9.04-4.59c1.47-4.3,0.27-7.23-1.42-8.11
		l-0.03-0.01l-2.7,7.86l-5-1.72l5.46-15.92l13.74,4.71l-2.25,6.55l-4.07-1.06c1.69,1.86,3.4,5.75,1.24,12.03
		C26.63,89.92,19.59,93.05,12.57,90.65z"/>
	<path class="st0" d="M17.5,44.69l6.38-6.91l15.64,0.39c1.39,0.12,2.57,0.2,3.74,0.56l0.12-0.13l-2.87-2.65l-8.05-7.44l5.57-6.02
		l18.5,17.11l-6.02,6.52l-15.95-0.05c-0.96-0.06-2.92-0.24-3.82-0.58l-0.12,0.13l2.84,2.63l8.13,7.52L36,61.82L17.5,44.69z"/>
	<path class="st0" d="M81.28,21.21l2.55,5.55l-24.16,11.1l-10.52-22.9l23.93-11l2.55,5.55l-15.68,7.2l1.5,3.26l15.13-6.95l2.34,5.1
		l-15.13,6.95l1.59,3.45L81.28,21.21z"/>
	<path class="st0" d="M100.41,17.15l-5.28,0.27l0.41,8.23l-9.08,0.46L85.19,0.92l17.62-0.89c8.69-0.44,11.42,3.62,11.62,7.7
		c0.14,2.84-1.01,6.13-4.86,7.89l6.57,8.98l-10,0.5L100.41,17.15z M94.85,11.99l6.38-0.32c2.91-0.15,3.73-1.54,3.65-3.13
		c-0.08-1.52-1.06-2.75-3.9-2.61l-6.42,0.32L94.85,11.99z"/>
</g>
</svg>
