<?xml version="1.0" encoding="utf-8"?>
<!-- Generator: Adobe Illustrator 24.1.0, SVG Export Plug-In . SVG Version: 6.00 Build 0)  -->
<svg version="1.1" id="Layer_1" xmlns="http://www.w3.org/2000/svg" xmlns:xlink="http://www.w3.org/1999/xlink" x="0px" y="0px"
	 viewBox="0 0 208 209" style="enable-background:new 0 0 208 209;" xml:space="preserve">
<style type="text/css">
	.st0{fill:#FF0737;}
</style>
<g>
	<path class="st0" d="M138.1,7.2l7.8,4l3.6,14.1c0.2,1.3,0.5,2.4,0.4,3.5l0.1,0.1l1.6-3.2l4.6-9.1l6.8,3.5l-10.6,20.9l-7.4-3.7
		l-4-14.3c-0.2-0.9-0.5-2.7-0.4-3.6l-0.1-0.1l-1.6,3.2l-4.7,9.2l-6.8-3.5L138.1,7.2z"/>
	<path class="st0" d="M162.6,33.7c5.8-5,13.5-3.5,19.9,3.8c6.3,7.3,6.7,15.2,0.9,20.2c-5.8,5-13.5,3.5-19.9-3.8
		C157.2,46.5,156.8,38.7,162.6,33.7z M177.6,51c2.9-2.5,3.1-6.3,0.3-9.5s-6.5-3.6-9.4-1.1s-3,6.3-0.3,9.5S174.7,53.5,177.6,51z"/>
	<path class="st0" d="M198.8,83.3l-3.2-8.4l-15.9,6l-3-7.9l15.9-6l-3.2-8.4l6-2.3l9.4,24.7L198.8,83.3z"/>
	<path class="st0" d="M182.9,100.6c0-1.7,0.1-3.4,0.3-4.6l6.2-0.1c-0.1,0.7-0.1,1.5-0.1,2.2c0,2.3,0.8,4.4,4,4.4l13.4-0.2l0.1,8.4
		l-15,0.2C185.1,111.1,183,106.2,182.9,100.6z"/>
	<path class="st0" d="M204.4,127.7l-11.6-3.3c-3.4-1-6,0.2-7,3.9c-1,3.4,0.6,6,3.9,7l11.6,3.3l-2.3,8.1l-12.6-3.6
		c-6.5-1.9-9.4-7.9-6.9-16.6s8.1-12.4,14.7-10.5l12.5,3.6L204.4,127.7z"/>
	<path class="st0" d="M180.3,141.8l0.6,7.2c-3,0.6-6.6,2.5-9,5.8c-2.1,2.8-2.5,4.5-1.5,5.3c0.7,0.5,1.3,0.2,2.7-1.2l4.8-5.1
		c4.1-4.4,7.6-5.4,11.2-2.7c3.9,2.8,3.4,8.4-1.6,15.1c-3.1,4.1-6.8,7.4-10.9,8.8l-1.2-6.7c2.5-0.6,5.6-2.8,7.9-5.9
		c1.7-2.3,2.1-3.8,1.2-4.4c-0.8-0.6-1.4-0.2-3.1,1.5l-4.1,4.5c-4.6,5.1-7.7,6.1-11.4,3.4c-4.4-3.2-3.7-9.3,1.5-16.4
		C171.2,146,176.4,142.5,180.3,141.8z"/>
	<path class="st0" d="M148,191.5l7.4-5.1l-9.7-14l6.9-4.8l9.7,14l7.4-5.1l3.7,5.3l-21.8,15.1L148,191.5z"/>
	<path class="st0" d="M112.4,188.2l10.8-1.8l1.1-4.7l9-1.5l-7,24.9l-10.8,1.8L101,185.6l8.9-1.5L112.4,188.2z M115.3,192.9l2.3,3.7
		c1.3,2,2,3.2,2.5,4.7l0.1,0c0.1-1.6,0.4-2.9,0.9-5.3l1-4.3L115.3,192.9z"/>
	<path class="st0" d="M82.1,205.9l-14.8-5.4c-8.2-3-11.8-8.7-9.3-15.5c2.5-6.7,9.5-9.4,17.5-6.5l14.6,5.4L82.1,205.9z M75,184.2
		c-3.9-1.4-7.2,0-8.6,3.8c-1.3,3.6,0.4,6.6,4.1,7.9l5.6,2l4.3-11.8L75,184.2z"/>
	<path class="st0" d="M39.1,160.4l3.7-4.3l18.6,16.2L46,190l-18.4-16.1l3.7-4.3l12.1,10.5l2.2-2.5l-11.7-10.2l3.4-3.9L49,173.8
		l2.3-2.7L39.1,160.4z"/>
	<path class="st0" d="M21.6,167.6l-4.4-8.3l9.8-12.2c0.6-0.8,1.2-1.3,1.9-1.9l-0.1-0.1c-0.8,0.2-1.6,0.4-2.6,0.5l-15.6,1.4l-4.4-8.3
		l26-1.1l4.8,9L21.6,167.6z"/>
	<path class="st0" d="M18.7,103.1l5.6-0.7l3.1,24.5l-23.2,3l-3.1-24.3l5.6-0.7l2,15.9l3.3-0.4l-1.9-15.4l5.2-0.7l1.9,15.4l3.5-0.4
		L18.7,103.1z"/>
	<path class="st0" d="M1.8,95l1.7-8.3l16.6,3.4l3-14.5l6.3,1.3l-4.6,22.8L1.8,95z"/>
	<path class="st0" d="M18.5,71.4c-6.6-4-7.5-11.8-2.4-20.1c5.1-8.3,12.4-11,19-7s7.5,11.8,2.5,20.1C32.5,72.7,25.1,75.4,18.5,71.4z
		 M30.4,51.9c-3.3-2-6.9-1-9.1,2.6s-1.4,7.3,1.9,9.3c3.3,2,6.9,1,9.1-2.6S33.7,53.9,30.4,51.9z"/>
	<path class="st0" d="M58.3,21.2c3.2,4.2,2.1,9.2-2.9,13l-6.5,5l4.2,5.4l-6.7,5.2L32.2,31.2l13-10C50.4,17.2,55.3,17.2,58.3,21.2z
		 M51.4,26.9c-1.2-1.5-2.8-1.5-4.7-0.1l-4.6,3.6l3.6,4.6l4.6-3.5C52.2,30,52.6,28.4,51.4,26.9z"/>
	<path class="st0" d="M90.8,20.4l1.7,5.4L69,33.3l-7.1-22.3l23.3-7.4L87,9l-15.3,4.9l1,3.2l14.8-4.7l1.6,5L74.3,22l1.1,3.4
		L90.8,20.4z"/>
	<path class="st0" d="M108.9,18.4l-4.9-0.2l-0.3,7.6l-8.4-0.4l1.1-23.4l16.4,0.8c8.1,0.4,10.2,4.4,10.1,8.2
		c-0.1,2.6-1.5,5.6-5.2,6.9l5.3,8.9l-9.3-0.4L108.9,18.4z M104.2,13.2l5.9,0.3c2.7,0.1,3.6-1.1,3.7-2.6c0.1-1.4-0.7-2.6-3.4-2.8
		l-6-0.3L104.2,13.2z"/>
</g>
</svg>
