<?xml version="1.0" encoding="utf-8"?>
<!-- Generator: Adobe Illustrator 24.0.1, SVG Export Plug-In . SVG Version: 6.00 Build 0)  -->
<svg version="1.1" id="Layer_1" xmlns="http://www.w3.org/2000/svg" xmlns:xlink="http://www.w3.org/1999/xlink" x="0px" y="0px"
	 viewBox="0 0 208 209" style="enable-background:new 0 0 208 209;" xml:space="preserve">
<style type="text/css">
	.st0{fill:#6F42C1;}
</style>
<g>
	<path class="st0" d="M138.05,7.2l7.8,3.96l3.63,14.08c0.24,1.27,0.47,2.35,0.45,3.49l0.15,0.07l1.64-3.24l4.61-9.09l6.8,3.45
		l-10.6,20.9l-7.36-3.73l-4.01-14.28c-0.19-0.87-0.53-2.67-0.45-3.56l-0.15-0.08l-1.63,3.21l-4.66,9.18l-6.83-3.46L138.05,7.2z"/>
	<path class="st0" d="M162.64,33.69c5.82-5.02,13.52-3.52,19.88,3.85c6.34,7.34,6.7,15.18,0.88,20.21
		c-5.82,5.02-13.52,3.52-19.86-3.82C157.18,46.55,156.82,38.71,162.64,33.69z M177.58,51c2.92-2.52,3.08-6.28,0.32-9.47
		s-6.52-3.61-9.44-1.09c-2.92,2.52-3.03,6.28-0.27,9.48S174.66,53.52,177.58,51z"/>
	<path class="st0" d="M198.81,83.32l-3.21-8.45l-15.89,6.03l-2.98-7.87L192.62,67l-3.2-8.42l6.02-2.28l9.39,24.74L198.81,83.32z"/>
	<path class="st0" d="M182.87,100.63c-0.03-1.71,0.08-3.4,0.32-4.59l6.23-0.1c-0.09,0.73-0.14,1.52-0.13,2.25
		c0.04,2.34,0.76,4.41,4.03,4.36l13.39-0.22l0.14,8.41l-15.01,0.24C185.06,111.09,182.96,106.24,182.87,100.63z"/>
	<path class="st0" d="M204.4,127.67l-11.62-3.31c-3.36-0.96-5.97,0.25-7.02,3.9c-0.98,3.43,0.58,6.03,3.91,6.98l11.62,3.31
		l-2.32,8.12l-12.6-3.59c-6.54-1.86-9.36-7.85-6.86-16.61c2.5-8.76,8.12-12.37,14.7-10.5l12.5,3.57L204.4,127.67z"/>
	<path class="st0" d="M180.29,141.81l0.61,7.2c-3,0.63-6.6,2.52-9,5.8c-2.07,2.82-2.51,4.54-1.5,5.28c0.72,0.53,1.34,0.24,2.69-1.22
		l4.81-5.15c4.1-4.36,7.58-5.41,11.25-2.72c3.86,2.83,3.36,8.36-1.56,15.07c-3.05,4.15-6.82,7.45-10.95,8.83l-1.24-6.68
		c2.54-0.55,5.62-2.75,7.91-5.87c1.66-2.26,2.09-3.79,1.21-4.44c-0.75-0.55-1.45-0.2-3.05,1.53l-4.05,4.52
		c-4.56,5.05-7.73,6.08-11.35,3.42c-4.39-3.22-3.74-9.3,1.47-16.4C171.22,145.97,176.4,142.48,180.29,141.81z"/>
	<path class="st0" d="M147.98,191.51l7.44-5.14l-9.67-13.98l6.92-4.79l9.67,13.98l7.41-5.12l3.66,5.29l-21.77,15.05L147.98,191.51z"
		/>
	<path class="st0" d="M112.44,188.22l10.84-1.77l1.07-4.69l8.96-1.46l-6.98,24.87l-10.81,1.76l-14.52-21.37l8.92-1.46L112.44,188.22
		z M115.28,192.9l2.28,3.74c1.3,2.03,2.03,3.25,2.54,4.7l0.1-0.02c0.05-1.55,0.36-2.93,0.91-5.26l0.97-4.27L115.28,192.9z"/>
	<path class="st0" d="M82.11,205.95l-14.78-5.42c-8.24-3.02-11.79-8.68-9.31-15.47c2.46-6.72,9.53-9.41,17.55-6.47l14.6,5.35
		L82.11,205.95z M74.99,184.22c-3.94-1.44-7.19,0.04-8.55,3.76c-1.32,3.59,0.4,6.58,4.06,7.92l5.55,2.03l4.3-11.75L74.99,184.22z"/>
	<path class="st0" d="M39.07,160.4l3.73-4.28l18.62,16.25l-15.41,17.65l-18.44-16.1l3.73-4.28l12.08,10.54l2.19-2.51l-11.66-10.18
		l3.43-3.93L49,173.76l2.32-2.66L39.07,160.4z"/>
	<path class="st0" d="M21.65,167.6l-4.42-8.26l9.82-12.21c0.63-0.78,1.2-1.32,1.85-1.85l-0.06-0.12c-0.81,0.24-1.57,0.43-2.57,0.51
		l-15.61,1.38l-4.42-8.26l25.95-1.15l4.82,9.02L21.65,167.6z"/>
	<path class="st0" d="M18.73,103.06l5.63-0.71l3.11,24.53l-23.25,2.95l-3.08-24.3l5.63-0.71l2.02,15.91l3.31-0.42l-1.95-15.36
		l5.17-0.66l1.95,15.36l3.5-0.44L18.73,103.06z"/>
	<path class="st0" d="M1.83,94.98l1.68-8.28l16.62,3.38l2.95-14.49l6.34,1.29l-4.63,22.76L1.83,94.98z"/>
	<path class="st0" d="M18.54,71.42c-6.57-4-7.5-11.79-2.44-20.11c5.05-8.29,12.4-11.03,18.97-7.03s7.5,11.79,2.45,20.08
		C32.46,72.67,25.1,75.42,18.54,71.42z M30.43,51.89c-3.3-2.01-6.92-1.01-9.12,2.6s-1.44,7.31,1.86,9.32
		c3.3,2.01,6.91,0.96,9.11-2.64S33.73,53.9,30.43,51.89z"/>
	<path class="st0" d="M58.34,21.24c3.2,4.16,2.06,9.23-2.88,13.03L49,39.24l4.16,5.41l-6.7,5.15L32.19,31.24l13.02-10.02
		C50.39,17.24,55.26,17.24,58.34,21.24z M51.44,26.88c-1.17-1.52-2.76-1.54-4.65-0.09l-4.63,3.56l3.56,4.63l4.6-3.54
		C52.18,30.01,52.61,28.4,51.44,26.88z"/>
	<path class="st0" d="M90.84,20.4l1.72,5.41L69,33.28l-7.08-22.33l23.33-7.4l1.72,5.41l-15.28,4.85l1.01,3.18l14.75-4.68l1.58,4.97
		l-14.75,4.68l1.07,3.36L90.84,20.4z"/>
	<path class="st0" d="M108.88,18.43l-4.91-0.22l-0.35,7.65l-8.44-0.39l1.07-23.4l16.38,0.75c8.08,0.37,10.24,4.37,10.06,8.16
		c-0.12,2.64-1.48,5.58-5.2,6.86l5.27,8.9l-9.29-0.43L108.88,18.43z M104.2,13.16l5.93,0.27c2.7,0.12,3.58-1.09,3.65-2.57
		c0.06-1.42-0.74-2.64-3.37-2.76l-5.97-0.27L104.2,13.16z"/>
</g>
</svg>
