<svg id="Layer_1" data-name="Layer 1" xmlns="http://www.w3.org/2000/svg" viewBox="0 0 169.34 169.34"><defs><style>.cls-1{font-size:18px;fill:#ff0737;font-family:JetBrainsMono-ExtraBold, JetBrains Mono;font-weight:800;}</style></defs><text class="cls-1" transform="translate(84.51 15.27) rotate(4.26)">G</text><text class="cls-1" transform="translate(94.86 16.01) rotate(12.84)">E</text><text class="cls-1" transform="translate(104.98 18.28) rotate(21.48)">T</text><text class="cls-1" transform="translate(114.64 22.05) rotate(30.07)"> </text><text class="cls-1" transform="matrix(0.78, 0.62, -0.62, 0.78, 123.64, 27.22)">I</text><text class="cls-1" transform="matrix(0.68, 0.73, -0.73, 0.68, 131.76, 33.68)">N</text><text class="cls-1" transform="matrix(0.56, 0.83, -0.83, 0.56, 138.85, 41.27)"> </text><text class="cls-1" transform="matrix(0.43, 0.9, -0.9, 0.43, 144.72, 49.81)">T</text><text class="cls-1" transform="translate(149.25 59.14) rotate(72.9)">O</text><text class="cls-1" transform="translate(152.33 69.04) rotate(81.51)">U</text><text class="cls-1" transform="translate(153.97 79.31) rotate(90.93)">C</text><text class="cls-1" transform="matrix(-0.15, 0.99, -0.99, -0.15, 153.92, 89.67)">H</text><text class="cls-1" transform="translate(152.42 99.92) rotate(107.12)"> </text><text class="cls-1" transform="translate(149.4 109.84) rotate(115.75)">T</text><text class="cls-1" transform="translate(144.91 119.22) rotate(124.34)">O</text><text class="cls-1" transform="matrix(-0.68, 0.73, -0.73, -0.68, 139.09, 127.79)">D</text><text class="cls-1" transform="matrix(-0.78, 0.62, -0.62, -0.78, 132.05, 135.42)">A</text><text class="cls-1" transform="matrix(-0.87, 0.5, -0.5, -0.87, 123.96, 141.92)">Y</text><text class="cls-1" transform="matrix(-0.93, 0.37, -0.37, -0.93, 115.01, 147.14)"> </text><text class="cls-1" transform="translate(105.37 150.96) rotate(167.18)">•</text><text class="cls-1" transform="translate(95.25 153.29) rotate(175.76)"> </text><text class="cls-1" transform="matrix(-1, -0.07, 0.07, -1, 84.91, 154.09)">G</text><text class="cls-1" transform="translate(74.58 153.37) rotate(-167.23)">E</text><text class="cls-1" transform="translate(64.43 151.1) rotate(-158.57)">T</text><text class="cls-1" transform="matrix(-0.87, -0.5, 0.5, -0.87, 54.77, 147.34)"> </text><text class="cls-1" transform="matrix(-0.78, -0.62, 0.62, -0.78, 45.79, 142.19)">I</text><text class="cls-1" transform="translate(37.66 135.74) rotate(-132.91)">N</text><text class="cls-1" transform="translate(30.56 128.15) rotate(-124.37)"> </text><text class="cls-1" transform="matrix(-0.44, -0.9, 0.9, -0.44, 24.69, 119.62)">T</text><text class="cls-1" transform="translate(20.14 110.29) rotate(-107.17)">O</text><text class="cls-1" transform="translate(17.05 100.4) rotate(-98.55)">U</text><text class="cls-1" transform="translate(15.57 90.16) rotate(-90.93)">C</text><text class="cls-1" transform="translate(15.44 79.75) rotate(-81.54)">H</text><text class="cls-1" transform="translate(16.93 69.49) rotate(-72.92)"> </text><text class="cls-1" transform="translate(19.95 59.57) rotate(-64.3)">T</text><text class="cls-1" transform="translate(24.42 50.21) rotate(-55.72)">O</text><text class="cls-1" transform="matrix(0.68, -0.73, 0.73, 0.68, 30.24, 41.61)">D</text><text class="cls-1" transform="matrix(0.78, -0.62, 0.62, 0.78, 37.25, 34)">A</text><text class="cls-1" transform="matrix(0.87, -0.5, 0.5, 0.87, 45.34, 27.49)">Y</text><text class="cls-1" transform="matrix(0.93, -0.37, 0.37, 0.93, 54.28, 22.26)"> </text><text class="cls-1" transform="translate(63.94 18.42) rotate(-12.86)">•</text><text class="cls-1" transform="translate(74.03 16.08) rotate(-4.31)"> </text></svg>