<?xml version="1.0" encoding="utf-8"?>
<!-- Generator: Adobe Illustrator 24.1.0, SVG Export Plug-In . SVG Version: 6.00 Build 0)  -->
<svg version="1.1" id="Layer_1" xmlns="http://www.w3.org/2000/svg" xmlns:xlink="http://www.w3.org/1999/xlink" x="0px" y="0px"
	 viewBox="0 0 207 207" style="enable-background:new 0 0 207 207;" xml:space="preserve">
<style type="text/css">
	.st0{fill:#FF0737;}
</style>
<g>
	<path class="st0" d="M136.9,5.1l7.9,3.7l-7.4,15.9l13.8,6.4l-2.8,6L126.8,27L136.9,5.1z"/>
	<path class="st0" d="M172.2,51.7l-4.1,4.2l-18.2-17.8l16.8-17.3l18.1,17.6l-4.1,4.2l-11.8-11.5l-2.4,2.5L178,44.7l-3.8,3.8
		l-11.4-11.1l-2.5,2.6L172.2,51.7z"/>
	<path class="st0" d="M182.3,74.4L177.6,64l-4.9,0.2l-3.8-8.5l26.6,0.4l4.6,10.3l-17.4,20.1l-3.8-8.5L182.3,74.4z M186.2,70.3
		l3.1-3.3c1.7-1.8,2.7-2.9,4-3.8l0-0.1c-1.6,0.4-3,0.4-5.5,0.5l-4.5,0.2L186.2,70.3z"/>
	<path class="st0" d="M190.5,101l-0.2-5.1l-7.9,0.2l-0.3-8.7l24.1-0.8l0.6,16.9c0.3,8.3-3.7,10.9-7.6,11c-2.7,0.1-5.9-1.1-7.5-4.8
		l-8.7,6.1l-0.3-9.6L190.5,101z M195.5,95.8l0.2,6.1c0.1,2.8,1.4,3.6,2.9,3.5c1.5-0.1,2.7-1,2.6-3.7l-0.2-6.2L195.5,95.8z"/>
	<path class="st0" d="M205.4,125.8l-3.1,8.4l-14,5.3c-1.3,0.4-2.4,0.8-3.5,0.9l-0.1,0.2l3.5,1.3l9.8,3.7l-2.8,7.4l-22.6-8.4l3-8
		l14.2-5.8c0.9-0.3,2.7-0.9,3.6-0.9l0.1-0.2l-3.5-1.3l-9.9-3.7l2.8-7.4L205.4,125.8z"/>
	<path class="st0" d="M152,171.8l8.8-7.1l-1.4-4.7l7.2-5.9l6.5,25.8l-8.8,7.1l-23.9-11.6l7.2-5.9L152,171.8z M156.9,174.5l4,2.2
		c2.2,1.1,3.5,1.9,4.7,2.9l0.1-0.1c-0.8-1.4-1.2-2.8-1.9-5.2l-1.3-4.3L156.9,174.5z"/>
	<path class="st0" d="M146.1,198.5l-8.7,2.5l-12.6-8.1c-1.1-0.8-2-1.4-2.8-2.3l-0.2,0.1l1,3.6l2.9,10.1l-7.6,2.2l-6.7-23.2l8.2-2.4
		l13,8c0.8,0.5,2.3,1.6,2.8,2.4l0.2-0.1l-1-3.6l-2.9-10.2l7.6-2.2L146.1,198.5z"/>
	<path class="st0" d="M105.3,207.5l-16.1-2c-9-1.1-13.9-5.9-13-13.3c0.9-7.3,7.3-11.7,16.1-10.6l15.9,1.9L105.3,207.5z M93.1,187.4
		c-4.3-0.5-7.2,1.7-7.7,5.8c-0.5,3.9,1.9,6.5,5.9,7l6,0.7l1.6-12.8L93.1,187.4z"/>
	<path class="st0" d="M41.6,162.7l3.6-4.6l20.2,15.5l-14.7,19.1l-20-15.4l3.6-4.6l13.1,10.1l2.1-2.7l-12.7-9.7l3.3-4.3l12.6,9.7
		l2.2-2.9L41.6,162.7z"/>
	<path class="st0" d="M29,141.4l5.8,9.7l4.9-0.8l4.8,8L18,161.2l-5.8-9.7l14.9-22l4.8,8L29,141.4z M25.6,145.9l-2.7,3.6
		c-1.5,2-2.3,3.2-3.5,4.2l0,0.1c1.5-0.5,2.9-0.8,5.4-1.1l4.5-0.7L25.6,145.9z"/>
	<path class="st0" d="M17.7,115.9l0.8,5l7.8-1.2l1.3,8.6L3.6,132l-2.5-16.7c-1.2-8.2,2.4-11.2,6.2-11.8c2.7-0.4,5.9,0.4,8,3.9
		l7.9-7.1l1.4,9.5L17.7,115.9z M13.3,121.7l-0.9-6.1c-0.4-2.8-1.8-3.4-3.3-3.2c-1.4,0.2-2.5,1.3-2.1,4l0.9,6.1L13.3,121.7z"/>
	<path class="st0" d="M0,93.1l2.1-8.8l13.3-7c1.2-0.5,2.2-1,3.4-1.3l0-0.2L15.2,75L5,72.5l1.8-7.6l23.5,5.7l-2,8.3l-13.4,7.4
		c-0.8,0.4-2.6,1.2-3.5,1.3l0,0.2l3.6,0.9l10.3,2.5l-1.9,7.7L0,93.1z"/>
	<path class="st0" d="M47.6,41.1l-7.9,8.1l2,4.5l-6.5,6.7l-9.5-24.9l7.9-8.1l25.1,8.8L52.2,43L47.6,41.1z M42.3,39l-4.2-1.7
		c-2.3-0.9-3.7-1.4-5-2.3L33.1,35c0.9,1.3,1.5,2.7,2.5,4.9l1.8,4.1L42.3,39z"/>
	<path class="st0" d="M50.3,13.9l8.3-3.5l13.5,6.5c1.2,0.7,2.2,1.2,3,2l0.2-0.1l-1.4-3.4l-4.1-9.7l7.2-3l9.4,22.2l-7.8,3.3
		l-13.9-6.4c-0.8-0.4-2.5-1.4-3.1-2l-0.2,0.1l1.4,3.4l4.1,9.8l-7.3,3.1L50.3,13.9z"/>
	<path class="st0" d="M90.1,0l16.2,0.3c9,0.2,14.4,4.4,14.3,11.9c-0.1,7.4-6.1,12.4-14.9,12.2l-16-0.3L90.1,0z M104.4,18.7
		c4.3,0.1,7-2.5,7-6.6c0.1-3.9-2.6-6.3-6.6-6.3l-6.1-0.1l-0.2,12.9L104.4,18.7z"/>
</g>
</svg>
