<?xml version="1.0" encoding="utf-8"?>
<!-- Generator: Adobe Illustrator 24.0.1, SVG Export Plug-In . SVG Version: 6.00 Build 0)  -->
<svg version="1.1" id="Layer_1" xmlns="http://www.w3.org/2000/svg" xmlns:xlink="http://www.w3.org/1999/xlink" x="0px" y="0px"
	 viewBox="0 0 207 207" style="enable-background:new 0 0 207 207;" xml:space="preserve">
<style type="text/css">
	.st0{fill:#6F42C1;}
</style>
<g>
	<path class="st0" d="M136.94,5.1l7.9,3.66l-7.35,15.86l13.82,6.41l-2.8,6.05L126.79,27L136.94,5.1z"/>
	<path class="st0" d="M172.25,51.73l-4.08,4.19l-18.25-17.76l16.84-17.3l18.08,17.59l-4.08,4.19l-11.84-11.52l-2.39,2.46
		l11.43,11.12l-3.75,3.85l-11.43-11.12l-2.54,2.61L172.25,51.73z"/>
	<path class="st0" d="M182.28,74.38l-4.63-10.33l-4.95,0.17l-3.83-8.53l26.62,0.36l4.62,10.3l-17.43,20.12l-3.81-8.5L182.28,74.38z
		 M186.2,70.31l3.12-3.26c1.67-1.83,2.69-2.88,4.01-3.77l-0.04-0.09c-1.55,0.36-3.02,0.42-5.48,0.48l-4.51,0.16L186.2,70.31z"/>
	<path class="st0" d="M190.5,101.03l-0.16-5.06l-7.88,0.25l-0.28-8.7l24.13-0.78l0.55,16.89c0.27,8.32-3.66,10.87-7.57,10.99
		c-2.72,0.09-5.85-1.07-7.47-4.79l-8.71,6.13l-0.31-9.58L190.5,101.03z M195.54,95.8l0.2,6.12c0.09,2.79,1.41,3.59,2.94,3.54
		c1.46-0.05,2.66-0.97,2.57-3.69l-0.2-6.15L195.54,95.8z"/>
	<path class="st0" d="M205.38,125.84l-3.15,8.44l-14,5.34c-1.27,0.4-2.35,0.76-3.52,0.87l-0.06,0.16l3.5,1.31l9.84,3.67l-2.75,7.36
		l-22.62-8.44l2.97-7.97l14.16-5.75c0.87-0.29,2.68-0.85,3.59-0.87l0.06-0.16l-3.47-1.29l-9.94-3.71l2.76-7.39L205.38,125.84z"/>
	<path class="st0" d="M152,171.79l8.78-7.15l-1.45-4.74l7.25-5.9l6.54,25.81l-8.75,7.13l-23.94-11.64l7.22-5.88L152,171.79z
		 M156.94,174.52l3.96,2.17c2.2,1.14,3.48,1.86,4.68,2.9l0.08-0.06c-0.75-1.41-1.19-2.8-1.89-5.17l-1.32-4.32L156.94,174.52z"/>
	<path class="st0" d="M146.08,198.52l-8.66,2.49l-12.62-8.09c-1.08-0.79-2.01-1.44-2.79-2.31l-0.16,0.05l1.03,3.59l2.9,10.1
		l-7.55,2.17l-6.66-23.21l8.17-2.35l13.04,7.97c0.75,0.53,2.28,1.65,2.84,2.37l0.16-0.05l-1.02-3.56l-2.93-10.2l7.58-2.18
		L146.08,198.52z"/>
	<path class="st0" d="M105.3,207.48l-16.1-1.96c-8.98-1.09-13.87-5.93-12.97-13.33c0.89-7.32,7.35-11.68,16.09-10.61l15.9,1.93
		L105.3,207.48z M93.05,187.35c-4.29-0.52-7.2,1.73-7.69,5.78c-0.48,3.92,1.95,6.5,5.93,6.99l6.04,0.73l1.56-12.79L93.05,187.35z"/>
	<path class="st0" d="M41.61,162.73l3.56-4.64l20.21,15.5l-14.69,19.15l-20.02-15.35l3.56-4.64l13.11,10.06l2.09-2.72l-12.65-9.7
		l3.27-4.26l12.65,9.7l2.21-2.89L41.61,162.73z"/>
	<path class="st0" d="M28.98,141.42l5.82,9.71l4.9-0.76l4.81,8.02l-26.47,2.79l-5.81-9.68l14.93-22.04l4.79,7.99L28.98,141.42z
		 M25.57,145.92l-2.71,3.61c-1.45,2.02-2.33,3.18-3.53,4.22l0.05,0.09c1.5-0.54,2.94-0.77,5.39-1.13l4.46-0.69L25.57,145.92z"/>
	<path class="st0" d="M17.66,115.9l0.75,5.01l7.8-1.17l1.3,8.61l-23.87,3.6l-2.52-16.71c-1.24-8.24,2.37-11.22,6.23-11.8
		c2.69-0.41,5.94,0.38,7.98,3.89l7.94-7.11l1.43,9.48L17.66,115.9z M13.27,121.69l-0.91-6.05c-0.42-2.76-1.82-3.4-3.33-3.18
		c-1.45,0.22-2.52,1.27-2.12,3.96l0.92,6.08L13.27,121.69z"/>
	<path class="st0" d="M0,93.06l2.13-8.75l13.27-6.96c1.22-0.54,2.24-1.03,3.39-1.28l0.04-0.17l-3.63-0.88L4.98,72.54l1.85-7.63
		l23.46,5.7l-2.01,8.26l-13.38,7.39c-0.83,0.39-2.56,1.16-3.46,1.29l-0.04,0.17l3.6,0.88l10.31,2.5l-1.86,7.66L0,93.06z"/>
	<path class="st0" d="M47.57,41.12l-7.88,8.13l1.99,4.54l-6.51,6.71l-9.52-24.86l7.86-8.11l25.14,8.75l-6.48,6.69L47.57,41.12z
		 M42.35,38.99l-4.19-1.69c-2.32-0.88-3.68-1.43-4.99-2.33l-0.07,0.07c0.91,1.31,1.51,2.65,2.48,4.92l1.82,4.13L42.35,38.99z"/>
	<path class="st0" d="M50.31,13.89l8.31-3.49l13.48,6.54c1.16,0.66,2.16,1.19,3.04,1.97l0.16-0.07l-1.45-3.45L69.77,5.7l7.24-3.05
		l9.36,22.25l-7.83,3.3l-13.89-6.37c-0.81-0.43-2.46-1.36-3.1-2.02l-0.16,0.07l1.44,3.42l4.11,9.78l-7.27,3.06L50.31,13.89z"/>
	<path class="st0" d="M90.09,0l16.22,0.26c9.04,0.15,14.41,4.45,14.29,11.89c-0.12,7.38-6.08,12.38-14.89,12.24l-16.01-0.26L90.09,0
		z M104.38,18.73c4.32,0.07,6.98-2.47,7.04-6.55c0.06-3.94-2.62-6.27-6.63-6.33l-6.09-0.1L98.5,18.63L104.38,18.73z"/>
</g>
</svg>
