<?xml version="1.0" encoding="utf-8"?>
<!-- Generator: Adobe Illustrator 24.0.1, SVG Export Plug-In . SVG Version: 6.00 Build 0)  -->
<svg version="1.1" id="Layer_1" xmlns="http://www.w3.org/2000/svg" xmlns:xlink="http://www.w3.org/1999/xlink" x="0px" y="0px"
	 viewBox="0 0 208 209" style="enable-background:new 0 0 208 209;" xml:space="preserve">
<style type="text/css">
	.st0{fill:#6F42C1;}
</style>
<g>
	<path class="st0" d="M138.84,5.46l8.22,4.29l3.68,14.98c0.24,1.35,0.47,2.5,0.44,3.7l0.16,0.08l1.78-3.41l5-9.59l7.17,3.74
		L153.8,41.28l-7.76-4.04l-4.08-15.19c-0.19-0.93-0.53-2.84-0.44-3.78l-0.16-0.08l-1.76,3.38l-5.05,9.68l-7.2-3.75L138.84,5.46z"/>
	<path class="st0" d="M164.7,33.97c6.34-5.12,14.46-3.26,20.94,4.77c6.46,8,6.58,16.33,0.23,21.45c-6.34,5.12-14.46,3.27-20.92-4.74
		C158.47,47.41,158.36,39.09,164.7,33.97z M179.94,52.83c3.19-2.57,3.48-6.55,0.67-10.03s-6.78-4.06-9.97-1.48
		c-3.18,2.57-3.43,6.55-0.62,10.04S176.76,55.4,179.94,52.83z"/>
	<path class="st0" d="M200.86,88.25l-2.93-9.13l-17.16,5.5l-2.72-8.5l17.16-5.5l-2.92-9.1l6.5-2.08l8.57,26.73L200.86,88.25z"/>
	<path class="st0" d="M182.82,105.63c0.11-1.82,0.36-3.59,0.72-4.83l6.6,0.41c-0.15,0.76-0.27,1.6-0.32,2.36
		c-0.15,2.48,0.44,4.73,3.9,4.94l14.18,0.88l-0.55,8.91l-15.89-0.99C184.26,116.87,182.45,111.57,182.82,105.63z"/>
	<path class="st0" d="M203.29,136.1l-11.96-4.59c-3.46-1.33-6.34-0.29-7.78,3.46c-1.35,3.53,0.04,6.43,3.48,7.75l11.96,4.59
		l-3.21,8.37l-12.98-4.98c-6.73-2.58-9.15-9.17-5.69-18.2c3.46-9.02,9.75-12.31,16.51-9.71l12.88,4.94L203.29,136.1z"/>
	<path class="st0" d="M176.52,148.74l-0.17,7.66c-3.23,0.32-7.25,1.91-10.15,5.09c-2.5,2.74-3.17,4.5-2.18,5.4
		c0.7,0.64,1.38,0.41,2.98-0.98l5.65-4.89c4.82-4.13,8.6-4.85,12.17-1.59c3.75,3.42,2.6,9.2-3.35,15.71
		c-3.68,4.03-8.03,7.08-12.54,8.08l-0.55-7.19c2.74-0.3,6.24-2.26,9-5.29c2.01-2.2,2.63-3.76,1.78-4.54
		c-0.72-0.66-1.5-0.38-3.39,1.27l-4.79,4.31c-5.38,4.8-8.84,5.53-12.36,2.32c-4.26-3.89-2.89-10.23,3.41-17.13
		C166.49,152.1,172.35,149.01,176.52,148.74z"/>
	<path class="st0" d="M136.35,197.13l8.51-4.42l-8.31-16l7.92-4.11l8.31,16l8.48-4.4l3.14,6.06l-24.92,12.94L136.35,197.13z"/>
	<path class="st0" d="M99.35,188.32l11.65-0.19l1.85-4.75l9.62-0.16l-11.15,25.03l-11.62,0.19l-11.95-24.66l9.59-0.16L99.35,188.32z
		 M101.61,193.67l1.82,4.28c1.05,2.33,1.63,3.72,1.94,5.32h0.11c0.29-1.61,0.83-3.02,1.77-5.38l1.68-4.33L101.61,193.67z"/>
	<path class="st0" d="M65.22,201.47l-7.9-4.23l8.49-15.86l-13.82-7.4l3.24-6.05l21.72,11.63L65.22,201.47z"/>
	<path class="st0" d="M31.88,151.29l4.48-4.03l17.53,19.49l-18.47,16.62l-17.37-19.3l4.47-4.03l11.38,12.64l2.63-2.36l-10.98-12.2
		l4.11-3.7l10.98,12.2l2.78-2.5L31.88,151.29z"/>
	<path class="st0" d="M24.09,151.38c-7.39,2.71-15-1.88-18.39-11.12c-2.82-7.69-1.58-14.7,3.26-18.27l4.83,8.11
		c-2.48,1.69-3.11,4.42-1.85,7.87c1.57,4.27,4.92,5.99,8.76,4.58c3.88-1.42,5.27-4.84,3.7-9.14c-1.28-3.48-3.54-5.19-6.48-4.86
		l-1.25-9.31c6.08-0.1,11.26,4.38,14.1,12.13C34.24,140.81,31.65,148.61,24.09,151.38z"/>
	<path class="st0" d="M7.37,88.93l-0.16,9.59l18.02,0.29l-0.14,8.92l-18.02-0.29l-0.15,9.55l-6.82-0.11l0.45-28.06L7.37,88.93z"/>
	<path class="st0" d="M5.76,70.69l11.85,4.86c3.43,1.41,6.33,0.44,7.85-3.29c1.43-3.5,0.1-6.43-3.3-7.82l-11.85-4.86l3.4-8.29
		l12.85,5.27c6.67,2.74,8.94,9.38,5.28,18.31c-3.66,8.94-10.02,12.08-16.72,9.33L2.36,78.98L5.76,70.69z"/>
	<path class="st0" d="M42.45,43l-3.66,3.72l5.79,5.7l-6.29,6.39L20.58,41.37l12.2-12.4c6.01-6.11,10.7-4.99,13.57-2.16
		c2,1.96,3.36,5.12,1.73,8.97l10.76,2.14l-6.92,7.04L42.45,43z M34.97,42.96l4.42-4.49c2.01-2.05,1.68-3.6,0.56-4.71
		c-1.07-1.06-2.61-1.29-4.57,0.71l-4.44,4.52L34.97,42.96z"/>
	<path class="st0" d="M81.87,21.33l2.45,5.5L60.39,37.51L50.26,14.82L73.97,4.24l2.45,5.5l-15.53,6.93l1.44,3.23l14.99-6.69
		l2.25,5.05l-14.99,6.69l1.53,3.42L81.87,21.33z"/>
	<path class="st0" d="M100.74,17.45l-5.21,0.23l0.36,8.11l-8.95,0.4L85.83,1.37l17.37-0.78c8.57-0.39,11.23,3.63,11.41,7.65
		c0.13,2.8-1.02,6.04-4.84,7.75l6.42,8.89l-9.86,0.44L100.74,17.45z M95.29,12.33l6.29-0.28c2.87-0.13,3.68-1.5,3.61-3.07
		c-0.07-1.5-1.03-2.72-3.83-2.59l-6.33,0.28L95.29,12.33z"/>
</g>
</svg>
