<?xml version="1.0" encoding="utf-8"?>
<!-- Generator: Adobe Illustrator 24.1.0, SVG Export Plug-In . SVG Version: 6.00 Build 0)  -->
<svg version="1.1" id="Layer_1" xmlns="http://www.w3.org/2000/svg" xmlns:xlink="http://www.w3.org/1999/xlink" x="0px" y="0px"
	 viewBox="0 0 208 209" style="enable-background:new 0 0 208 209;" xml:space="preserve">
<style type="text/css">
	.st0{fill:#FF0737;}
</style>
<g>
	<path class="st0" d="M138.8,5.5l8.2,4.3l3.7,15c0.2,1.4,0.5,2.5,0.4,3.7l0.2,0.1l1.8-3.4l5-9.6l7.2,3.7l-11.5,22l-7.8-4L142,22
		c-0.2-0.9-0.5-2.8-0.4-3.8l-0.2-0.1l-1.8,3.4l-5.1,9.7l-7.2-3.8L138.8,5.5z"/>
	<path class="st0" d="M164.7,34c6.3-5.1,14.5-3.3,20.9,4.8c6.5,8,6.6,16.3,0.2,21.5c-6.3,5.1-14.5,3.3-20.9-4.7
		C158.5,47.4,158.4,39.1,164.7,34z M179.9,52.8c3.2-2.6,3.5-6.5,0.7-10s-6.8-4.1-10-1.5c-3.2,2.6-3.4,6.5-0.6,10
		S176.8,55.4,179.9,52.8z"/>
	<path class="st0" d="M200.9,88.2l-2.9-9.1l-17.2,5.5l-2.7-8.5l17.2-5.5l-2.9-9.1l6.5-2.1l8.6,26.7L200.9,88.2z"/>
	<path class="st0" d="M182.8,105.6c0.1-1.8,0.4-3.6,0.7-4.8l6.6,0.4c-0.1,0.8-0.3,1.6-0.3,2.4c-0.1,2.5,0.4,4.7,3.9,4.9l14.2,0.9
		l-0.6,8.9l-15.9-1C184.3,116.9,182.4,111.6,182.8,105.6z"/>
	<path class="st0" d="M203.3,136.1l-12-4.6c-3.5-1.3-6.3-0.3-7.8,3.5c-1.4,3.5,0,6.4,3.5,7.8l12,4.6l-3.2,8.4l-13-5
		c-6.7-2.6-9.1-9.2-5.7-18.2c3.5-9,9.8-12.3,16.5-9.7l12.9,4.9L203.3,136.1z"/>
	<path class="st0" d="M176.5,148.7l-0.2,7.7c-3.2,0.3-7.2,1.9-10.1,5.1c-2.5,2.7-3.2,4.5-2.2,5.4c0.7,0.6,1.4,0.4,3-1l5.6-4.9
		c4.8-4.1,8.6-4.9,12.2-1.6c3.8,3.4,2.6,9.2-3.4,15.7c-3.7,4-8,7.1-12.5,8.1l-0.6-7.2c2.7-0.3,6.2-2.3,9-5.3c2-2.2,2.6-3.8,1.8-4.5
		c-0.7-0.7-1.5-0.4-3.4,1.3l-4.8,4.3c-5.4,4.8-8.8,5.5-12.4,2.3c-4.3-3.9-2.9-10.2,3.4-17.1C166.5,152.1,172.4,149,176.5,148.7z"/>
	<path class="st0" d="M136.4,197.1l8.5-4.4l-8.3-16l7.9-4.1l8.3,16l8.5-4.4l3.1,6.1l-24.9,12.9L136.4,197.1z"/>
	<path class="st0" d="M99.3,188.3l11.7-0.2l1.8-4.8l9.6-0.2l-11.2,25l-11.6,0.2l-11.9-24.7l9.6-0.2L99.3,188.3z M101.6,193.7
		l1.8,4.3c1.1,2.3,1.6,3.7,1.9,5.3h0.1c0.3-1.6,0.8-3,1.8-5.4l1.7-4.3L101.6,193.7z"/>
	<path class="st0" d="M65.2,201.5l-7.9-4.2l8.5-15.9L52,174l3.2-6.1l21.7,11.6L65.2,201.5z"/>
	<path class="st0" d="M31.9,151.3l4.5-4l17.5,19.5l-18.5,16.6L18,164.1l4.5-4l11.4,12.6l2.6-2.4l-11-12.2l4.1-3.7l11,12.2l2.8-2.5
		L31.9,151.3z"/>
	<path class="st0" d="M24.1,151.4c-7.4,2.7-15-1.9-18.4-11.1C2.9,132.6,4.1,125.6,9,122l4.8,8.1c-2.5,1.7-3.1,4.4-1.9,7.9
		c1.6,4.3,4.9,6,8.8,4.6c3.9-1.4,5.3-4.8,3.7-9.1c-1.3-3.5-3.5-5.2-6.5-4.9l-1.2-9.3c6.1-0.1,11.3,4.4,14.1,12.1
		C34.2,140.8,31.6,148.6,24.1,151.4z"/>
	<path class="st0" d="M7.4,88.9l-0.2,9.6l18,0.3l-0.1,8.9l-18-0.3L6.9,117l-6.8-0.1l0.4-28.1L7.4,88.9z"/>
	<path class="st0" d="M5.8,70.7l11.9,4.9c3.4,1.4,6.3,0.4,7.9-3.3c1.4-3.5,0.1-6.4-3.3-7.8l-11.9-4.9l3.4-8.3l12.9,5.3
		c6.7,2.7,8.9,9.4,5.3,18.3c-3.7,8.9-10,12.1-16.7,9.3L2.4,79L5.8,70.7z"/>
	<path class="st0" d="M42.5,43l-3.7,3.7l5.8,5.7l-6.3,6.4L20.6,41.4L32.8,29c6-6.1,10.7-5,13.6-2.2c2,2,3.4,5.1,1.7,9l10.8,2.1
		l-6.9,7L42.5,43z M35,43l4.4-4.5c2-2,1.7-3.6,0.6-4.7c-1.1-1.1-2.6-1.3-4.6,0.7L30.9,39L35,43z"/>
	<path class="st0" d="M81.9,21.3l2.4,5.5L60.4,37.5L50.3,14.8L74,4.2l2.4,5.5l-15.5,6.9l1.4,3.2l15-6.7l2.2,5l-15,6.7l1.5,3.4
		L81.9,21.3z"/>
	<path class="st0" d="M100.7,17.5l-5.2,0.2l0.4,8.1l-8.9,0.4L85.8,1.4l17.4-0.8c8.6-0.4,11.2,3.6,11.4,7.6c0.1,2.8-1,6-4.8,7.8
		l6.4,8.9l-9.9,0.4L100.7,17.5z M95.3,12.3l6.3-0.3c2.9-0.1,3.7-1.5,3.6-3.1c-0.1-1.5-1-2.7-3.8-2.6L95,6.7L95.3,12.3z"/>
</g>
</svg>
