<?xml version="1.0" encoding="utf-8"?>
<!-- Generator: Adobe Illustrator 24.1.0, SVG Export Plug-In . SVG Version: 6.00 Build 0)  -->
<svg version="1.1" id="Layer_1" xmlns="http://www.w3.org/2000/svg" xmlns:xlink="http://www.w3.org/1999/xlink" x="0px" y="0px"
	 viewBox="0 0 210 211" style="enable-background:new 0 0 210 211;" xml:space="preserve">
<style type="text/css">
	.st0{fill:#FF0737;}
</style>
<g>
	<path class="st0" d="M135.8,5.7l5.5,2.7l-1.8,9.8c-0.1,0.6-0.2,1.2-0.5,1.8l0.1,0c0.3-0.5,0.8-1,1.2-1.4l7.2-7.1l5.8,2.9l-1.3,10
		c-0.1,0.6-0.1,1.3-0.4,1.9l0.1,0c0.3-0.5,0.7-1,1.1-1.5l6.7-7.4l5.5,2.7l-12.7,12.7l-6.1-3l1.3-10c0.1-0.5,0.1-1.1,0.4-1.6l-0.1,0
		c-0.3,0.5-0.7,0.9-1,1.3l-7.2,7.1l-6.1-3L135.8,5.7z"/>
	<path class="st0" d="M157.9,37.5l10.9-13l4.7,3.9l-10.9,13L157.9,37.5z"/>
	<path class="st0" d="M175.5,47.1l-2.3-2.7l-4.3,3.5l-3.9-4.7l13.1-10.9l7.6,9.1c3.8,4.5,2.7,7.6,0.6,9.4c-1.5,1.2-3.7,1.9-6.2,0.6
		l-2.2,7.2l-4.3-5.2L175.5,47.1z M176.1,42l2.8,3.3c1.3,1.5,2.3,1.4,3.2,0.7c0.8-0.7,1.1-1.7-0.2-3.2l-2.8-3.3L176.1,42z"/>
	<path class="st0" d="M190,74.2l-3.7,1.8l-7.9-16.1l15.3-7.4l7.8,16l-3.7,1.8l-5.1-10.5l-2.2,1.1l4.9,10.1l-3.4,1.7l-4.9-10.1
		l-2.3,1.1L190,74.2z"/>
	<path class="st0" d="M200.7,81.4l-2.5,0.6l2.5,10.9l-4,0.9l-2.5-10.9l-5.9,1.3l-1.4-6l16.6-3.7l3.9,17.3l-4.1,0.9L200.7,81.4z"/>
	<path class="st0" d="M196.4,106.9l0.1-3.6l-5.6-0.1l0.1-6.1l17,0.3l-0.2,11.9c-0.1,5.9-2.9,7.5-5.7,7.5c-1.9,0-4.1-0.9-5.1-3.6
		l-6.3,4l0.1-6.7L196.4,106.9z M200.1,103.4l-0.1,4.3c0,2,0.9,2.6,1.9,2.6c1,0,1.9-0.6,1.9-2.5l0.1-4.3L200.1,103.4z"/>
	<path class="st0" d="M189.6,133.4l2.2-7.7l-2.8-2.2l1.8-6.3l14.2,12.2l-2.2,7.6l-18.5,3l1.8-6.3L189.6,133.4z M193.6,133l3.1-0.4
		c1.7-0.2,2.8-0.3,3.9-0.2l0-0.1c-1-0.5-1.8-1.1-3.2-2.2l-2.5-1.9L193.6,133z"/>
	<path class="st0" d="M198.4,150.2l-4.9,7.6l-8.9-2.1c-0.8-0.2-1.5-0.3-2.1-0.6l0,0c0.5,0.4,0.9,1,1.5,1.7l5.6,7.1l-5,7.8l-14.3-9.2
		l3-4.7l7.8,5.1c0.9,0.6,1.9,1.4,2.8,2.2l0.1-0.1c-0.4-0.4-1.5-1.8-2.2-2.8l-6-8.3l3.1-4.8l9.9,2.2c1.4,0.3,2.7,0.7,3.4,0.9l0.1-0.1
		c-1.1-0.4-2.2-1.1-3.1-1.7l-7.8-5.1l2.9-4.5L198.4,150.2z"/>
	<path class="st0" d="M167.6,164.1l11.9,12.1l-4.4,4.3l-11.9-12.1L167.6,164.1z"/>
	<path class="st0" d="M170.9,184.9l-5.3,3.5l-10.2-2.7c-0.9-0.3-1.6-0.5-2.4-0.9l-0.1,0.1l1.5,2.2l4.1,6.1l-4.6,3.1l-9.5-14.1l5-3.3
		l10.4,2.5c0.6,0.2,1.9,0.6,2.4,1l0.1-0.1l-1.5-2.2l-4.2-6.2l4.6-3.1L170.9,184.9z"/>
	<path class="st0" d="M146,190.7c1.7,5-1.1,10.3-7.8,12.6c-5.1,1.8-9.7,1.1-11.8-1.9l5.9-3.2c0.9,1.1,2.4,1.7,4.6,0.9
		c3-1,4-3.4,3-6.3c-0.9-2.7-3.1-4-6.2-2.9c-2.9,1-4,2.8-3.7,4.1l0,0l5.3-1.8l1.1,3.4l-10.7,3.6l-3.2-9.3l4.4-1.5l1.1,2.6
		c0.3-1.7,1.7-4.2,5.9-5.6C139.9,183.5,144.4,185.9,146,190.7z"/>
	<path class="st0" d="M91.6,194.3l0.1-3.5c0.8-0.3,1.4-0.5,2.2-0.4c1.5,0,2.6,0.6,3.8,1.4l0.3,0.2c1.9-1.1,4.3-1.6,7.1-1.5
		c5.9,0.2,8.4,2.5,8.3,5.1c-0.1,2.1-1.3,3.5-4.4,4.5c1.7,1.3,2.6,2.3,2.5,4.1c-0.1,3.3-3.7,4.6-7.4,4.5c-4.1-0.1-6.9-1.8-6.8-4.7
		c0.1-2,2.1-3.7,4.1-4.2l0.4-0.1l-3.5-2.6c-0.8,1-1.4,2.2-1.8,3.7l-4-0.9c0.5-2.1,1.4-3.8,2.4-5.2c-0.7-0.4-1.2-0.5-1.8-0.6
		C92.6,194.1,92.3,194.2,91.6,194.3z M101.4,194.6l4.8,3.6c0.8-0.5,1.2-1.2,1.2-1.9c0-1.2-1.2-2.1-3.2-2.2
		C103.2,194,102.3,194.2,101.4,194.6z M106.2,204.2c0-0.7-0.4-1.7-1.9-2.6l-0.2-0.1l-0.3,0.1c-1.4,0.4-1.8,1.6-1.8,2.6
		c0,1.1,0.7,1.8,1.9,1.9C105.3,206,106.2,205.3,106.2,204.2z"/>
	<path class="st0" d="M59.4,191.6c1.4-3.5,5-4.7,9.2-3l5.5,2.2l1.8-4.6l5.7,2.3l-6.3,15.8l-11.1-4.4C59.9,198,58.1,195,59.4,191.6z
		 M65.5,193.8c-0.5,1.3,0.1,2.3,1.7,2.9l3.9,1.6l1.6-3.9l-3.9-1.6C67.2,192.2,66,192.5,65.5,193.8z"/>
	<path class="st0" d="M51.5,179.4l2.9,2.1l3.2-4.5l5,3.6l-9.9,13.8l-9.7-6.9c-4.8-3.4-4.5-6.7-2.9-8.9c1.1-1.6,3.1-2.8,5.9-2.1
		l0.3-7.5l5.5,3.9L51.5,179.4z M52.2,184.4l-3.5-2.5c-1.6-1.1-2.6-0.8-3.2,0.1c-0.6,0.8-0.6,1.9,1,3l3.5,2.5L52.2,184.4z"/>
	<path class="st0" d="M39.8,174.4c-4.3,3.6-9.8,2.4-14.4-3.1c-4.5-5.4-4.6-11.1-0.4-14.6s9.8-2.4,14.3,3
		C44,165.2,44.1,170.9,39.8,174.4z M29.2,161.7c-2.1,1.8-2.3,4.5-0.4,6.9s4.7,2.7,6.8,0.9c2.2-1.8,2.3-4.5,0.3-6.9
		S31.4,159.9,29.2,161.7z"/>
	<path class="st0" d="M12.6,139.8l2.9,5.9l11-5.4l2.7,5.5l-11.1,5.4l2.9,5.9l-4.2,2.1l-8.4-17.2L12.6,139.8z"/>
	<path class="st0" d="M15.4,136.9c-5.4,1.2-9.8-2.4-11.4-9.3c-1.5-6.9,1-12,6.4-13.2s9.8,2.4,11.4,9.3
		C23.3,130.6,20.8,135.7,15.4,136.9z M11.8,120.7c-2.7,0.6-4.1,2.9-3.5,5.9s2.9,4.5,5.6,4c2.7-0.6,4.1-3,3.4-5.9
		S14.5,120.1,11.8,120.7z"/>
	<path class="st0" d="M7.1,93.7l-0.1,6.6l12.3,0.2l-0.1,6.1l-12.3-0.2l-0.1,6.5L2,112.8l0.4-19.2L7.1,93.7z"/>
	<path class="st0" d="M15.9,84.5l-13.1,5L4.5,83l7-2.2c0.7-0.3,0.9-0.3,1.1-0.3l0-0.1c-0.2-0.1-0.4-0.3-0.8-0.9l-4.9-5.6l1.7-6.2
		l8.9,10.9l5.4,1.4L21.3,86L15.9,84.5z"/>
	<path class="st0" d="M25.1,49.2c3.3,1.8,4,5.5,1.9,9.5l-2.9,5.2l4.3,2.4l-3,5.4l-14.9-8.2L16.4,53C18.6,48.9,21.9,47.5,25.1,49.2z
		 M22.1,55c-1.2-0.7-2.3-0.2-3.1,1.3L17,60l3.7,2l2-3.7C23.5,56.8,23.4,55.7,22.1,55z"/>
	<path class="st0" d="M36.2,53.8L23,43.1l3.8-4.8L40,49L36.2,53.8z"/>
	<path class="st0" d="M30.6,33.5l4.8-4.1l10.4,1.5c0.9,0.2,1.7,0.3,2.5,0.7l0.1-0.1l-1.7-2L42,23.9l4.2-3.6l11,12.9l-4.5,3.9
		L42,35.8c-0.6-0.1-1.9-0.4-2.5-0.7l-0.1,0.1l1.7,2l4.8,5.7l-4.2,3.6L30.6,33.5z"/>
	<path class="st0" d="M54.7,25c-2.2-4.8-0.1-10.3,6.3-13.3c4.9-2.3,9.5-2.2,11.9,0.5L67.4,16c-1.1-1-2.6-1.4-4.7-0.4
		c-2.9,1.4-3.6,3.8-2.3,6.6c1.2,2.6,3.6,3.6,6.5,2.2c2.8-1.3,3.6-3.3,3.2-4.5l0,0l-5.1,2.4L63.6,19l10.2-4.8L78,23l-4.2,2l-1.4-2.5
		c-0.1,1.7-1.2,4.3-5.2,6.2C61.6,31.4,56.8,29.5,54.7,25z"/>
	<path class="st0" d="M108.3,15.2l0.3,3.5c-0.8,0.4-1.4,0.6-2.1,0.7c-1.5,0.1-2.7-0.3-4-1l-0.3-0.2c-1.8,1.3-4.1,2-6.8,2.2
		c-5.9,0.5-8.6-1.5-8.8-4.2c-0.2-2.1,0.9-3.6,3.9-4.9c-1.8-1.1-2.8-2-3-3.8c-0.3-3.3,3.2-5,6.8-5.3c4.1-0.3,7,1,7.2,3.9
		c0.2,2-1.7,3.9-3.6,4.7l-0.4,0.2l3.7,2.2c0.7-1.1,1.1-2.4,1.3-3.9l4.1,0.4c-0.3,2.1-0.9,3.9-1.8,5.4c0.7,0.3,1.3,0.4,1.9,0.4
		C107.4,15.6,107.7,15.5,108.3,15.2z M98.6,16.1l-5.1-3c-0.7,0.6-1,1.3-1,2.1c0.1,1.2,1.4,2,3.4,1.8C96.8,16.9,97.7,16.6,98.6,16.1z
		 M92.7,7.1c0.1,0.7,0.6,1.6,2.1,2.4L95,9.6l0.3-0.1c1.3-0.5,1.6-1.7,1.5-2.7c-0.1-1-0.9-1.7-2.2-1.6C93.4,5.2,92.6,6,92.7,7.1z"/>
</g>
</svg>
