<?xml version="1.0" encoding="utf-8"?>
<!-- Generator: Adobe Illustrator 24.0.1, SVG Export Plug-In . SVG Version: 6.00 Build 0)  -->
<svg version="1.1" id="Layer_1" xmlns="http://www.w3.org/2000/svg" xmlns:xlink="http://www.w3.org/1999/xlink" x="0px" y="0px"
	 viewBox="0 0 210 211" style="enable-background:new 0 0 210 211;" xml:space="preserve">
<style type="text/css">
	.st0{fill:#6F42C1;}
</style>
<g>
	<path class="st0" d="M135.79,5.74l5.51,2.72l-1.78,9.76c-0.12,0.63-0.24,1.24-0.5,1.78l0.11,0.05c0.31-0.51,0.81-0.99,1.25-1.41
		l7.18-7.1l5.79,2.86l-1.26,10.02c-0.06,0.61-0.13,1.29-0.35,1.85l0.11,0.05c0.26-0.54,0.68-1,1.1-1.48l6.67-7.35l5.51,2.72
		l-12.7,12.66l-6.15-3.04l1.29-10.03c0.06-0.5,0.15-1.07,0.39-1.6l-0.11-0.05c-0.3,0.49-0.69,0.91-1.03,1.28l-7.19,7.12l-6.15-3.04
		L135.79,5.74z"/>
	<path class="st0" d="M157.86,37.5l10.92-13l4.69,3.94l-10.92,13L157.86,37.5z"/>
	<path class="st0" d="M175.53,47.07l-2.28-2.74l-4.26,3.55l-3.92-4.7l13.05-10.87l7.61,9.13c3.75,4.5,2.67,7.61,0.56,9.37
		c-1.47,1.22-3.71,1.94-6.22,0.57l-2.18,7.17l-4.32-5.18L175.53,47.07z M176.06,41.99l2.76,3.31c1.26,1.51,2.34,1.38,3.16,0.7
		c0.79-0.66,1.05-1.69-0.17-3.16l-2.77-3.33L176.06,41.99z"/>
	<path class="st0" d="M189.99,74.18l-3.7,1.8l-7.85-16.1l15.26-7.44l7.78,15.95l-3.7,1.8l-5.09-10.45l-2.17,1.06l4.92,10.08
		l-3.4,1.66l-4.92-10.08l-2.3,1.12L189.99,74.18z"/>
	<path class="st0" d="M200.72,81.36l-2.47,0.56l2.47,10.94l-4.01,0.9l-2.47-10.94l-5.95,1.34l-1.35-5.97l16.56-3.73l3.9,17.3
		l-4.13,0.93L200.72,81.36z"/>
	<path class="st0" d="M196.41,106.93l0.06-3.56l-5.55-0.09l0.1-6.12L208,97.43l-0.19,11.89c-0.09,5.86-2.94,7.51-5.69,7.47
		c-1.91-0.03-4.07-0.95-5.09-3.62l-6.33,4.01l0.11-6.74L196.41,106.93z M200.13,103.42l-0.07,4.3c-0.03,1.96,0.87,2.57,1.94,2.59
		c1.03,0.02,1.9-0.59,1.93-2.5l0.07-4.33L200.13,103.42z"/>
	<path class="st0" d="M189.65,133.45l2.17-7.66l-2.75-2.15l1.79-6.33l14.18,12.22l-2.16,7.64l-18.48,2.96l1.79-6.3L189.65,133.45z
		 M193.6,133.03l3.15-0.35c1.73-0.23,2.76-0.34,3.87-0.22l0.02-0.07c-1-0.51-1.82-1.14-3.17-2.22l-2.5-1.95L193.6,133.03z"/>
	<path class="st0" d="M198.4,150.23l-4.92,7.61l-8.9-2.13c-0.84-0.2-1.54-0.34-2.12-0.63l-0.03,0.04c0.5,0.41,0.94,1.01,1.49,1.7
		l5.63,7.11l-5.04,7.81l-14.26-9.21l3.04-4.7l7.83,5.06c0.9,0.58,1.9,1.37,2.83,2.23l0.06-0.1c-0.42-0.44-1.49-1.79-2.21-2.79
		l-6.02-8.27l3.09-4.78l9.85,2.24c1.36,0.31,2.66,0.69,3.45,0.95l0.05-0.08c-1.06-0.43-2.18-1.12-3.14-1.74l-7.83-5.06l2.88-4.46
		L198.4,150.23z"/>
	<path class="st0" d="M167.61,164.11l11.95,12.06l-4.35,4.31l-11.95-12.06L167.61,164.11z"/>
	<path class="st0" d="M170.85,184.91l-5.26,3.54l-10.19-2.68c-0.89-0.29-1.65-0.53-2.36-0.94l-0.1,0.07l1.47,2.18l4.12,6.13
		l-4.58,3.08l-9.48-14.08l4.96-3.34l10.45,2.51c0.62,0.19,1.88,0.61,2.41,0.97l0.1-0.07l-1.46-2.16l-4.16-6.19l4.6-3.1
		L170.85,184.91z"/>
	<path class="st0" d="M146.04,190.69c1.7,5-1.08,10.27-7.8,12.55c-5.14,1.75-9.72,1.11-11.8-1.87l5.95-3.16
		c0.94,1.07,2.38,1.67,4.58,0.92c3.03-1.03,3.97-3.4,2.99-6.29c-0.92-2.69-3.14-3.96-6.17-2.93c-2.9,0.98-3.96,2.84-3.73,4.1
		l0.01,0.02l5.3-1.8l1.15,3.37l-10.73,3.65l-3.15-9.26l4.41-1.5l1.11,2.6c0.29-1.67,1.66-4.18,5.89-5.61
		C139.86,183.49,144.43,185.95,146.04,190.69z"/>
	<path class="st0" d="M91.57,194.34l0.1-3.51c0.82-0.33,1.45-0.46,2.17-0.44c1.48,0.04,2.64,0.56,3.83,1.43l0.28,0.2
		c1.9-1.07,4.26-1.55,7.05-1.46c5.93,0.18,8.37,2.47,8.29,5.15c-0.06,2.08-1.35,3.5-4.44,4.46c1.66,1.27,2.59,2.33,2.53,4.09
		c-0.1,3.3-3.68,4.58-7.36,4.47c-4.09-0.12-6.86-1.78-6.77-4.7c0.06-2.01,2.1-3.69,4.12-4.25l0.41-0.13l-3.46-2.59
		c-0.77,1.01-1.38,2.23-1.76,3.68l-4.04-0.86c0.54-2.07,1.36-3.79,2.38-5.17c-0.66-0.35-1.25-0.54-1.85-0.56
		C92.56,194.13,92.27,194.17,91.57,194.34z M101.4,194.59l4.77,3.59c0.8-0.5,1.16-1.16,1.18-1.95c0.04-1.24-1.2-2.14-3.16-2.2
		C103.23,193.99,102.29,194.18,101.4,194.59z M106.25,204.18c0.02-0.72-0.38-1.66-1.86-2.59l-0.16-0.12l-0.27,0.06
		c-1.4,0.39-1.79,1.55-1.82,2.55c-0.03,1.05,0.71,1.81,1.95,1.85C105.34,205.97,106.22,205.3,106.25,204.18z"/>
	<path class="st0" d="M59.44,191.58c1.4-3.53,4.98-4.71,9.18-3.04l5.49,2.18l1.83-4.6l5.69,2.26l-6.26,15.78l-11.07-4.39
		C59.9,198.01,58.09,194.98,59.44,191.58z M65.51,193.78c-0.51,1.29,0.07,2.29,1.67,2.93l3.93,1.56l1.56-3.93l-3.91-1.55
		C67.18,192.16,66.02,192.49,65.51,193.78z"/>
	<path class="st0" d="M51.48,179.37l2.9,2.08l3.23-4.51l4.98,3.57l-9.89,13.8l-9.66-6.92c-4.76-3.41-4.5-6.7-2.9-8.93
		c1.11-1.55,3.1-2.81,5.87-2.12l0.31-7.49l5.48,3.93L51.48,179.37z M52.25,184.41l-3.5-2.51c-1.59-1.14-2.61-0.75-3.24,0.12
		c-0.6,0.84-0.6,1.9,0.96,3.01l3.52,2.52L52.25,184.41z"/>
	<path class="st0" d="M39.83,174.43c-4.28,3.56-9.84,2.37-14.35-3.05c-4.5-5.4-4.65-11.09-0.37-14.65
		c4.28-3.56,9.84-2.37,14.34,3.03C43.96,165.18,44.12,170.87,39.83,174.43z M29.24,161.7c-2.15,1.79-2.31,4.51-0.36,6.86
		s4.67,2.7,6.83,0.91c2.15-1.79,2.28-4.51,0.32-6.86S31.39,159.91,29.24,161.7z"/>
	<path class="st0" d="M12.61,139.84l2.89,5.88l11.05-5.42l2.69,5.47l-11.05,5.42l2.87,5.86l-4.18,2.05L8.43,141.9L12.61,139.84z"/>
	<path class="st0" d="M15.35,136.88c-5.44,1.2-9.83-2.41-11.35-9.3c-1.51-6.87,0.96-11.99,6.4-13.19s9.83,2.41,11.35,9.28
		C23.26,130.56,20.79,135.68,15.35,136.88z M11.79,120.7c-2.73,0.6-4.13,2.94-3.47,5.93c0.66,2.99,2.91,4.55,5.64,3.95
		c2.73-0.6,4.1-2.96,3.44-5.95S14.52,120.1,11.79,120.7z"/>
	<path class="st0" d="M7.05,93.67l-0.13,6.55l12.32,0.25l-0.12,6.1l-12.32-0.25l-0.13,6.53L2,112.75l0.39-19.18L7.05,93.67z"/>
	<path class="st0" d="M15.86,84.53L2.74,89.56L4.49,83l7.01-2.24c0.72-0.28,0.95-0.32,1.15-0.34l0.01-0.05
		c-0.17-0.12-0.35-0.27-0.83-0.87l-4.9-5.64l1.65-6.17l8.87,10.91l5.41,1.44l-1.58,5.91L15.86,84.53z"/>
	<path class="st0" d="M25.09,49.23c3.33,1.84,4.05,5.53,1.86,9.49l-2.85,5.17l4.33,2.39l-2.95,5.36l-14.86-8.2l5.75-10.42
		C18.65,48.88,21.89,47.47,25.09,49.23z M22.14,54.98c-1.21-0.67-2.28-0.22-3.11,1.29l-2.04,3.7l3.7,2.04l2.03-3.68
		C23.54,56.84,23.35,55.65,22.14,54.98z"/>
	<path class="st0" d="M36.21,53.79L22.98,43.14l3.84-4.77l13.22,10.66L36.21,53.79z"/>
	<path class="st0" d="M30.64,33.5l4.83-4.1l10.43,1.52c0.92,0.19,1.7,0.34,2.46,0.67l0.09-0.08l-1.7-2l-4.79-5.63l4.21-3.58
		l11,12.93l-4.55,3.87l-10.66-1.32c-0.63-0.12-1.94-0.39-2.5-0.69l-0.09,0.08l1.69,1.98l4.83,5.68l-4.22,3.59L30.64,33.5z"/>
	<path class="st0" d="M54.66,24.97C52.41,20.2,54.58,14.65,61,11.62c4.91-2.32,9.54-2.2,11.93,0.53l-5.55,3.81
		c-1.06-0.96-2.56-1.39-4.65-0.4c-2.9,1.37-3.56,3.82-2.26,6.59c1.21,2.57,3.57,3.58,6.46,2.21c2.77-1.31,3.62-3.26,3.25-4.49
		l-0.01-0.02l-5.06,2.39l-1.52-3.22l10.25-4.83l4.17,8.85l-4.22,1.99l-1.4-2.46c-0.1,1.69-1.18,4.34-5.22,6.24
		C61.62,31.42,56.8,29.49,54.66,24.97z"/>
	<path class="st0" d="M108.35,15.23l0.29,3.5c-0.78,0.42-1.39,0.62-2.1,0.68c-1.48,0.12-2.68-0.26-3.97-1l-0.3-0.17
		c-1.77,1.27-4.06,2.01-6.85,2.24c-5.91,0.48-8.59-1.53-8.81-4.2c-0.17-2.07,0.95-3.63,3.92-4.92c-1.79-1.08-2.83-2.03-2.97-3.79
		c-0.27-3.29,3.15-4.96,6.82-5.26c4.08-0.33,7.02,1.01,7.25,3.92c0.16,2-1.67,3.9-3.63,4.69l-0.39,0.18l3.73,2.19
		c0.66-1.08,1.13-2.37,1.34-3.85l4.11,0.41c-0.31,2.11-0.93,3.91-1.79,5.4c0.69,0.28,1.3,0.4,1.9,0.35
		C107.4,15.55,107.68,15.48,108.35,15.23z M98.56,16.08l-5.14-3.04c-0.74,0.59-1.02,1.28-0.96,2.07c0.1,1.24,1.43,1.99,3.39,1.84
		C96.8,16.87,97.72,16.58,98.56,16.08z M92.67,7.08c0.06,0.71,0.56,1.61,2.14,2.37l0.18,0.11l0.26-0.09
		c1.35-0.54,1.61-1.74,1.53-2.74C96.68,5.68,95.86,5,94.62,5.1C93.38,5.2,92.58,5.96,92.67,7.08z"/>
</g>
</svg>
