<?xml version="1.0" encoding="utf-8"?>
<!-- Generator: Adobe Illustrator 24.0.1, SVG Export Plug-In . SVG Version: 6.00 Build 0)  -->
<svg version="1.1" id="Layer_1" xmlns="http://www.w3.org/2000/svg" xmlns:xlink="http://www.w3.org/1999/xlink" x="0px" y="0px"
	 viewBox="0 0 210 211" style="enable-background:new 0 0 210 211;" xml:space="preserve">
<style type="text/css">
	.st0{fill:#6F42C1;}
</style>
<g>
	<path class="st0" d="M145.06,27.98l-4.78-2.43L136.49,33l-8.22-4.17l11.57-22.79l15.96,8.1c7.87,3.99,8.22,8.94,6.35,12.63
		c-1.3,2.57-3.97,4.89-8.25,4.49l1.25,11.21l-9.05-4.6L145.06,27.98z M142.77,20.64l5.78,2.93c2.63,1.34,4.05,0.52,4.79-0.92
		c0.7-1.38,0.45-2.96-2.12-4.26l-5.81-2.95L142.77,20.64z"/>
	<path class="st0" d="M178.37,60.09l-4.66,4.08l-17.75-20.3l19.24-16.82l17.58,20.11l-4.66,4.08l-11.52-13.17l-2.74,2.39
		l11.11,12.71l-4.28,3.74l-11.11-12.71l-2.9,2.54L178.37,60.09z"/>
	<path class="st0" d="M178.02,61.99l6.88,3.85c-1.27,3.09-1.75,7.51-0.26,11.68c1.28,3.59,2.57,5.05,3.86,4.59
		c0.92-0.33,1.04-1.06,0.55-3.18l-1.72-7.49c-1.43-6.37-0.26-10.15,4.42-11.82c4.92-1.76,9.61,2.07,12.66,10.62
		c1.89,5.29,2.56,10.71,1.3,15.29l-6.79-2.96c1.05-2.63,0.95-6.76-0.47-10.73c-1.03-2.88-2.15-4.2-3.27-3.8
		c-0.95,0.34-1.07,1.18-0.48,3.69l1.61,6.42c1.77,7.21,0.76,10.7-3.85,12.35c-5.59,2-10.69-2.3-13.92-11.35
		C176.24,72.73,176.25,65.91,178.02,61.99z"/>
	<path class="st0" d="M200.3,124.63c-5.72-0.18-9.21-4.66-9-11.46l0.29-8.89l-7.45-0.24l0.3-9.21l25.55,0.82l-0.58,17.92
		C209.18,120.7,205.8,124.81,200.3,124.63z M200.32,114.9c2.09,0.07,3.21-1.26,3.29-3.86l0.21-6.37l-6.37-0.21l-0.2,6.33
		C197.17,113.36,198.24,114.84,200.32,114.9z"/>
	<path class="st0" d="M195.29,129.9c7.55,3.65,9.39,12.01,4.78,21.58c-4.6,9.53-12.3,13.29-19.85,9.65
		c-7.56-3.65-9.39-12.01-4.79-21.55C180.04,130.01,187.73,126.25,195.29,129.9z M184.44,152.37c3.79,1.83,7.62,0.36,9.63-3.79
		s0.79-8.1-3-9.93c-3.79-1.83-7.61-0.31-9.61,3.84S180.64,150.53,184.44,152.37z"/>
	<path class="st0" d="M184.05,175.85l-7.3,6.14l-15.69-2.38c-1.38-0.3-2.56-0.53-3.69-1.04l-0.14,0.12l2.55,3.03l7.16,8.52
		l-6.37,5.35l-16.45-19.57l6.89-5.79l16.04,2.08c0.96,0.18,2.91,0.61,3.77,1.07l0.14-0.12l-2.52-3l-7.23-8.6l6.39-5.37
		L184.05,175.85z"/>
	<path class="st0" d="M145.49,180.48l-4.15,6.7c-3.03-1.4-7.42-2.08-11.65-0.78c-3.65,1.12-5.15,2.34-4.75,3.65
		c0.29,0.93,1.01,1.08,3.15,0.69l7.56-1.39c6.42-1.15,10.15,0.18,11.61,4.93c1.54,4.99-2.49,9.51-11.16,12.18
		c-5.37,1.65-10.81,2.09-15.33,0.62l3.26-6.65c2.58,1.16,6.71,1.25,10.74,0c2.92-0.9,4.29-1.96,3.94-3.1
		c-0.3-0.96-1.14-1.12-3.66-0.64l-6.48,1.32c-7.27,1.45-10.72,0.29-12.16-4.39c-1.75-5.67,2.77-10.57,11.95-13.4
		C134.85,178.22,141.65,178.53,145.49,180.48z"/>
	<path class="st0" d="M111.79,184.51l0.68,25.55l-9.21,0.25l-0.68-25.55L111.79,184.51z"/>
	<path class="st0" d="M94.61,211.23l-9.86-2.7l-2.31-16.94c-0.15-1.09-0.14-1.94-0.08-2.86l-0.14-0.04
		c-0.41,0.82-0.84,1.56-1.52,2.42l-10.61,13.41l-9.86-2.7l18.55-21.43l10.77,2.94L94.61,211.23z"/>
	<path class="st0" d="M41.8,164.39l3.8-4.89l21.28,16.56l-15.7,20.17L30.1,179.83l3.8-4.89l13.81,10.75l2.23-2.87l-13.32-10.37
		l3.49-4.49l13.33,10.37l2.37-3.04L41.8,164.39z"/>
	<path class="st0" d="M12.01,155.75l-5.89-16.13c-3.28-9-1.07-15.94,6.34-18.64c7.34-2.68,14.55,1.32,17.74,10.08l5.81,15.93
		L12.01,155.75z M25.11,134.53c-1.57-4.29-5.09-5.96-9.15-4.48c-3.92,1.43-5.2,4.96-3.74,8.95l2.21,6.05l12.82-4.68L25.11,134.53z"
		/>
	<path class="st0" d="M20.58,87.79l6.19,0.28l-1.23,26.94L0,113.84l1.22-26.69l6.19,0.28l-0.8,17.48l3.63,0.17l0.77-16.87l5.68,0.26
		l-0.77,16.87l3.85,0.18L20.58,87.79z"/>
	<path class="st0" d="M22.15,86.65l-2.3-7.54c3.05-1.35,6.46-4.2,8.27-8.24c1.56-3.48,1.64-5.42,0.4-5.98
		c-0.89-0.4-1.48,0.05-2.59,1.91l-3.95,6.59c-3.38,5.59-6.84,7.5-11.37,5.47c-4.76-2.14-5.5-8.15-1.78-16.42
		c2.3-5.12,5.56-9.5,9.65-11.92l2.85,6.84c-2.58,1.17-5.37,4.22-7.09,8.06c-1.25,2.79-1.36,4.52-0.27,5.01
		c0.92,0.41,1.59-0.11,2.9-2.33l3.29-5.74c3.71-6.42,6.86-8.25,11.32-6.24c5.42,2.43,6.11,9.06,2.18,17.82
		C30.87,80.15,26.15,85.05,22.15,86.65z"/>
	<path class="st0" d="M41.39,58.65L21.75,42.28l5.9-7.08l19.63,16.37L41.39,58.65z"/>
	<path class="st0" d="M40.52,38.79c-4.38-6.64-2.33-15.37,6.59-21.25c6.82-4.5,13.74-5.31,17.9-1.76l-7.46,6.86
		c-1.78-1.2-4.11-1.52-7.02,0.41c-4.03,2.66-4.49,6.46-1.96,10.3c2.36,3.58,6.08,4.57,10.1,1.92c3.85-2.54,4.69-5.64,3.88-7.39
		l-0.02-0.03l-7.03,4.64L52.56,28l14.24-9.4L74.9,30.9l-5.86,3.87l-2.61-3.37c0.21,2.54-0.83,6.71-6.45,10.42
		C52.27,46.91,44.67,45.06,40.52,38.79z"/>
	<path class="st0" d="M72.99,4.93l9.42-1.53l12.26,10.08c1.03,0.96,1.93,1.77,2.64,2.78l0.18-0.03l-0.64-3.91L95.06,1.34L103.27,0
		l4.11,25.23l-8.88,1.45l-12.72-10c-0.73-0.65-2.19-2.02-2.69-2.85l-0.18,0.03l0.63,3.87l1.8,11.09l-8.24,1.34L72.99,4.93z"/>
</g>
</svg>
