<?xml version="1.0" encoding="utf-8"?>
<!-- Generator: Adobe Illustrator 24.1.0, SVG Export Plug-In . SVG Version: 6.00 Build 0)  -->
<svg version="1.1" id="Layer_1" xmlns="http://www.w3.org/2000/svg" xmlns:xlink="http://www.w3.org/1999/xlink" x="0px" y="0px"
	 viewBox="0 0 210 211" style="enable-background:new 0 0 210 211;" xml:space="preserve">
<style type="text/css">
	.st0{fill:#FF0737;}
</style>
<g>
	<path class="st0" d="M145.1,28l-4.8-2.4l-3.8,7.5l-8.2-4.2L139.8,6l16,8.1c7.9,4,8.2,8.9,6.4,12.6c-1.3,2.6-4,4.9-8.2,4.5l1.2,11.2
		l-9.1-4.6L145.1,28z M142.8,20.6l5.8,2.9c2.6,1.3,4.1,0.5,4.8-0.9c0.7-1.4,0.4-3-2.1-4.3l-5.8-2.9L142.8,20.6z"/>
	<path class="st0" d="M178.4,60.1l-4.7,4.1L156,43.9L175.2,27l17.6,20.1l-4.7,4.1l-11.5-13.2l-2.7,2.4L185,53.2l-4.3,3.7l-11.1-12.7
		l-2.9,2.5L178.4,60.1z"/>
	<path class="st0" d="M178,62l6.9,3.9c-1.3,3.1-1.8,7.5-0.3,11.7c1.3,3.6,2.6,5.1,3.9,4.6c0.9-0.3,1-1.1,0.6-3.2l-1.7-7.5
		c-1.4-6.4-0.3-10.2,4.4-11.8c4.9-1.8,9.6,2.1,12.7,10.6c1.9,5.3,2.6,10.7,1.3,15.3l-6.8-3c1.1-2.6,0.9-6.8-0.5-10.7
		c-1-2.9-2.1-4.2-3.3-3.8c-0.9,0.3-1.1,1.2-0.5,3.7l1.6,6.4c1.8,7.2,0.8,10.7-3.9,12.3c-5.6,2-10.7-2.3-13.9-11.3
		C176.2,72.7,176.2,65.9,178,62z"/>
	<path class="st0" d="M200.3,124.6c-5.7-0.2-9.2-4.7-9-11.5l0.3-8.9l-7.4-0.2l0.3-9.2l25.6,0.8l-0.6,17.9
		C209.2,120.7,205.8,124.8,200.3,124.6z M200.3,114.9c2.1,0.1,3.2-1.3,3.3-3.9l0.2-6.4l-6.4-0.2l-0.2,6.3
		C197.2,113.4,198.2,114.8,200.3,114.9z"/>
	<path class="st0" d="M195.3,129.9c7.6,3.6,9.4,12,4.8,21.6c-4.6,9.5-12.3,13.3-19.9,9.6c-7.6-3.6-9.4-12-4.8-21.6
		C180,130,187.7,126.2,195.3,129.9z M184.4,152.4c3.8,1.8,7.6,0.4,9.6-3.8s0.8-8.1-3-9.9s-7.6-0.3-9.6,3.8S180.6,150.5,184.4,152.4z
		"/>
	<path class="st0" d="M184.1,175.9l-7.3,6.1l-15.7-2.4c-1.4-0.3-2.6-0.5-3.7-1l-0.1,0.1l2.6,3l7.2,8.5l-6.4,5.4L144.1,176l6.9-5.8
		l16,2.1c1,0.2,2.9,0.6,3.8,1.1l0.1-0.1l-2.5-3l-7.2-8.6l6.4-5.4L184.1,175.9z"/>
	<path class="st0" d="M145.5,180.5l-4.1,6.7c-3-1.4-7.4-2.1-11.6-0.8c-3.7,1.1-5.2,2.3-4.8,3.6c0.3,0.9,1,1.1,3.1,0.7l7.6-1.4
		c6.4-1.1,10.1,0.2,11.6,4.9c1.5,5-2.5,9.5-11.2,12.2c-5.4,1.6-10.8,2.1-15.3,0.6l3.3-6.6c2.6,1.2,6.7,1.2,10.7,0
		c2.9-0.9,4.3-2,3.9-3.1c-0.3-1-1.1-1.1-3.7-0.6l-6.5,1.3c-7.3,1.4-10.7,0.3-12.2-4.4c-1.8-5.7,2.8-10.6,11.9-13.4
		C134.9,178.2,141.6,178.5,145.5,180.5z"/>
	<path class="st0" d="M111.8,184.5l0.7,25.6l-9.2,0.2l-0.7-25.6L111.8,184.5z"/>
	<path class="st0" d="M94.6,211.2l-9.9-2.7l-2.3-16.9c-0.2-1.1-0.1-1.9-0.1-2.9l-0.1,0c-0.4,0.8-0.8,1.6-1.5,2.4l-10.6,13.4
		l-9.9-2.7l18.5-21.4l10.8,2.9L94.6,211.2z"/>
	<path class="st0" d="M41.8,164.4l3.8-4.9l21.3,16.6l-15.7,20.2l-21.1-16.4l3.8-4.9l13.8,10.8l2.2-2.9l-13.3-10.4l3.5-4.5l13.3,10.4
		l2.4-3L41.8,164.4z"/>
	<path class="st0" d="M12,155.8l-5.9-16.1c-3.3-9-1.1-15.9,6.3-18.6c7.3-2.7,14.6,1.3,17.7,10.1L36,147L12,155.8z M25.1,134.5
		c-1.6-4.3-5.1-6-9.1-4.5c-3.9,1.4-5.2,5-3.7,8.9l2.2,6.1l12.8-4.7L25.1,134.5z"/>
	<path class="st0" d="M20.6,87.8l6.2,0.3L25.5,115L0,113.8l1.2-26.7l6.2,0.3l-0.8,17.5l3.6,0.2L11,88.2l5.7,0.3l-0.8,16.9l3.9,0.2
		L20.6,87.8z"/>
	<path class="st0" d="M22.1,86.7l-2.3-7.5c3-1.3,6.5-4.2,8.3-8.2c1.6-3.5,1.6-5.4,0.4-6c-0.9-0.4-1.5,0.1-2.6,1.9l-4,6.6
		c-3.4,5.6-6.8,7.5-11.4,5.5c-4.8-2.1-5.5-8.2-1.8-16.4c2.3-5.1,5.6-9.5,9.6-11.9l2.9,6.8c-2.6,1.2-5.4,4.2-7.1,8.1
		c-1.2,2.8-1.4,4.5-0.3,5c0.9,0.4,1.6-0.1,2.9-2.3l3.3-5.7c3.7-6.4,6.9-8.2,11.3-6.2c5.4,2.4,6.1,9.1,2.2,17.8
		C30.9,80.2,26.1,85.1,22.1,86.7z"/>
	<path class="st0" d="M41.4,58.7L21.8,42.3l5.9-7.1l19.6,16.4L41.4,58.7z"/>
	<path class="st0" d="M40.5,38.8c-4.4-6.6-2.3-15.4,6.6-21.2c6.8-4.5,13.7-5.3,17.9-1.8l-7.5,6.9c-1.8-1.2-4.1-1.5-7,0.4
		c-4,2.7-4.5,6.5-2,10.3c2.4,3.6,6.1,4.6,10.1,1.9c3.8-2.5,4.7-5.6,3.9-7.4l0,0l-7,4.6L52.6,28l14.2-9.4l8.1,12.3L69,34.8l-2.6-3.4
		c0.2,2.5-0.8,6.7-6.5,10.4C52.3,46.9,44.7,45.1,40.5,38.8z"/>
	<path class="st0" d="M73,4.9l9.4-1.5l12.3,10.1c1,1,1.9,1.8,2.6,2.8l0.2,0l-0.6-3.9l-1.8-11l8.2-1.3l4.1,25.2l-8.9,1.5l-12.7-10
		c-0.7-0.6-2.2-2-2.7-2.9l-0.2,0l0.6,3.9l1.8,11.1l-8.2,1.3L73,4.9z"/>
</g>
</svg>
