<svg id="Layer_1" data-name="Layer 1" xmlns="http://www.w3.org/2000/svg" viewBox="0 0 172.76 172.78"><defs><style>.cls-1{font-size:20px;fill:#ff0737;font-family:JetBrainsMono-ExtraBold, JetBrains Mono;font-weight:800;}</style></defs><text class="cls-1" transform="translate(86.15 16.94) rotate(4.71)">D</text><text class="cls-1" transform="translate(97.59 17.84) rotate(14.21)">E</text><text class="cls-1" transform="translate(108.71 20.61) rotate(23.74)">S</text><text class="cls-1" transform="translate(119.22 25.18) rotate(33.22)">I</text><text class="cls-1" transform="translate(128.85 31.44) rotate(42.67)">G</text><text class="cls-1" transform="matrix(0.61, 0.79, -0.79, 0.61, 137.32, 39.19)">N</text><text class="cls-1" transform="translate(144.38 48.19) rotate(61.53)">E</text><text class="cls-1" transform="translate(149.89 58.25) rotate(71.06)">R</text><text class="cls-1" transform="translate(153.66 69.09) rotate(80.59)"> </text><text class="cls-1" transform="translate(155.47 80.37) rotate(89.07)">•</text><text class="cls-1" transform="matrix(-0.16, 0.99, -0.99, -0.16, 155.62, 91.88)"> </text><text class="cls-1" transform="matrix(-0.32, 0.95, -0.95, -0.32, 153.79, 103.17)">S</text><text class="cls-1" transform="translate(150.11 114.04) rotate(118.45)">T</text><text class="cls-1" transform="matrix(-0.61, 0.79, -0.79, -0.61, 144.69, 124.15)">R</text><text class="cls-1" transform="translate(137.67 133.23) rotate(137.33)">A</text><text class="cls-1" transform="translate(129.27 141.03) rotate(146.75)">T</text><text class="cls-1" transform="translate(119.71 147.35) rotate(156.24)">E</text><text class="cls-1" transform="matrix(-0.97, 0.25, -0.25, -0.97, 109.24, 152.01)">G</text><text class="cls-1" transform="translate(98.14 154.87) rotate(175.26)">I</text><text class="cls-1" transform="translate(86.69 155.86) rotate(-175.38)">S</text><text class="cls-1" transform="translate(75.25 154.98) rotate(-165.88)">T</text><text class="cls-1" transform="matrix(-0.92, -0.4, 0.4, -0.92, 64.13, 152.23)"> </text><text class="cls-1" transform="matrix(-0.84, -0.55, 0.55, -0.84, 53.61, 147.67)">•</text><text class="cls-1" transform="matrix(-0.74, -0.68, 0.68, -0.74, 43.99, 141.44)"> </text><text class="cls-1" transform="translate(35.51 133.71) rotate(-128.01)">S</text><text class="cls-1" transform="matrix(-0.48, -0.88, 0.88, -0.48, 28.41, 124.7)">T</text><text class="cls-1" transform="matrix(-0.33, -0.95, 0.95, -0.33, 22.9, 114.67)">O</text><text class="cls-1" transform="translate(19.11 103.82) rotate(-99.5)">R</text><text class="cls-1" transform="translate(17.26 92.51) rotate(-90.93)">Y</text><text class="cls-1" transform="translate(17.11 81.06) rotate(-80.71)">T</text><text class="cls-1" transform="translate(18.91 69.73) rotate(-71.17)">E</text><text class="cls-1" transform="translate(22.57 58.88) rotate(-61.66)">L</text><text class="cls-1" transform="translate(27.97 48.77) rotate(-52.2)">L</text><text class="cls-1" transform="translate(34.97 39.67) rotate(-42.78)">E</text><text class="cls-1" transform="matrix(0.84, -0.55, 0.55, 0.84, 43.36, 31.85)">R</text><text class="cls-1" transform="matrix(0.91, -0.4, 0.4, 0.91, 52.93, 25.5)"> </text><text class="cls-1" transform="translate(63.39 20.83) rotate(-14.32)">•</text></svg>