<svg id="Layer_1" data-name="Layer 1" xmlns="http://www.w3.org/2000/svg" viewBox="0 0 181.38 181.39"><defs><style>.cls-1{font-size:25px;fill:#ff0737;font-family:JetBrainsMono-ExtraBold, JetBrains Mono;font-weight:800;}</style></defs><text class="cls-1" transform="translate(90.32 21.1) rotate(5.82)">S</text><text class="cls-1" transform="matrix(0.95, 0.3, -0.3, 0.95, 104.41, 22.44)">O</text><text class="cls-1" transform="matrix(0.87, 0.49, -0.49, 0.87, 117.95, 26.63)">C</text><text class="cls-1" transform="matrix(0.76, 0.66, -0.66, 0.76, 130.34, 33.49)">I</text><text class="cls-1" transform="matrix(0.61, 0.79, -0.79, 0.61, 141.1, 42.72)">A</text><text class="cls-1" transform="matrix(0.43, 0.9, -0.9, 0.43, 149.77, 53.9)">L</text><text class="cls-1" transform="translate(156 66.6) rotate(75.97)"> </text><text class="cls-1" transform="translate(159.52 80.34) rotate(87.66)">M</text><text class="cls-1" transform="matrix(-0.16, 0.99, -0.99, -0.16, 160.18, 94.48)">E</text><text class="cls-1" transform="translate(158 108.46) rotate(110.97)">D</text><text class="cls-1" transform="matrix(-0.54, 0.84, -0.84, -0.54, 153.01, 121.71)">I</text><text class="cls-1" transform="matrix(-0.7, 0.72, -0.72, -0.7, 145.43, 133.68)">A</text><text class="cls-1" transform="translate(135.6 143.87) rotate(145.94)"> </text><text class="cls-1" transform="translate(123.92 151.88) rotate(157.64)">C</text><text class="cls-1" transform="translate(110.86 157.34) rotate(169.4)">O</text><text class="cls-1" transform="translate(96.95 160.02) rotate(-179)">N</text><text class="cls-1" transform="matrix(-0.98, -0.22, 0.22, -0.98, 82.78, 159.87)">T</text><text class="cls-1" transform="translate(68.95 156.86) rotate(-155.6)">E</text><text class="cls-1" transform="translate(56.02 151.08) rotate(-143.92)">N</text><text class="cls-1" transform="translate(44.53 142.82) rotate(-132.31)">T</text><text class="cls-1" transform="translate(34.93 132.39) rotate(-120.66)"> </text><text class="cls-1" transform="translate(27.64 120.27) rotate(-108.94)">C</text><text class="cls-1" transform="matrix(-0.13, -0.99, 0.99, -0.13, 22.96, 106.9)">R</text><text class="cls-1" transform="translate(21.1 92.85) rotate(-85.65)">E</text><text class="cls-1" transform="translate(22.09 78.73) rotate(-73.94)">A</text><text class="cls-1" transform="translate(25.93 65.09) rotate(-62.18)">T</text><text class="cls-1" transform="translate(32.46 52.53) rotate(-50.53)">I</text><text class="cls-1" transform="matrix(0.78, -0.63, 0.63, 0.78, 41.4, 41.53)">O</text><text class="cls-1" transform="translate(52.36 32.57) rotate(-27.25)">N</text></svg>