<?xml version="1.0" standalone="no"?>
<!DOCTYPE svg PUBLIC "-//W3C//DTD SVG 1.1//EN" "http://www.w3.org/Graphics/SVG/1.1/DTD/svg11.dtd" >
<svg xmlns="http://www.w3.org/2000/svg" xmlns:xlink="http://www.w3.org/1999/xlink" version="1.1">
<metadata>
Created by FontForge 20170731 at Wed Oct  4 15:47:19 2017
 By Aleksey,,,
Copyright (c) 2017 by Lewis McGuffie. All rights reserved.
</metadata>
<defs>
<font id="TuskerGrotesk-3500Medium" horiz-adv-x="729" >
  <font-face 
    font-family="Tusker Grotesk 3500 Medium"
    font-weight="500"
    font-stretch="condensed"
    units-per-em="2048"
    panose-1="0 0 6 6 0 0 0 0 0 0"
    ascent="1638"
    descent="-410"
    x-height="1681"
    cap-height="1935"
    bbox="-33 -506.059 1284 2159"
    underline-thickness="0"
    underline-position="0"
    unicode-range="U+0020-25CA"
  />
<missing-glyph horiz-adv-x="1075" 
d="M883 1946v-2151h-682v2151h682zM717 1802h-357v-71h142v-80h-144v-70h359v70h-144v80h144v71zM573 1524h-215v-224h359v74h-144v150zM502 1452v-78h-72v78h72zM717 1243h-359v-72h144v-79h-144v-70h215v149h144v72zM717 1114h-72v-143h-287v-72h359v215zM717 852h-215
v-121h71v49h72v-100h-215v172h-72v-244h359v244zM717 479h-359v-243h359v243zM645 408v-101h-215v101h215zM717 186h-359v-71h152l-152 -101v-71h359v71h-219l149 101h70v71z" />
    <glyph glyph-name=".notdef" horiz-adv-x="1075" 
d="M883 1946v-2151h-682v2151h682zM717 1802h-357v-71h142v-80h-144v-70h359v70h-144v80h144v71zM573 1524h-215v-224h359v74h-144v150zM502 1452v-78h-72v78h72zM717 1243h-359v-72h144v-79h-144v-70h215v149h144v72zM717 1114h-72v-143h-287v-72h359v215zM717 852h-215
v-121h71v49h72v-100h-215v172h-72v-244h359v244zM717 479h-359v-243h359v243zM645 408v-101h-215v101h215zM717 186h-359v-71h152l-152 -101v-71h359v71h-219l149 101h70v71z" />
    <glyph glyph-name="glyph1" horiz-adv-x="0" 
 />
    <glyph glyph-name="glyph2" horiz-adv-x="681" 
 />
    <glyph glyph-name="space" unicode=" " horiz-adv-x="256" 
 />
    <glyph glyph-name="exclam" unicode="!" horiz-adv-x="366" 
d="M260 350h-154l-22 719v866h197v-866zM80 246h207v-246h-207v246z" />
    <glyph glyph-name="quotedbl" unicode="&#x22;" horiz-adv-x="681" 
d="M272 1935l-26 -608h-133l-27 608h186zM598 1935l-27 -608h-133l-26 608h186z" />
    <glyph glyph-name="numbersign" unicode="#" horiz-adv-x="993" 
d="M948 1038h-190l-27 -276h187l-23 -150h-178l-78 -817h-168l78 817h-170l-78 -817h-170l78 817h-201l23 150h192l27 276h-182l20 150h176l72 758h170l-72 -758h168l72 758h170l-72 -758h199zM563 762l25 276h-168l-27 -276h170z" />
    <glyph glyph-name="dollar" unicode="$" horiz-adv-x="720" 
d="M453 1092q106 -47 154 -108.5t48 -190.5v-527q0 -123 -68.5 -195.5t-189.5 -80.5v-195h-82v195q-113 14 -175 80.5t-62 175.5v520h196v-506q0 -45 24 -72.5t69 -27.5q43 0 66.5 26.5t23.5 69.5v500q0 66 -21.5 99.5t-68.5 55.5l-109 47q-98 43 -140 106.5t-42 184.5v441
q0 102 60.5 172.5t178.5 83.5v213h82v-213q119 -8 181.5 -74t62.5 -170v-445h-192v424q0 94 -91 95q-43 0 -65.5 -23.5t-22.5 -60.5v-416q0 -59 18.5 -89t65.5 -54z" />
    <glyph glyph-name="percent" unicode="%" horiz-adv-x="968" 
d="M266 1950q78 0 126 -47.5t48 -130.5v-185q0 -84 -48 -133t-126 -49t-127 49t-49 133v185q0 82 49 130t127 48zM682 1946h184l-583 -1946h-191zM303 1581v193q0 47 -37 47t-37 -45v-195q0 -47 37 -47t37 47zM708.5 530q77.5 0 126 -47t48.5 -131v-184q0 -86 -47.5 -134
t-126.5 -48q-78 0 -127.5 49t-49.5 133v184q0 82 49.5 130t127 48zM745 162v192q0 47 -36.5 47t-36.5 -45v-194q0 -47 36.5 -47t36.5 47z" />
    <glyph glyph-name="ampersand" unicode="&#x26;" horiz-adv-x="765" 
d="M748 905h-125v-672q0 -74 61 -73h64v-162h-99q-178 6 -211 133q-70 -143 -192 -143q-100 0 -152.5 65.5t-52.5 175.5v539q0 88 39 144.5t98 76.5q-119 53 -119 207v512q0 104 73 170t204 64q139 2 213 -62.5t74 -175.5v-549h-191v533q0 90 -88 90q-45 0 -69.5 -26
t-24.5 -66v-525q0 -96 94 -96h404v-160zM336 156q96 0 96 112v637h-74q-121 0 -120 -106v-533q0 -110 98 -110z" />
    <glyph glyph-name="quotesingle" unicode="'" horiz-adv-x="358" 
d="M272 1935l-26 -608h-133l-27 608h186z" />
    <glyph glyph-name="parenleft" unicode="(" horiz-adv-x="491" 
d="M449 1946q-172 -446 -172.5 -1075t172.5 -1076h-154q-94 158 -157.5 432.5t-63.5 643t63.5 643t157.5 432.5h154z" />
    <glyph glyph-name="parenright" unicode=")" horiz-adv-x="491" 
d="M197 1946q94 -158 157.5 -432.5t63.5 -643t-63.5 -643t-157.5 -432.5h-154q172 446 172 1075t-172 1076h154z" />
    <glyph glyph-name="asterisk" unicode="*" horiz-adv-x="538" 
d="M274 1946l21 -144l96 105l90 -125l-125 -66l125 -57l-88 -125l-98 102l-19 -139l-147 45l68 121l-140 -18v153l140 -29l-70 127z" />
    <glyph glyph-name="plus" unicode="+" horiz-adv-x="610" 
d="M557 1055v-144h-176v-186h-152v186h-178v144h178v180h152v-180h176z" />
    <glyph glyph-name="comma" unicode="," horiz-adv-x="376" 
d="M86 246h205v-316q0 -59 -37 -93t-102 -34h-68v84h41q55 0 55 58v55h-94v246z" />
    <glyph glyph-name="hyphen" unicode="-" horiz-adv-x="460" 
d="M444 1063v-166h-426v166h426z" />
    <glyph glyph-name="period" unicode="." horiz-adv-x="376" 
d="M291 246v-246h-205v246h205z" />
    <glyph glyph-name="slash" unicode="/" horiz-adv-x="641" 
d="M442 1946h187l-443 -2151h-186z" />
    <glyph glyph-name="zero" unicode="0" horiz-adv-x="692" 
d="M346 1946q129 0 199.5 -72t70.5 -205v-1401q0 -135 -70.5 -207.5t-199.5 -72.5t-199.5 72.5t-70.5 207.5v1401q0 133 71.5 205t198.5 72zM424 256v1421q0 102 -76 103q-78 0 -78 -101v-1423q0 -102 76 -102q78 0 78 102z" />
    <glyph glyph-name="one" unicode="1" horiz-adv-x="417" 
d="M213 1939h127v-1939h-195v1583h-135v115q109 16 150 76.5t53 164.5z" />
    <glyph glyph-name="two" unicode="2" horiz-adv-x="659" 
d="M627 154v-154h-574v76q0 195 56.5 385t124 312t124 253t56.5 221v436q0 96 -78 97q-84 0 -84 -101v-465h-186v474q0 119 73.5 188.5t208.5 69.5q117 0 188.5 -64.5t71.5 -173.5v-414q0 -123 -55 -276.5t-121.5 -278.5t-122 -286.5t-55.5 -298.5h373z" />
    <glyph glyph-name="three" unicode="3" horiz-adv-x="661" 
d="M467 1042q137 -18 137 -200v-590q0 -125 -71.5 -193.5t-200.5 -68.5q-127 0 -199 70.5t-72 207.5v576h187v-590q0 -47 22.5 -71.5t59.5 -24.5q80 0 80 106v578q0 61 -25 85.5t-80 24.5h-112l-25 156h133q59 0 79.5 29.5t20.5 93.5v457q0 92 -75 92q-37 0 -58.5 -25.5
t-21.5 -71.5v-475h-185v480q0 125 72 191.5t205 66.5q117 0 187.5 -63.5t70.5 -174.5v-465q0 -76 -28.5 -122t-100.5 -68v-11z" />
    <glyph glyph-name="four" unicode="4" horiz-adv-x="745" 
d="M539 1935q2 -385 -74 -731t-219 -569l6 -12h160v155q53 72 91 218.5t46 297.5h55v-671h117v-154h-117v-469h-192v469h-385v145q100 190 160.5 342t109.5 412t49 567h193z" />
    <glyph glyph-name="five" unicode="5" horiz-adv-x="671" 
d="M281 1028q47 94 159 94q80 0 125 -58t45 -169v-633q0 -133 -71.5 -202.5t-200.5 -69.5t-199.5 70.5t-70.5 207.5v557h186v-571q0 -96 82 -96q80 0 80 84v632q0 86 -76 87q-55 0 -76 -58l-184 45l35 987h489l-16 -153h-295l-25 -754h13z" />
    <glyph glyph-name="six" unicode="6" horiz-adv-x="690" 
d="M279 969q55 104 163 104q76 0 126 -59.5t50 -165.5v-586q0 -129 -72.5 -200.5t-199.5 -71.5q-129 0 -199.5 70.5t-70.5 207.5v1401q0 133 71.5 205t194.5 72q127 0 197.5 -67t70.5 -191v-527h-184v522q0 96 -80 97q-78 0 -78 -86v-725h11zM424 242v579q0 41 -21.5 66.5
t-58.5 25.5q-35 0 -55.5 -25.5t-20.5 -66.5v-567q0 -96 78 -96q35 0 56.5 23.5t21.5 60.5z" />
    <glyph glyph-name="seven" unicode="7" horiz-adv-x="600" 
d="M41 1935h539v-133q-266 -838 -273 -1802h-194q0 1028 274 1782h-346v153z" />
    <glyph glyph-name="eight" unicode="8" horiz-adv-x="667" 
d="M190 1047q-125 45 -124 204v457q0 109 70.5 173.5t197.5 64.5t197.5 -64.5t70.5 -173.5v-457q0 -162 -129 -207v-8q137 -35 137 -196v-596q0 -123 -73.5 -188.5t-202.5 -65.5t-203 65.5t-74 188.5v596q0 162 133 196v11zM412 1204v479q0 98 -78 98.5t-78 -98.5v-479
q0 -96 78 -96t78 96zM416 258v608q0 96 -82 97q-39 0 -60.5 -27t-21.5 -70v-608q0 -45 21.5 -72.5t60.5 -27.5q82 0 82 100z" />
    <glyph glyph-name="nine" unicode="9" horiz-adv-x="690" 
d="M412 971q-55 -104 -164 -105q-76 0 -126 59.5t-50 166.5v585q0 129 72.5 201t199.5 72t198.5 -72t71.5 -207v-1401q0 -133 -71.5 -204.5t-194.5 -71.5q-127 0 -197.5 66.5t-70.5 191.5v526h184v-522q0 -96 80 -96q78 0 78 86v725h-10zM266 1698v-580q0 -41 21.5 -66.5
t58.5 -25.5q35 0 55.5 25.5t20.5 66.5v568q0 96 -78 96q-35 0 -56.5 -23.5t-21.5 -60.5z" />
    <glyph glyph-name="colon" unicode=":" horiz-adv-x="376" 
d="M291 1108v-246h-205v246h205zM291 246v-246h-205v246h205z" />
    <glyph glyph-name="semicolon" unicode=";" horiz-adv-x="378" 
d="M86 1108h205v-246h-205v246zM86 0v246h205v-316q0 -59 -37 -93t-102 -34h-68v84h41q55 0 55 58v55h-94z" />
    <glyph glyph-name="question" unicode="?" horiz-adv-x="675" 
d="M229 348q6 184 37 327.5t65 215.5t61.5 158t27.5 168v487q0 41 -24.5 63.5t-61.5 22.5q-39 0 -65.5 -24.5t-26.5 -67.5v-520h-187v524q0 115 74 179.5t205 64.5t205.5 -59.5t74.5 -170.5v-518q0 -94 -29.5 -186t-67.5 -163t-71.5 -204t-39.5 -297h-177zM422 246v-246
h-207v246h207z" />
    <glyph glyph-name="at" unicode="@" horiz-adv-x="1040" 
d="M950 84h-153l-35 137q-84 -150 -189 -149q-170 4 -170 219v1095q0 217 170 218q102 0 187 -138v84q0 236 -213 236q-272 0 -273 -330v-1188q0 -322 271 -321h405v-162h-405q-213 0 -336 123t-123 366v1176q0 244 125 372t336 124q205 -2 304 -111t99 -295v-1456zM760 309
v1059q-29 70 -96.5 70t-67.5 -95v-1009q0 -94 68 -94q55 -1 96 69z" />
    <glyph glyph-name="A" unicode="A" horiz-adv-x="700" 
d="M485 0l-32 475l-205 2l-35 -477h-201l189 1935h303l186 -1935h-205zM260 647h180l-55 780l-27 306h-16l-27 -306z" />
    <glyph glyph-name="B" unicode="B" horiz-adv-x="720" 
d="M524 979q143 -31 144 -191v-538q0 -113 -70 -181.5t-190 -68.5h-322v1935h322q113 0 177 -62.5t64 -164.5v-524q0 -164 -125 -193v-12zM377 1763h-96v-698h94q39 0 61.5 23.5t22.5 66.5v524q0 84 -82 84zM369 901h-88v-729h88q102 0 102 104v527q0 98 -102 98z" />
    <glyph glyph-name="C" unicode="C" horiz-adv-x="716" 
d="M645 881v-617q0 -133 -72.5 -204.5t-207.5 -71.5q-139 0 -214 79.5t-75 227.5v1350q0 143 74.5 223t214.5 80q135 0 207.5 -71t72.5 -202v-545h-192v535q0 51 -22.5 81t-63.5 30t-67 -31t-26 -80v-1393q0 -51 26 -81.5t67 -30.5q86 0 86 112v609h192z" />
    <glyph glyph-name="D" unicode="D" 
d="M381 1935q127 0 199.5 -75.5t72.5 -219.5v-1345q0 -141 -72.5 -218t-199.5 -77h-295v1935h295zM457 279v1380q0 49 -24.5 76.5t-65.5 27.5h-86v-1591h86q41 0 65.5 29t24.5 78z" />
    <glyph glyph-name="E" unicode="E" horiz-adv-x="575" 
d="M283 172h247v-172h-444v1935h438v-172h-241v-676h225v-169h-225v-746z" />
    <glyph glyph-name="F" unicode="F" horiz-adv-x="538" 
d="M520 1763h-237v-678h221v-172h-221v-913h-197v1935h434v-172z" />
    <glyph glyph-name="G" unicode="G" horiz-adv-x="720" 
d="M461 100q-47 -115 -178 -112q-94 0 -150.5 69.5t-56.5 196.5v1391q0 145 75.5 224t217.5 79q137 0 208.5 -71t71.5 -198v-503h-194v489q0 111 -88 111q-41 0 -67 -31t-26 -80v-1395q0 -111 91 -110q41 0 65.5 29.5t24.5 74.5v596h-95v166h289v-1028h-149l-27 102h-12z
" />
    <glyph glyph-name="H" unicode="H" horiz-adv-x="733" 
d="M451 1935h196v-1935h-196v920h-168v-920h-197v1935h197v-845h168v845z" />
    <glyph glyph-name="I" unicode="I" horiz-adv-x="366" 
d="M86 1935h195v-1935h-195v1935z" />
    <glyph glyph-name="J" unicode="J" horiz-adv-x="700" 
d="M616 1935v-1685q0 -127 -72.5 -194.5t-205.5 -67.5q-135 0 -208 66.5t-73 191.5v641h201v-625q0 -102 80 -102q82 0 82 102v1501h-264v172h460z" />
    <glyph glyph-name="K" unicode="K" 
d="M723 0h-223l-203 911h-16v-911h-195v1935h197l-2 -856h16l197 856h206l-229 -931z" />
    <glyph glyph-name="L" unicode="L" horiz-adv-x="518" 
d="M281 170h237v-170h-432v1935h195v-1765z" />
    <glyph glyph-name="M" unicode="M" horiz-adv-x="1011" 
d="M514 565l35 486l96 884h281v-1935h-185l2 729l13 678h-17l-133 -1407h-207l-127 1407h-14l10 -678v-729h-182v1935h287l94 -884l33 -486h14z" />
    <glyph glyph-name="N" unicode="N" horiz-adv-x="745" 
d="M492 778l-15 619v538h182v-1935h-192l-203 1255h-10l14 -587v-668h-182v1935h205l188 -1157h13z" />
    <glyph glyph-name="O" unicode="O" 
d="M364.5 1948q139.5 0 214 -80t74.5 -223v-1350q0 -147 -74.5 -227t-216.5 -80q-139 0 -212.5 79.5t-73.5 227.5v1350q0 143 74.5 223t214 80zM455 272v1393q0 49 -23.5 80t-64.5 31q-43 0 -68 -31t-25 -80v-1393q0 -51 25 -81.5t66 -30.5q43 0 66.5 29.5t23.5 82.5z" />
    <glyph glyph-name="P" unicode="P" horiz-adv-x="710" 
d="M383 633h-102v-633h-195v1935h295q131 0 206 -73.5t75 -208.5v-727q0 -133 -78 -213t-201 -80zM362 805q47 0 74 31.5t27 89.5v723q0 55 -26.5 84.5t-74.5 29.5h-81v-958h81z" />
    <glyph glyph-name="Q" unicode="Q" 
d="M653 295q0 -168 -94 -246l86 -252l-201 -2l-57 193h-25q-139 0 -212.5 79.5t-73.5 227.5v1350q0 143 74.5 223t214 80t214 -80t74.5 -223v-1350zM274 272q0 -51 25 -81.5t66 -30.5q43 0 66.5 29.5t23.5 82.5v1393q0 49 -23.5 80t-64.5 31q-43 0 -68 -31t-25 -80v-1393z
" />
    <glyph glyph-name="R" unicode="R" 
d="M682 0h-195l-88 758h-118v-758h-195v1935h297q129 0 201.5 -72.5t72.5 -207.5v-602q0 -139 -84 -219zM283 926h69q106 0 107 123v598q0 117 -107 116h-69v-837z" />
    <glyph glyph-name="S" unicode="S" horiz-adv-x="720" 
d="M641 1257h-192v424q0 94 -91 95q-43 0 -65.5 -23.5t-22.5 -60.5v-416q0 -59 18.5 -89t65.5 -54l99 -41q106 -47 154 -108.5t48 -190.5v-527q0 -131 -76.5 -204.5t-211.5 -73.5q-137 0 -213 68.5t-76 189.5v520h196v-506q0 -45 24 -72.5t69 -27.5q43 0 66.5 26.5
t23.5 69.5v500q0 66 -21.5 99.5t-68.5 55.5l-109 47q-98 43 -140 106.5t-42 184.5v441q0 113 71.5 185.5t212.5 72.5q135 0 208 -66.5t73 -179.5v-445z" />
    <glyph glyph-name="T" unicode="T" horiz-adv-x="598" 
d="M596 1935v-172h-199v-1763h-196v1763h-199v172h594z" />
    <glyph glyph-name="U" unicode="U" 
d="M645 1935v-1687q0 -127 -74.5 -194.5t-208.5 -67.5q-131 0 -204.5 66.5t-73.5 193.5v1689h197v-1675q0 -100 84 -100t84 100v1675h196z" />
    <glyph glyph-name="V" unicode="V" horiz-adv-x="681" 
d="M465 1935h207l-180 -1935h-302l-178 1935h207l82 -1200l35 -401h16l33 401z" />
    <glyph glyph-name="W" unicode="W" horiz-adv-x="1091" 
d="M778 539h17l18 438l61 958h207l-168 -1935h-241l-90 987l-31 412h-14l-27 -412l-92 -987h-242l-164 1935h207l60 -958l20 -438h16l27 438l98 958h213l97 -958z" />
    <glyph glyph-name="X" unicode="X" horiz-adv-x="686" 
d="M332 827l-21 -118l-92 -709h-209l207 1026l-190 909h211l88 -614l18 -107h14l19 107l84 614h201l-193 -909l205 -1026h-211l-92 711l-23 116h-16z" />
    <glyph glyph-name="Y" unicode="Y" horiz-adv-x="716" 
d="M373 973l35 284l86 678h213l-250 -1392v-543h-197v547l-246 1388h217l91 -678l34 -284h17z" />
    <glyph glyph-name="Z" unicode="Z" horiz-adv-x="612" 
d="M254 172h330v-172h-551v156l315 1607h-311v172h526l-4 -159z" />
    <glyph glyph-name="bracketleft" unicode="[" horiz-adv-x="456" 
d="M279 1802v-1863h112v-144h-305v2151h305v-144h-112z" />
    <glyph glyph-name="backslash" unicode="\" horiz-adv-x="641" 
d="M455 -205l-443 2151h187l442 -2151h-186z" />
    <glyph glyph-name="bracketright" unicode="]" horiz-adv-x="454" 
d="M63 1946h306v-2151h-306v144h113v1863h-113v144z" />
    <glyph glyph-name="asciicircum" unicode="^" horiz-adv-x="446" 
d="M393 1733h-84l-86 94l-84 -94h-86l107 149h133z" />
    <glyph glyph-name="underscore" unicode="_" horiz-adv-x="573" 
d="M545 31v-154h-516v154h516z" />
    <glyph glyph-name="a" unicode="a" horiz-adv-x="677" 
d="M438 0l-16 129q-55 -141 -189 -141q-78 0 -129 54t-51 148l-2 465q0 219 187 293l178 68v434q0 80 -74 80q-78 0 -78 -80v-383h-186v395q0 104 65.5 168t198.5 64q266 0 266 -260v-1434h-170zM418 844l-92 -33q-80 -35 -80 -143l-2 -435q0 -80 67 -79q41 0 73 33.5
t32 91.5z" />
    <glyph glyph-name="b" unicode="b" horiz-adv-x="690" 
d="M449 1692q80 0 129 -55.5t49 -170.5v-1253q0 -115 -49.5 -170t-128.5 -55q-123 0 -181 139l-6 -127h-184v1946h192v-383q66 129 179 129zM356 1526q-86 0 -86 -123v-1127q0 -123 86 -122q76 0 76 106v1159q0 107 -76 107z" />
    <glyph glyph-name="c" unicode="c" horiz-adv-x="679" 
d="M616 801v-545q0 -129 -67.5 -198.5t-200.5 -69.5q-135 0 -210 75.5t-75 215.5v1114q0 145 75 223t210 78q131 0 199.5 -69t68.5 -195v-474h-186v453q0 119 -82 119q-88 0 -88 -119v-1135q0 -121 88 -120q82 0 82 120v527h186z" />
    <glyph glyph-name="d" unicode="d" horiz-adv-x="690" 
d="M242 1692q115 0 178 -129v383h192v-1946h-192v127q-57 -139 -178 -139q-80 0 -129.5 55t-49.5 170v1253q0 115 49.5 170.5t129.5 55.5zM334 1526q-76 0 -76 -107v-1159q0 -106 76 -106q86 0 86 122v1127q0 61 -24.5 92t-61.5 31z" />
    <glyph glyph-name="e" unicode="e" horiz-adv-x="681" 
d="M346 1694q135 0 203.5 -75t68.5 -212v-547h-358v-586q0 -121 88 -120q82 0 82 98v512h188v-524q0 -115 -72.5 -183.5t-195.5 -68.5q-139 0 -213 75.5t-74 215.5v1112q0 147 75 225t208 78zM346 1530q-86 0 -86 -113v-401h168v401q0 113 -82 113z" />
    <glyph glyph-name="f" unicode="f" horiz-adv-x="479" 
d="M362 1837q-45 0 -45 -41v-115h158v-161h-158v-1520h-192v1520h-119v161h119v121q0 143 166 144h184v-109h-113z" />
    <glyph glyph-name="g" unicode="g" horiz-adv-x="692" 
d="M442 1681h170l2 -1654q-2 -127 -70.5 -186.5t-174.5 -59.5h-258v162h208q102 0 103 98v164q-66 -150 -182 -150q-80 2 -128.5 56.5t-48.5 162.5v1201q0 109 49.5 163t127.5 54q113 0 184 -142zM334 1526q-76 0 -76 -103v-1093q0 -106 76 -107q84 0 84 123v1057
q0 123 -84 123z" />
    <glyph glyph-name="h" unicode="h" horiz-adv-x="692" 
d="M465 1694q156 -4 156 -195v-1499h-193v1446q0 76 -68 76q-37 0 -63.5 -30t-26.5 -79v-1413h-192v1946h192v-396q78 144 195 144z" />
    <glyph glyph-name="i" unicode="i" horiz-adv-x="348" 
d="M78 1946h192v-197h-192v197zM78 1681h192v-1681h-192v1681z" />
    <glyph glyph-name="j" unicode="j" horiz-adv-x="360" 
d="M92 1946h193v-197h-193v197zM92 1681h193v-1722q0 -86 -47.5 -132t-126.5 -46h-117v162h53q45 0 45 59v1679z" />
    <glyph glyph-name="k" unicode="k" horiz-adv-x="692" 
d="M272 803v-803h-194v1946h194v-975h15l172 708h207l-199 -780l213 -899h-215l-176 801z" />
    <glyph glyph-name="l" unicode="l" horiz-adv-x="348" 
d="M78 1946h192v-1946h-192v1946z" />
    <glyph glyph-name="m" unicode="m" horiz-adv-x="1036" 
d="M811 1694q156 -4 156 -195v-1499h-193l-2 1446q0 76 -63 76q-37 0 -64 -30t-27 -79v-1413h-192l-2 1446q0 76 -64 76q-37 0 -63.5 -30t-26.5 -79v-1413h-192v1681h170l20 -133q68 145 191 146q68 0 102.5 -33t48.5 -109q76 142 201 142z" />
    <glyph glyph-name="n" unicode="n" horiz-adv-x="692" 
d="M465 1694q156 -4 156 -195v-1499h-193v1446q0 76 -68 76q-37 0 -63.5 -30t-26.5 -79v-1413h-192v1681h170l18 -131q31 59 83.5 101.5t115.5 42.5z" />
    <glyph glyph-name="o" unicode="o" horiz-adv-x="688" 
d="M346 1694q131 0 205 -77t74 -218v-1112q0 -145 -74 -222t-207 -77t-207 76.5t-74 222.5v1112q0 141 75 218t208 77zM428 274v1135q0 119 -82 119q-88 0 -88 -119v-1135q0 -121 86 -120q84 -1 84 120z" />
    <glyph glyph-name="p" unicode="p" horiz-adv-x="690" 
d="M449 -12q-113 0 -179 131v-324h-192v1886h170l16 -127q61 139 185 138q80 0 129 -55.5t49 -168.5v-1255q0 -115 -49 -170t-129 -55zM356 156q76 0 76 106v1157q0 106 -76 107q-86 0 -86 -121v-1129q0 -120 86 -120z" />
    <glyph glyph-name="q" unicode="q" horiz-adv-x="690" 
d="M242 -12q-80 0 -129.5 55t-49.5 170v1255q0 113 49.5 168.5t129.5 55.5q123 2 184 -138l16 127h170v-1886h-192v324q-65 -131 -178 -131zM334 156q37 0 61.5 30.5t24.5 89.5v1129q0 121 -86 121q-76 0 -76 -107v-1157q0 -106 76 -106z" />
    <glyph glyph-name="r" unicode="r" horiz-adv-x="655" 
d="M461 1692q68 0 108.5 -50.5t40.5 -154.5v-715h-192v662q0 88 -62 88q-37 0 -61.5 -40t-24.5 -122v-1360h-192v1681h170l14 -133q37 74 82 109t117 35z" />
    <glyph glyph-name="s" unicode="s" horiz-adv-x="667" 
d="M438 954q94 -35 136 -94t42 -168v-448q0 -121 -74.5 -188.5t-201.5 -67.5q-281 0 -281 254v450h191v-456q0 -37 22.5 -59.5t61.5 -22.5q41 0 63.5 21.5t22.5 57.5v437q0 86 -82 116l-121 37q-88 33 -125 90.5t-37 159.5v373q0 111 74 179.5t203 68.5q131 0 200.5 -64.5
t69.5 -165.5v-385h-190v363q0 41 -21.5 64.5t-58.5 23.5q-39 0 -61.5 -21.5t-22.5 -56.5v-356q0 -41 16.5 -63.5t61.5 -41.5z" />
    <glyph glyph-name="t" unicode="t" horiz-adv-x="491" 
d="M473 1520h-154v-1260q0 -90 74 -90h82v-170h-121q-111 0 -169 56.5t-58 158.5v1305h-117v161q96 0 126 49.5t44 186.5h144v-236h149v-161z" />
    <glyph glyph-name="u" unicode="u" horiz-adv-x="692" 
d="M422 1681h192v-1681h-170l-18 129q-76 -141 -201 -141q-70 0 -112.5 49t-42.5 151v1493h192v-1445q0 -76 68 -76q37 0 64.5 29.5t27.5 78.5v1413z" />
    <glyph glyph-name="v" unicode="v" horiz-adv-x="665" 
d="M340 365l25 358l71 960h201l-188 -1683h-232l-186 1683h198l74 -956l23 -362h14z" />
    <glyph glyph-name="w" unicode="w" horiz-adv-x="997" 
d="M715 477l14 264l41 942h197l-138 -1683h-217l-77 745l-25 435h-18l-25 -435l-80 -745h-221l-135 1683h196l45 -942l15 -264h16l21 264l92 942h172l88 -942l20 -264h19z" />
    <glyph glyph-name="x" unicode="x" horiz-adv-x="657" 
d="M319 631l-14 -99l-86 -532h-201l195 903l-178 778h207l69 -444l17 -102h14l14 102l72 444h195l-181 -761l197 -920h-205l-86 532l-14 99h-15z" />
    <glyph glyph-name="y" unicode="y" horiz-adv-x="659" 
d="M342 424l31 407l55 850h201l-178 -1669q-45 -231 -263 -231h-159v162h104q72 0 88 53l-190 1685h198l66 -850l31 -407h16z" />
    <glyph glyph-name="z" unicode="z" horiz-adv-x="552" 
d="M236 162h288v-162h-493v150l276 1368h-268v163h477v-151z" />
    <glyph glyph-name="bar" unicode="|" horiz-adv-x="360" 
d="M86 1935h188v-2140h-188v2140z" />
    <glyph glyph-name="exclamdown" unicode="&#xa1;" horiz-adv-x="366" 
d="M80 1681h207v-245h-207v245zM106 1331h154l21 -719v-866h-197v866z" />
    <glyph glyph-name="cent" unicode="&#xa2;" horiz-adv-x="686" 
d="M616 956h-186v453q0 119 -82 119q-88 0 -88 -119v-1135q0 -121 88 -120q82 0 82 120v527h186v-545q0 -248 -231 -266v-195h-80v195q-115 12 -178.5 87t-63.5 202v1114q0 133 63.5 209.5t178.5 89.5v254h80v-254q115 -8 173 -77t58 -185v-474z" />
    <glyph glyph-name="sterling" unicode="&#xa3;" horiz-adv-x="718" 
d="M293 160h397v-160l-594 2v129q31 117 54.5 344t25.5 447h-117v77h111q-4 29 -21.5 100.5t-28.5 141.5t-11 139v301q0 125 76.5 196t211.5 71q133 0 205 -71t72 -189v-486h-189v467q0 109 -86 109q-39 0 -66.5 -27t-27.5 -78v-295q0 -74 28.5 -196.5t33.5 -182.5h258v-77
h-256q-2 -213 -23.5 -434.5t-52.5 -327.5z" />
    <glyph glyph-name="yen" unicode="&#xa5;" horiz-adv-x="716" 
d="M707 1935l-230 -1276h180v-77h-194l-6 -39v-56h200v-77h-200v-410h-197v410h-190v77h190v60l-6 35h-184v77h170l-226 1276h217l91 -678l34 -284h17l35 284l86 678h213z" />
    <glyph glyph-name="brokenbar" unicode="&#xa6;" horiz-adv-x="360" 
d="M86 1935h188v-874h-188v874zM86 670h188v-875h-188v875z" />
    <glyph glyph-name="section" unicode="&#xa7;" horiz-adv-x="675" 
d="M602 1370h-184v354q0 82 -86 82q-41 0 -64.5 -23.5t-23.5 -60.5v-342q0 -63 19.5 -93t70.5 -52l117 -41q84 -29 124.5 -81t40.5 -146v-375q0 -133 -102 -193q57 -37 79.5 -83t22.5 -119v-449q0 -125 -76.5 -190.5t-205.5 -63.5q-131 0 -204 62.5t-73 179.5v448h191v-442
q0 -41 22.5 -64.5t61.5 -23.5q90 0 90 86v420q0 98 -86 133l-88 29q-190 61 -191 270v362q0 137 103 183q-102 66 -103 217v362q0 109 73 174.5t202 65.5q123 0 196.5 -63.5t73.5 -168.5v-354zM244 967v-396q0 -88 88 -88q90 0 90 88v398q0 39 -24.5 60.5t-65.5 21.5
t-64.5 -23.5t-23.5 -60.5z" />
    <glyph glyph-name="copyright" unicode="&#xa9;" horiz-adv-x="1079" 
d="M539 1772q244 0 369.5 -135.5t125.5 -350.5v-815q0 -215 -126 -350t-369 -135q-242 0 -368 135t-126 350v815q0 215 126 350.5t368 135.5zM874 473v817q0 160 -84.5 251t-250.5 91q-164 0 -249 -91t-85 -251v-817q0 -160 85 -253t248.5 -93t249.5 93t86 253zM768 797
v-346q0 -106 -59.5 -166t-167.5 -60q-111 0 -174.5 63.5t-63.5 180.5v827q0 115 63.5 176.5t174.5 61.5q106 0 166.5 -57.5t60.5 -163.5v-340h-158v342q0 82 -69 82q-72 0 -72 -86v-858q0 -90 72 -91q70 0 69 87v348h158z" />
    <glyph glyph-name="guillemotleft" unicode="&#xab;" horiz-adv-x="907" 
d="M471 1681l-213 -839l213 -842h-195l-210 840v2l210 839h195zM840 1681l-213 -839l213 -842h-195l-211 840v2l211 839h195z" />
    <glyph glyph-name="registered" unicode="&#xae;" horiz-adv-x="788" 
d="M393 1956q168 0 261.5 -99.5t93.5 -254.5v-383q0 -156 -93.5 -255.5t-261.5 -99.5q-166 0 -260 99.5t-94 255.5v383q0 156 94 255t260 99zM635 1219v385q0 111 -61.5 181t-180.5 70t-179 -70.5t-60 -180.5v-385q0 -111 60 -182.5t179 -71.5q121 0 181.5 71.5t60.5 182.5z
M565 1087h-106q-18 20 -19 72v137q0 49 -47 50h-39v-259h-100v646h160q61 0 96 -35t35 -94v-105q0 -84 -76 -106q41 -8 56.5 -30t15.5 -65v-137q-1 -43 24 -74zM354 1642v-217h39q47 0 47 60v106q0 27 -11 40.5t-34 10.5h-41z" />
    <glyph glyph-name="degree" unicode="&#xb0;" horiz-adv-x="575" 
d="M289 1462q-106 0 -179 70t-73 174t72.5 172t179.5 68q104 0 176 -68t72 -172t-72 -174t-176 -70zM285 1610q41 0 69.5 27.5t26.5 68.5q0 43 -27.5 70.5t-68.5 27.5q-43 0 -71 -27.5t-28 -70.5q0 -41 28 -68.5t71 -27.5z" />
    <glyph glyph-name="periodcentered" unicode="&#xb7;" horiz-adv-x="376" 
d="M291 1108v-246h-205v246h205z" />
    <glyph glyph-name="guillemotright" unicode="&#xbb;" horiz-adv-x="907" 
d="M473 840l-211 -840h-194l213 842l-213 839h194l211 -839v-2zM842 840l-211 -840h-195l213 842l-213 839h195l211 -839v-2z" />
    <glyph glyph-name="questiondown" unicode="&#xbf;" horiz-adv-x="675" 
d="M254 1436v245h207v-245h-207zM446 1333q-6 -184 -36.5 -327.5t-64.5 -215t-61.5 -157.5t-27.5 -168v-488q0 -41 24.5 -63.5t61.5 -22.5q39 0 65.5 25t26.5 68v520h187v-524q0 -115 -74 -179.5t-205 -64.5t-206 59.5t-75 169.5v518q0 94 30 186.5t68 163t71.5 203.5
t39.5 297h176z" />
    <glyph glyph-name="Agrave" unicode="&#xc0;" horiz-adv-x="700" 
d="M414 1987h-78l-154 147h144zM485 0l-32 475l-205 2l-35 -477h-201l189 1935h303l186 -1935h-205zM260 647h180l-55 780l-27 306h-16l-27 -306z" />
    <glyph glyph-name="Aacute" unicode="&#xc1;" horiz-adv-x="700" 
d="M526 2136l-153 -147h-78l88 147h143zM485 0l-32 475l-205 2l-35 -477h-201l189 1935h303l186 -1935h-205zM260 647h180l-55 780l-27 306h-16l-27 -306z" />
    <glyph glyph-name="Acircumflex" unicode="&#xc2;" horiz-adv-x="700" 
d="M348 2081l-84 -94h-86l107 149h133l100 -149h-84zM485 0l-32 475l-205 2l-35 -477h-201l189 1935h303l186 -1935h-205zM260 647h180l-55 780l-27 306h-16l-27 -306z" />
    <glyph glyph-name="Atilde" unicode="&#xc3;" horiz-adv-x="700" 
d="M287 2060q-27 0 -27 -73h-78q0 152 103 151q20 0 40.5 -8t28.5 -14.5t27 -24.5l18 -18q16 -23 29 -23q29 0 27 74h77q0 -152 -102 -152q-20 0 -40.5 8.5t-28 13.5t-25.5 25l-21 19q-16 22 -28 22zM485 0l-32 475l-205 2l-35 -477h-201l189 1935h303l186 -1935h-205z
M260 647h180l-55 780l-27 306h-16l-27 -306z" />
    <glyph glyph-name="Adieresis" unicode="&#xc4;" horiz-adv-x="700" 
d="M307 2136v-143h-114v143h114zM504 2136v-143h-115v143h115zM485 0l-32 475l-205 2l-35 -477h-201l189 1935h303l186 -1935h-205zM260 647h180l-55 780l-27 306h-16l-27 -306z" />
    <glyph glyph-name="Aring" unicode="&#xc5;" horiz-adv-x="700" 
d="M352 1952q-41 0 -69.5 26.5t-28.5 65.5q0 41 27.5 66.5t70.5 25.5q41 0 67.5 -25.5t26.5 -66.5q0 -39 -26.5 -65.5t-67.5 -26.5zM350 2089q-45 0 -45 -45q0 -18 12.5 -31.5t32.5 -13.5q18 0 32.5 13t12.5 32q0 20 -13.5 32.5t-31.5 12.5zM485 0l-32 475l-205 2l-35 -477
h-201l189 1935h303l186 -1935h-205zM260 647h180l-55 780l-27 306h-16l-27 -306z" />
    <glyph glyph-name="AE" unicode="&#xc6;" horiz-adv-x="970" 
d="M678 172h248v-172h-445v461h-207l-59 -461h-203l359 1935h549v-172h-242v-676h225v-169h-225v-746zM326 625h155v1097h-12l-59 -327z" />
    <glyph glyph-name="Ccedilla" unicode="&#xc7;" horiz-adv-x="716" 
d="M645 1130h-192v535q0 51 -22.5 81t-63.5 30t-67 -31t-26 -80v-1393q0 -51 26 -81.5t67 -30.5q86 0 86 112v609h192v-617q0 -133 -72.5 -204.5t-207.5 -71.5h-5l-45 -76q41 37 72 37q59 0 59 -68v-18q0 -45 -29.5 -69.5t-76.5 -24.5q-49 0 -79 23.5t-30 66.5v12h91v-29
q0 -20 16 -20t16 22v27q0 29 -24 29h-90l55 94q-106 18 -162.5 96t-56.5 205v1350q0 143 74.5 223t214.5 80q135 0 207.5 -71t72.5 -202v-545z" />
    <glyph glyph-name="Egrave" unicode="&#xc8;" horiz-adv-x="575" 
d="M305 2134l88 -147h-78l-153 147h143zM283 172h247v-172h-444v1935h438v-172h-241v-676h225v-169h-225v-746z" />
    <glyph glyph-name="Eacute" unicode="&#xc9;" horiz-adv-x="575" 
d="M362 2136h144l-154 -147h-78zM283 172h247v-172h-444v1935h438v-172h-241v-676h225v-169h-225v-746z" />
    <glyph glyph-name="Ecircumflex" unicode="&#xca;" horiz-adv-x="575" 
d="M498 1987h-84l-86 94l-84 -94h-86l106 149h133zM283 172h247v-172h-444v1935h438v-172h-241v-676h225v-169h-225v-746z" />
    <glyph glyph-name="Edieresis" unicode="&#xcb;" horiz-adv-x="575" 
d="M172 2136h115v-143h-115v143zM369 2136h114v-143h-114v143zM283 172h247v-172h-444v1935h438v-172h-241v-676h225v-169h-225v-746z" />
    <glyph glyph-name="Igrave" unicode="&#xcc;" horiz-adv-x="366" 
d="M162 2134l88 -147h-78l-154 147h144zM86 1935h195v-1935h-195v1935z" />
    <glyph glyph-name="Iacute" unicode="&#xcd;" horiz-adv-x="366" 
d="M219 2136h143l-153 -147h-78zM86 1935h195v-1935h-195v1935z" />
    <glyph glyph-name="Icircumflex" unicode="&#xce;" horiz-adv-x="366" 
d="M354 1987h-84l-86 94l-84 -94h-86l107 149h133zM86 1935h195v-1935h-195v1935z" />
    <glyph glyph-name="Idieresis" unicode="&#xcf;" horiz-adv-x="366" 
d="M29 2136h114v-143h-114v143zM225 2136h115v-143h-115v143zM86 1935h195v-1935h-195v1935z" />
    <glyph glyph-name="Eth" unicode="&#xd0;" 
d="M381 1935q127 0 199.5 -75.5t72.5 -219.5v-1345q0 -141 -72.5 -218t-199.5 -77h-295v932h-80v74h80v929h295zM457 279v1380q0 49 -24.5 76.5t-65.5 27.5h-86v-757h104v-74h-104v-760h86q41 0 65.5 29t24.5 78z" />
    <glyph glyph-name="Ntilde" unicode="&#xd1;" horiz-adv-x="745" 
d="M322 2060q-27 0 -27 -73h-78q0 152 102 151q20 0 41 -8t29 -14.5t27 -24.5l18 -18q16 -23 29 -23q29 0 26 74h78q0 -152 -102 -152q-20 0 -41 8.5t-28 13.5t-27 25l-19 19q-16 22 -28 22zM477 1935h182v-1935h-192l-203 1255h-10l14 -587v-668h-182v1935h205l188 -1157
h13l-15 619v538z" />
    <glyph glyph-name="Ograve" unicode="&#xd2;" 
d="M342 2138l88 -147h-78l-153 147h143zM364.5 1948q139.5 0 214 -80t74.5 -223v-1350q0 -147 -74.5 -227t-216.5 -80q-139 0 -212.5 79.5t-73.5 227.5v1350q0 143 74.5 223t214 80zM455 272v1393q0 49 -23.5 80t-64.5 31q-43 0 -68 -31t-25 -80v-1393q0 -51 25 -81.5
t66 -30.5q43 0 66.5 29.5t23.5 82.5z" />
    <glyph glyph-name="Oacute" unicode="&#xd3;" 
d="M399 2140h144l-154 -147h-78zM364.5 1948q139.5 0 214 -80t74.5 -223v-1350q0 -147 -74.5 -227t-216.5 -80q-139 0 -212.5 79.5t-73.5 227.5v1350q0 143 74.5 223t214 80zM455 272v1393q0 49 -23.5 80t-64.5 31q-43 0 -68 -31t-25 -80v-1393q0 -51 25 -81.5t66 -30.5
q43 0 66.5 29.5t23.5 82.5z" />
    <glyph glyph-name="Ocircumflex" unicode="&#xd4;" 
d="M535 1991h-84l-86 94l-84 -94h-86l106 149h133zM364.5 1948q139.5 0 214 -80t74.5 -223v-1350q0 -147 -74.5 -227t-216.5 -80q-139 0 -212.5 79.5t-73.5 227.5v1350q0 143 74.5 223t214 80zM455 272v1393q0 49 -23.5 80t-64.5 31q-43 0 -68 -31t-25 -80v-1393
q0 -51 25 -81.5t66 -30.5q43 0 66.5 29.5t23.5 82.5z" />
    <glyph glyph-name="Otilde" unicode="&#xd5;" 
d="M303 2064q-27 0 -27 -73h-77q0 152 102 151q20 0 40.5 -8t29 -14t26.5 -25l19 -18q16 -23 28 -23q29 0 27 74h78q0 -152 -103 -152q-20 0 -40.5 8.5t-27.5 13.5t-26 25l-20 19q-17 22 -29 22zM364.5 1948q139.5 0 214 -80t74.5 -223v-1350q0 -147 -74.5 -227t-216.5 -80
q-139 0 -212.5 79.5t-73.5 227.5v1350q0 143 74.5 223t214 80zM455 272v1393q0 49 -23.5 80t-64.5 31q-43 0 -68 -31t-25 -80v-1393q0 -51 25 -81.5t66 -30.5q43 0 66.5 29.5t23.5 82.5z" />
    <glyph glyph-name="Odieresis" unicode="&#xd6;" 
d="M209 2140h115v-143h-115v143zM406 2140h114v-143h-114v143zM364.5 1948q139.5 0 214 -80t74.5 -223v-1350q0 -147 -74.5 -227t-216.5 -80q-139 0 -212.5 79.5t-73.5 227.5v1350q0 143 74.5 223t214 80zM455 272v1393q0 49 -23.5 80t-64.5 31q-43 0 -68 -31t-25 -80v-1393
q0 -51 25 -81.5t66 -30.5q43 0 66.5 29.5t23.5 82.5z" />
    <glyph glyph-name="Oslash" unicode="&#xd8;" 
d="M524 1911q129 -76 129 -266v-1350q0 -147 -74.5 -227t-216.5 -80q-39 0 -71 6l-27 -148h-90l33 177q-131 76 -131 272v1350q0 143 74.5 223t214.5 80q45 0 77 -9l33 177h88zM455 272v1393q0 49 -23.5 80t-64.5 31q-43 0 -68 -31t-25 -80v-1393q0 -51 25 -81.5t66 -30.5
q43 0 66.5 29.5t23.5 82.5z" />
    <glyph glyph-name="Ugrave" unicode="&#xd9;" 
d="M342 2134l88 -147h-78l-153 147h143zM645 1935v-1687q0 -127 -74.5 -194.5t-208.5 -67.5q-131 0 -204.5 66.5t-73.5 193.5v1689h197v-1675q0 -100 84 -100t84 100v1675h196z" />
    <glyph glyph-name="Uacute" unicode="&#xda;" 
d="M399 2136h144l-154 -147h-78zM645 1935v-1687q0 -127 -74.5 -194.5t-208.5 -67.5q-131 0 -204.5 66.5t-73.5 193.5v1689h197v-1675q0 -100 84 -100t84 100v1675h196z" />
    <glyph glyph-name="Ucircumflex" unicode="&#xdb;" 
d="M535 1987h-84l-86 94l-84 -94h-86l106 149h133zM645 1935v-1687q0 -127 -74.5 -194.5t-208.5 -67.5q-131 0 -204.5 66.5t-73.5 193.5v1689h197v-1675q0 -100 84 -100t84 100v1675h196z" />
    <glyph glyph-name="Udieresis" unicode="&#xdc;" 
d="M209 2136h115v-143h-115v143zM406 2136h114v-143h-114v143zM645 1935v-1687q0 -127 -74.5 -194.5t-208.5 -67.5q-131 0 -204.5 66.5t-73.5 193.5v1689h197v-1675q0 -100 84 -100t84 100v1675h196z" />
    <glyph glyph-name="Yacute" unicode="&#xdd;" horiz-adv-x="716" 
d="M389 2136h143l-153 -147h-78zM373 973l35 284l86 678h213l-250 -1392v-543h-197v547l-246 1388h217l91 -678l34 -284h17z" />
    <glyph glyph-name="Thorn" unicode="&#xde;" horiz-adv-x="710" 
d="M381 1681q131 0 206 -73.5t75 -208.5v-633q0 -139 -77 -216t-202 -77h-102v-473h-195v1935h195v-254h100zM463 766v629q0 55 -26.5 84.5t-74.5 29.5h-81v-864h81q47 0 74 32t27 89z" />
    <glyph glyph-name="germandbls" unicode="&#xdf;" horiz-adv-x="1335" 
d="M438 954q94 -35 136 -94t42 -168v-448q0 -121 -74.5 -188.5t-201.5 -67.5q-281 0 -281 254v450h191v-456q0 -37 22.5 -59.5t61.5 -22.5q41 0 63.5 21.5t22.5 57.5v437q0 86 -82 116l-121 37q-88 33 -125 90.5t-37 159.5v373q0 111 74 179.5t203 68.5q131 0 200.5 -64.5
t69.5 -165.5v-385h-190v363q0 41 -21.5 64.5t-58.5 23.5q-39 0 -61.5 -21.5t-22.5 -56.5v-356q0 -41 16.5 -63.5t61.5 -41.5zM1106 954q94 -35 136 -94t42 -168v-448q0 -121 -74.5 -188.5t-201.5 -67.5q-281 0 -281 254v450h191v-456q0 -37 22.5 -59.5t60.5 -22.5
q41 0 63.5 21.5t22.5 57.5v437q0 86 -81 116l-121 37q-88 33 -125 90.5t-37 159.5v373q0 111 73.5 179.5t202.5 68.5q131 0 201 -64.5t70 -165.5v-385h-191v363q0 41 -21.5 64.5t-58.5 23.5q-39 0 -61.5 -21.5t-22.5 -56.5v-356q0 -41 16.5 -63.5t61.5 -41.5z" />
    <glyph glyph-name="agrave" unicode="&#xe0;" horiz-adv-x="677" 
d="M328 1880l88 -147h-78l-154 147h144zM438 0l-16 129q-55 -141 -189 -141q-78 0 -129 54t-51 148l-2 465q0 219 187 293l178 68v434q0 80 -74 80q-78 0 -78 -80v-383h-186v395q0 104 65.5 168t198.5 64q266 0 266 -260v-1434h-170zM418 844l-92 -33q-80 -35 -80 -143
l-2 -435q0 -80 67 -79q41 0 73 33.5t32 91.5z" />
    <glyph glyph-name="aacute" unicode="&#xe1;" horiz-adv-x="677" 
d="M385 1882h143l-153 -147h-78zM438 0l-16 129q-55 -141 -189 -141q-78 0 -129 54t-51 148l-2 465q0 219 187 293l178 68v434q0 80 -74 80q-78 0 -78 -80v-383h-186v395q0 104 65.5 168t198.5 64q266 0 266 -260v-1434h-170zM418 844l-92 -33q-80 -35 -80 -143l-2 -435
q0 -80 67 -79q41 0 73 33.5t32 91.5z" />
    <glyph glyph-name="acircumflex" unicode="&#xe2;" horiz-adv-x="677" 
d="M520 1733h-84l-86 94l-84 -94h-86l107 149h133zM438 0l-16 129q-55 -141 -189 -141q-78 0 -129 54t-51 148l-2 465q0 219 187 293l178 68v434q0 80 -74 80q-78 0 -78 -80v-383h-186v395q0 104 65.5 168t198.5 64q266 0 266 -260v-1434h-170zM418 844l-92 -33
q-80 -35 -80 -143l-2 -435q0 -80 67 -79q41 0 73 33.5t32 91.5z" />
    <glyph glyph-name="atilde" unicode="&#xe3;" horiz-adv-x="677" 
d="M289 1806q-27 0 -27 -73h-78q0 152 103 151q20 0 40.5 -8t29 -14.5t26.5 -24.5l18 -18q16 -23 29 -23q29 0 27 74h78q0 -152 -103 -152q-20 0 -40.5 8.5t-28 13.5t-27.5 25l-19 19q-16 22 -28 22zM342 1694q266 0 266 -260v-1434h-170l-16 129q-55 -141 -189 -141
q-78 0 -129 54t-51 148l-2 465q0 219 187 293l178 68v434q0 80 -74 80q-78 0 -78 -80v-383h-186v395q0 104 65.5 168t198.5 64zM416 279l2 565l-92 -33q-80 -35 -80 -143l-2 -435q0 -80 67 -79q41 0 73 34t32 91z" />
    <glyph glyph-name="adieresis" unicode="&#xe4;" horiz-adv-x="677" 
d="M195 1882h114v-143h-114v143zM391 1882h115v-143h-115v143zM438 0l-16 129q-55 -141 -189 -141q-78 0 -129 54t-51 148l-2 465q0 219 187 293l178 68v434q0 80 -74 80q-78 0 -78 -80v-383h-186v395q0 104 65.5 168t198.5 64q266 0 266 -260v-1434h-170zM418 844l-92 -33
q-80 -35 -80 -143l-2 -435q0 -80 67 -79q41 0 73 33.5t32 91.5z" />
    <glyph glyph-name="aring" unicode="&#xe5;" horiz-adv-x="677" 
d="M354 1698q-41 0 -69.5 26.5t-28.5 65.5q0 41 27.5 66.5t70.5 25.5q41 0 68 -25.5t27 -66.5q0 -39 -27 -65.5t-68 -26.5zM352 1745q18 0 32.5 13.5t12.5 31.5q0 20 -13 32.5t-32 12.5q-45 0 -45 -45q0 -18 12.5 -31.5t32.5 -13.5zM438 0l-16 129q-55 -141 -189 -141
q-78 0 -129 54t-51 148l-2 465q0 219 187 293l178 68v434q0 80 -74 80q-78 0 -78 -80v-383h-186v395q0 104 65.5 168t198.5 64q266 0 266 -260v-1434h-170zM418 844l-92 -33q-80 -35 -80 -143l-2 -435q0 -80 67 -79q41 0 73 33.5t32 91.5z" />
    <glyph glyph-name="ae" unicode="&#xe6;" horiz-adv-x="1028" 
d="M965 860h-359v-586q0 -121 88 -120q82 0 82 98v512h189v-524q0 -115 -73 -183.5t-196 -68.5q-201 0 -264 153q-76 -154 -203 -153q-78 0 -127 54t-49 148l-2 465q0 199 185 279l167 74v442q0 80 -71.5 80t-71.5 -80v-383h-184v395q0 102 67.5 167t188.5 65q109 0 184 -49
q70 49 176 49q135 0 204 -75t69 -212v-547zM606 1417v-401h168v401q0 113 -82 113q-86 0 -86 -113zM403 281l5 569l-80 -35q-82 -41 -82 -143l-2 -447q0 -72 67 -71q39 0 65.5 32t26.5 95z" />
    <glyph glyph-name="ccedilla" unicode="&#xe7;" horiz-adv-x="679" 
d="M616 956h-186v453q0 119 -82 119q-88 0 -88 -119v-1135q0 -121 88 -120q82 0 82 120v527h186v-545q0 -127 -66.5 -196.5t-197.5 -71.5l-45 -76q41 37 72 37q59 0 59 -68v-18q0 -45 -29.5 -69.5t-76.5 -24.5q-49 0 -79 23.5t-30 66.5v12h90v-29q0 -20 16.5 -20t16.5 22v27
q0 29 -24 29h-91l56 92q-109 16 -166.5 90t-57.5 197v1114q0 145 75 223t210 78q131 0 199.5 -69t68.5 -195v-474z" />
    <glyph glyph-name="egrave" unicode="&#xe8;" horiz-adv-x="681" 
d="M319 1880l89 -147h-78l-154 147h143zM346 1694q135 0 203.5 -75t68.5 -212v-547h-358v-586q0 -121 88 -120q82 0 82 98v512h188v-524q0 -115 -72.5 -183.5t-195.5 -68.5q-139 0 -213 75.5t-74 215.5v1112q0 147 75 225t208 78zM346 1530q-86 0 -86 -113v-401h168v401
q0 113 -82 113z" />
    <glyph glyph-name="eacute" unicode="&#xe9;" horiz-adv-x="681" 
d="M377 1882h143l-153 -147h-78zM346 1694q135 0 203.5 -75t68.5 -212v-547h-358v-586q0 -121 88 -120q82 0 82 98v512h188v-524q0 -115 -72.5 -183.5t-195.5 -68.5q-139 0 -213 75.5t-74 215.5v1112q0 147 75 225t208 78zM346 1530q-86 0 -86 -113v-401h168v401
q0 113 -82 113z" />
    <glyph glyph-name="ecircumflex" unicode="&#xea;" horiz-adv-x="681" 
d="M512 1733h-84l-86 94l-84 -94h-86l107 149h133zM346 1694q135 0 203.5 -75t68.5 -212v-547h-358v-586q0 -121 88 -120q82 0 82 98v512h188v-524q0 -115 -72.5 -183.5t-195.5 -68.5q-139 0 -213 75.5t-74 215.5v1112q0 147 75 225t208 78zM346 1530q-86 0 -86 -113v-401
h168v401q0 113 -82 113z" />
    <glyph glyph-name="edieresis" unicode="&#xeb;" horiz-adv-x="681" 
d="M186 1882h115v-143h-115v143zM383 1882h115v-143h-115v143zM346 1694q135 0 203.5 -75t68.5 -212v-547h-358v-586q0 -121 88 -120q82 0 82 98v512h188v-524q0 -115 -72.5 -183.5t-195.5 -68.5q-139 0 -213 75.5t-74 215.5v1112q0 147 75 225t208 78zM346 1530
q-86 0 -86 -113v-401h168v401q0 113 -82 113z" />
    <glyph glyph-name="igrave" unicode="&#xec;" horiz-adv-x="348" 
d="M152 1880l88 -147h-78l-154 147h144zM78 1681h192v-1681h-192v1681z" />
    <glyph glyph-name="iacute" unicode="&#xed;" horiz-adv-x="348" 
d="M209 1882h143l-153 -147h-78zM78 1681h192v-1681h-192v1681z" />
    <glyph glyph-name="icircumflex" unicode="&#xee;" horiz-adv-x="348" 
d="M344 1733h-84l-86 94l-84 -94h-86l107 149h133zM78 1681h192v-1681h-192v1681z" />
    <glyph glyph-name="idieresis" unicode="&#xef;" horiz-adv-x="348" 
d="M18 1882h115v-143h-115v143zM215 1882h115v-143h-115v143zM78 1681h192v-1681h-192v1681z" />
    <glyph glyph-name="eth" unicode="&#xf0;" horiz-adv-x="681" 
d="M547 1815q72 -125 71 -338v-1207q0 -133 -75.5 -206.5t-202.5 -73.5q-274 0 -274 272v1196q0 117 48 175.5t124 58.5q117 0 188 -129q0 100 -57 198l-90 -26l-27 75l70 21q-53 68 -127 115h231q37 -27 70 -62l67 21l27 -78zM426 256v1167q0 49 -25.5 79t-60.5 30
q-37 0 -58.5 -24.5t-21.5 -69.5v-1194q0 -96 80 -97q35 0 60.5 30t25.5 79z" />
    <glyph glyph-name="ntilde" unicode="&#xf1;" horiz-adv-x="692" 
d="M283 1806q-27 0 -27 -73h-78q0 152 103 151q20 0 40.5 -8t28.5 -14.5t27 -24.5l18 -18q16 -23 29 -23q29 0 27 74h77q0 -152 -102 -152q-20 0 -40.5 8.5t-28 13.5t-25.5 25l-21 19q-16 22 -28 22zM465 1694q156 -4 156 -195v-1499h-193v1446q0 76 -68 76q-37 0 -63.5 -30
t-26.5 -79v-1413h-192v1681h170l18 -131q31 59 83.5 101.5t115.5 42.5z" />
    <glyph glyph-name="ograve" unicode="&#xf2;" horiz-adv-x="688" 
d="M322 1880l88 -147h-78l-154 147h144zM346 1694q131 0 205 -77t74 -218v-1112q0 -145 -74 -222t-207 -77t-207 76.5t-74 222.5v1112q0 141 75 218t208 77zM428 274v1135q0 119 -82 119q-88 0 -88 -119v-1135q0 -121 86 -120q84 -1 84 120z" />
    <glyph glyph-name="oacute" unicode="&#xf3;" horiz-adv-x="688" 
d="M379 1882h143l-153 -147h-78zM346 1694q131 0 205 -77t74 -218v-1112q0 -145 -74 -222t-207 -77t-207 76.5t-74 222.5v1112q0 141 75 218t208 77zM428 274v1135q0 119 -82 119q-88 0 -88 -119v-1135q0 -121 86 -120q84 -1 84 120z" />
    <glyph glyph-name="ocircumflex" unicode="&#xf4;" horiz-adv-x="688" 
d="M514 1733h-84l-86 94l-84 -94h-86l107 149h133zM346 1694q131 0 205 -77t74 -218v-1112q0 -145 -74 -222t-207 -77t-207 76.5t-74 222.5v1112q0 141 75 218t208 77zM428 274v1135q0 119 -82 119q-88 0 -88 -119v-1135q0 -121 86 -120q84 -1 84 120z" />
    <glyph glyph-name="otilde" unicode="&#xf5;" horiz-adv-x="688" 
d="M283 1806q-27 0 -27 -73h-78q0 152 103 151q20 0 40.5 -8t28.5 -14.5t27 -24.5l18 -18q16 -23 29 -23q29 0 27 74h77q0 -152 -102 -152q-20 0 -40.5 8.5t-28 13.5t-25.5 25l-21 19q-16 22 -28 22zM346 1694q131 0 205 -77t74 -218v-1112q0 -145 -74 -222t-207 -77
t-207 76.5t-74 222.5v1112q0 141 75 218t208 77zM428 274v1135q0 119 -82 119q-88 0 -88 -119v-1135q0 -121 86 -120q84 -1 84 120z" />
    <glyph glyph-name="odieresis" unicode="&#xf6;" horiz-adv-x="688" 
d="M188 1882h115v-143h-115v143zM385 1882h115v-143h-115v143zM346 1694q131 0 205 -77t74 -218v-1112q0 -145 -74 -222t-207 -77t-207 76.5t-74 222.5v1112q0 141 75 218t208 77zM428 274v1135q0 119 -82 119q-88 0 -88 -119v-1135q0 -121 86 -120q84 -1 84 120z" />
    <glyph glyph-name="oslash" unicode="&#xf8;" horiz-adv-x="692" 
d="M492 1661q133 -68 133 -262v-1112q0 -145 -74 -222t-207 -77q-18 0 -51 4l-27 -154h-88l33 176q-147 63 -148 273v1112q0 141 75 218t208 77q33 0 64 -6l32 182h88zM428 274v1135q0 119 -82 119q-88 0 -88 -119v-1135q0 -121 86 -120q84 -1 84 120z" />
    <glyph glyph-name="ugrave" unicode="&#xf9;" horiz-adv-x="692" 
d="M319 1880l89 -147h-78l-154 147h143zM422 1681h192v-1681h-170l-18 129q-76 -141 -201 -141q-70 0 -112.5 49t-42.5 151v1493h192v-1445q0 -76 68 -76q37 0 64.5 29.5t27.5 78.5v1413z" />
    <glyph glyph-name="uacute" unicode="&#xfa;" horiz-adv-x="692" 
d="M377 1882h143l-153 -147h-78zM422 1681h192v-1681h-170l-18 129q-76 -141 -201 -141q-70 0 -112.5 49t-42.5 151v1493h192v-1445q0 -76 68 -76q37 0 64.5 29.5t27.5 78.5v1413z" />
    <glyph glyph-name="ucircumflex" unicode="&#xfb;" horiz-adv-x="692" 
d="M512 1733h-84l-86 94l-84 -94h-86l107 149h133zM422 1681h192v-1681h-170l-18 129q-76 -141 -201 -141q-70 0 -112.5 49t-42.5 151v1493h192v-1445q0 -76 68 -76q37 0 64.5 29.5t27.5 78.5v1413z" />
    <glyph glyph-name="udieresis" unicode="&#xfc;" horiz-adv-x="692" 
d="M186 1882h115v-143h-115v143zM383 1882h115v-143h-115v143zM422 1681h192v-1681h-170l-18 129q-76 -141 -201 -141q-70 0 -112.5 49t-42.5 151v1493h192v-1445q0 -76 68 -76q37 0 64.5 29.5t27.5 78.5v1413z" />
    <glyph glyph-name="yacute" unicode="&#xfd;" horiz-adv-x="659" 
d="M356 1882h144l-154 -147h-78zM342 424l31 407l55 850h201l-178 -1669q-45 -231 -263 -231h-159v162h104q72 0 88 53l-190 1685h198l66 -850l31 -407h16z" />
    <glyph glyph-name="thorn" unicode="&#xfe;" horiz-adv-x="692" 
d="M449 -12q-113 0 -179 131v-324h-192v2151h192v-392q51 139 179 138q80 0 129 -55.5t49 -168.5v-1255q0 -115 -49 -170t-129 -55zM356 156q76 0 76 106v1157q0 106 -76 107q-86 0 -86 -121v-1129q0 -120 86 -120z" />
    <glyph glyph-name="ydieresis" unicode="&#xff;" horiz-adv-x="659" 
d="M166 1882h115v-143h-115v143zM362 1882h115v-143h-115v143zM342 424l31 407l55 850h201l-178 -1669q-45 -231 -263 -231h-159v162h104q72 0 88 53l-190 1685h198l66 -850l31 -407h16z" />
    <glyph glyph-name="Amacron" unicode="&#x100;" horiz-adv-x="700" 
d="M524 2089v-74h-360v74h360zM485 0l-32 475l-205 2l-35 -477h-201l189 1935h303l186 -1935h-205zM260 647h180l-55 780l-27 306h-16l-27 -306z" />
    <glyph glyph-name="amacron" unicode="&#x101;" horiz-adv-x="677" 
d="M166 1835h360v-74h-360v74zM438 0l-16 129q-55 -141 -189 -141q-78 0 -129 54t-51 148l-2 465q0 219 187 293l178 68v434q0 80 -74 80q-78 0 -78 -80v-383h-186v395q0 104 65.5 168t198.5 64q266 0 266 -260v-1434h-170zM418 844l-92 -33q-80 -35 -80 -143l-2 -435
q0 -80 67 -79q41 0 73 33.5t32 91.5z" />
    <glyph glyph-name="Abreve" unicode="&#x102;" horiz-adv-x="700" 
d="M348 1989q-82 0 -131 41t-59 106h96q16 -78 94 -78t94 78h95q-10 -66 -58.5 -106.5t-130.5 -40.5zM485 0l-32 475l-205 2l-35 -477h-201l189 1935h303l186 -1935h-205zM260 647h180l-55 780l-27 306h-16l-27 -306z" />
    <glyph glyph-name="abreve" unicode="&#x103;" horiz-adv-x="677" 
d="M539 1882q-10 -66 -58.5 -106.5t-130.5 -40.5t-131 41t-59 106h96q16 -78 94 -78t94 78h95zM438 0l-16 129q-55 -141 -189 -141q-78 0 -129 54t-51 148l-2 465q0 219 187 293l178 68v434q0 80 -74 80q-78 0 -78 -80v-383h-186v395q0 104 65.5 168t198.5 64
q266 0 266 -260v-1434h-170zM418 844l-92 -33q-80 -35 -80 -143l-2 -435q0 -80 67 -79q41 0 73 33.5t32 91.5z" />
    <glyph glyph-name="Aogonek" unicode="&#x104;" horiz-adv-x="700" 
d="M539 -68q0 -39 41 -38q51 0 96 20v-74q-78 -43 -158 -43q-49 0 -84 28t-35 73q0 35 22.5 68.5t61.5 51.5l-30 457l-205 2l-35 -477h-201l189 1935h303l186 -1935h-84q-29 -4 -48 -21.5t-19 -46.5zM260 647h180l-55 780l-27 306h-16l-27 -306z" />
    <glyph glyph-name="aogonek" unicode="&#x105;" horiz-adv-x="677" 
d="M518 0q-29 -4 -48 -21.5t-19 -46.5q0 -39 41 -38q51 0 96 20v-74q-78 -43 -158 -43q-49 0 -84 28t-35 73q0 43 33 81.5t90 51.5l-12 98q-55 -141 -189 -141q-78 0 -129 54t-51 148l-2 465q0 219 187 293l178 68v434q0 80 -74 80q-78 0 -78 -80v-383h-186v395
q0 104 65.5 168t198.5 64q266 0 266 -260v-1434h-90zM416 279l2 565l-92 -33q-80 -35 -80 -143l-2 -435q0 -80 67 -79q41 0 73 34t32 91z" />
    <glyph glyph-name="Cacute" unicode="&#x106;" horiz-adv-x="716" 
d="M393 2140h144l-154 -147h-78zM645 881v-617q0 -133 -72.5 -204.5t-207.5 -71.5q-139 0 -214 79.5t-75 227.5v1350q0 143 74.5 223t214.5 80q135 0 207.5 -71t72.5 -202v-545h-192v535q0 51 -22.5 81t-63.5 30t-67 -31t-26 -80v-1393q0 -51 26 -81.5t67 -30.5q86 0 86 112
v609h192z" />
    <glyph glyph-name="cacute" unicode="&#x107;" horiz-adv-x="679" 
d="M387 1882h143l-153 -147h-78zM616 801v-545q0 -129 -67.5 -198.5t-200.5 -69.5q-135 0 -210 75.5t-75 215.5v1114q0 145 75 223t210 78q131 0 199.5 -69t68.5 -195v-474h-186v453q0 119 -82 119q-88 0 -88 -119v-1135q0 -121 88 -120q82 0 82 120v527h186z" />
    <glyph glyph-name="Cdotaccent" unicode="&#x10a;" horiz-adv-x="716" 
d="M301 2140h115v-143h-115v143zM645 881v-617q0 -133 -72.5 -204.5t-207.5 -71.5q-139 0 -214 79.5t-75 227.5v1350q0 143 74.5 223t214.5 80q135 0 207.5 -71t72.5 -202v-545h-192v535q0 51 -22.5 81t-63.5 30t-67 -31t-26 -80v-1393q0 -51 26 -81.5t67 -30.5q86 0 86 112
v609h192z" />
    <glyph glyph-name="cdotaccent" unicode="&#x10b;" horiz-adv-x="679" 
d="M295 1882h115v-143h-115v143zM616 801v-545q0 -129 -67.5 -198.5t-200.5 -69.5q-135 0 -210 75.5t-75 215.5v1114q0 145 75 223t210 78q131 0 199.5 -69t68.5 -195v-474h-186v453q0 119 -82 119q-88 0 -88 -119v-1135q0 -121 88 -120q82 0 82 120v527h186z" />
    <glyph glyph-name="Ccaron" unicode="&#x10c;" horiz-adv-x="716" 
d="M528 2144l-100 -149h-133l-107 149h86l84 -94l86 94h84zM645 881v-617q0 -133 -72.5 -204.5t-207.5 -71.5q-139 0 -214 79.5t-75 227.5v1350q0 143 74.5 223t214.5 80q135 0 207.5 -71t72.5 -202v-545h-192v535q0 51 -22.5 81t-63.5 30t-67 -31t-26 -80v-1393
q0 -51 26 -81.5t67 -30.5q86 0 86 112v609h192z" />
    <glyph glyph-name="ccaron" unicode="&#x10d;" horiz-adv-x="679" 
d="M522 1886l-100 -149h-133l-107 149h86l84 -94l86 94h84zM616 801v-545q0 -129 -67.5 -198.5t-200.5 -69.5q-135 0 -210 75.5t-75 215.5v1114q0 145 75 223t210 78q131 0 199.5 -69t68.5 -195v-474h-186v453q0 119 -82 119q-88 0 -88 -119v-1135q0 -121 88 -120
q82 0 82 120v527h186z" />
    <glyph glyph-name="Dcaron" unicode="&#x10e;" 
d="M541 2140l-101 -149h-133l-106 149h86l84 -94l86 94h84zM381 1935q127 0 199.5 -75.5t72.5 -219.5v-1345q0 -141 -72.5 -218t-199.5 -77h-295v1935h295zM457 279v1380q0 49 -24.5 76.5t-65.5 27.5h-86v-1591h86q41 0 65.5 29t24.5 78z" />
    <glyph glyph-name="dcaron" unicode="&#x10f;" horiz-adv-x="858" 
d="M420 1563v383h192v-1946h-192v127q-57 -139 -178 -139q-80 0 -129.5 55t-49.5 170v1253q0 115 49.5 170.5t129.5 55.5q115 0 178 -129zM711 1946h129v-293q0 -121 -113 -121h-16v70h14q41 0 41 55v98h-55v191zM420 276v1127q0 61 -24.5 92t-61.5 31q-76 0 -76 -107v-1159
q0 -106 76 -106q86 -1 86 122z" />
    <glyph glyph-name="Dcroat" unicode="&#x110;" 
d="M381 1935q127 0 199.5 -75.5t72.5 -219.5v-1345q0 -141 -72.5 -218t-199.5 -77h-295v932h-80v74h80v929h295zM457 279v1380q0 49 -24.5 76.5t-65.5 27.5h-86v-757h104v-74h-104v-760h86q41 0 65.5 29t24.5 78z" />
    <glyph glyph-name="dcroat" unicode="&#x111;" horiz-adv-x="692" 
d="M666 1837v-74h-54v-1763h-192v127q-57 -139 -178 -139q-80 0 -129.5 55t-49.5 170v1253q0 115 49.5 170.5t129.5 55.5q115 0 178 -129v200h-76v74h76v109h192v-109h54zM420 276v1127q0 61 -24.5 92t-61.5 31q-76 0 -76 -107v-1159q0 -106 76 -106q86 -1 86 122z" />
    <glyph glyph-name="Emacron" unicode="&#x112;" horiz-adv-x="575" 
d="M143 2089h361v-74h-361v74zM283 172h247v-172h-444v1935h438v-172h-241v-676h225v-169h-225v-746z" />
    <glyph glyph-name="emacron" unicode="&#x113;" horiz-adv-x="681" 
d="M158 1835h360v-74h-360v74zM346 1694q135 0 203.5 -75t68.5 -212v-547h-358v-586q0 -121 88 -120q82 0 82 98v512h188v-524q0 -115 -72.5 -183.5t-195.5 -68.5q-139 0 -213 75.5t-74 215.5v1112q0 147 75 225t208 78zM346 1530q-86 0 -86 -113v-401h168v401
q0 113 -82 113z" />
    <glyph glyph-name="Edotaccent" unicode="&#x116;" horiz-adv-x="575" 
d="M270 2136h115v-143h-115v143zM283 172h247v-172h-444v1935h438v-172h-241v-676h225v-169h-225v-746z" />
    <glyph glyph-name="edotaccent" unicode="&#x117;" horiz-adv-x="681" 
d="M285 1882h114v-143h-114v143zM346 1694q135 0 203.5 -75t68.5 -212v-547h-358v-586q0 -121 88 -120q82 0 82 98v512h188v-524q0 -115 -72.5 -183.5t-195.5 -68.5q-139 0 -213 75.5t-74 215.5v1112q0 147 75 225t208 78zM346 1530q-86 0 -86 -113v-401h168v401
q0 113 -82 113z" />
    <glyph glyph-name="Eogonek" unicode="&#x118;" horiz-adv-x="575" 
d="M457 -106q51 0 96 20v-74q-78 -43 -158 -43q-49 0 -84 28t-35 73q0 59 54 102h-244v1935h438v-172h-241v-676h225v-169h-225v-746h247v-172h-47q-29 -4 -48 -21.5t-19 -46.5q0 -38 41 -38z" />
    <glyph glyph-name="eogonek" unicode="&#x119;" horiz-adv-x="681" 
d="M618 860h-358v-586q0 -121 88 -120q82 0 82 98v512h188v-524q0 -104 -62 -172t-169 -78q-31 -20 -31 -56q0 -39 41 -38q51 0 97 20v-74q-78 -43 -158 -43q-49 0 -84 28t-35 73q0 55 47 96q-201 43 -201 283v1112q0 147 75 225t208 78q135 0 203.5 -75t68.5 -212v-547z
M260 1417v-401h168v401q0 113 -82 113q-86 0 -86 -113z" />
    <glyph glyph-name="Ecaron" unicode="&#x11a;" horiz-adv-x="575" 
d="M498 2140l-101 -149h-133l-106 149h86l84 -94l86 94h84zM283 172h247v-172h-444v1935h438v-172h-241v-676h225v-169h-225v-746z" />
    <glyph glyph-name="ecaron" unicode="&#x11b;" horiz-adv-x="681" 
d="M512 1886l-100 -149h-133l-107 149h86l84 -94l86 94h84zM346 1694q135 0 203.5 -75t68.5 -212v-547h-358v-586q0 -121 88 -120q82 0 82 98v512h188v-524q0 -115 -72.5 -183.5t-195.5 -68.5q-139 0 -213 75.5t-74 215.5v1112q0 147 75 225t208 78zM346 1530
q-86 0 -86 -113v-401h168v401q0 113 -82 113z" />
    <glyph glyph-name="Gbreve" unicode="&#x11e;" horiz-adv-x="720" 
d="M549 2140q-10 -66 -58.5 -106.5t-130 -40.5t-131 41t-59.5 106h96q16 -78 94 -78t95 78h94zM461 100q-47 -115 -178 -112q-94 0 -150.5 69.5t-56.5 196.5v1391q0 145 75.5 224t217.5 79q137 0 208.5 -71t71.5 -198v-503h-194v489q0 111 -88 111q-41 0 -67 -31t-26 -80
v-1395q0 -111 91 -110q41 0 65.5 29.5t24.5 74.5v596h-95v166h289v-1028h-149l-27 102h-12z" />
    <glyph glyph-name="gbreve" unicode="&#x11f;" horiz-adv-x="692" 
d="M532 1882q-10 -66 -58 -106.5t-130 -40.5t-131 41t-59 106h96q16 -78 94 -78t94 78h94zM442 1681h170l2 -1654q-2 -127 -70.5 -186.5t-174.5 -59.5h-258v162h208q102 0 103 98v164q-66 -150 -182 -150q-80 2 -128.5 56.5t-48.5 162.5v1201q0 109 49.5 163t127.5 54
q113 0 184 -142zM334 1526q-76 0 -76 -103v-1093q0 -106 76 -107q84 0 84 123v1057q0 123 -84 123z" />
    <glyph glyph-name="Gdotaccent" unicode="&#x120;" horiz-adv-x="720" 
d="M303 2140h115v-143h-115v143zM461 100q-47 -115 -178 -112q-94 0 -150.5 69.5t-56.5 196.5v1391q0 145 75.5 224t217.5 79q137 0 208.5 -71t71.5 -198v-503h-194v489q0 111 -88 111q-41 0 -67 -31t-26 -80v-1395q0 -111 91 -110q41 0 65.5 29.5t24.5 74.5v596h-95v166
h289v-1028h-149l-27 102h-12z" />
    <glyph glyph-name="gdotaccent" unicode="&#x121;" horiz-adv-x="692" 
d="M287 1882h114v-143h-114v143zM442 1681h170l2 -1654q-2 -127 -70.5 -186.5t-174.5 -59.5h-258v162h208q102 0 103 98v164q-66 -150 -182 -150q-80 2 -128.5 56.5t-48.5 162.5v1201q0 109 49.5 163t127.5 54q113 0 184 -142zM334 1526q-76 0 -76 -103v-1093
q0 -106 76 -107q84 0 84 123v1057q0 123 -84 123z" />
    <glyph glyph-name="uni0122" unicode="&#x122;" horiz-adv-x="720" 
d="M649 1176h-194v489q0 111 -88 111q-41 0 -67 -31t-26 -80v-1395q0 -111 91 -110q41 0 65.5 29.5t24.5 74.5v596h-95v166h289v-1028h-149l-27 102h-12q-47 -115 -178 -112q-94 0 -150.5 69.5t-56.5 196.5v1391q0 145 75.5 224t217.5 79q137 0 208.5 -71t71.5 -198v-503z
M297 -115v78h170v-98q0 -84 -107 -84h-63v51h53q39 0 39 33v20h-92z" />
    <glyph glyph-name="uni0123" unicode="&#x123;" horiz-adv-x="692" 
d="M612 1681l2 -1654q-2 -127 -70.5 -186.5t-174.5 -59.5h-258v162h208q102 0 103 98v164q-66 -150 -182 -150q-80 2 -128.5 56.5t-48.5 162.5v1201q0 109 49.5 163t127.5 54q113 0 184 -142l18 131h170zM418 346v1057q0 123 -84 123q-76 0 -76 -103v-1093q0 -106 76 -107
q84 0 84 123zM274 -324v78h170v-98q0 -84 -106 -84h-64v51h54q39 0 39 33v20h-93z" />
    <glyph glyph-name="Hbar" unicode="&#x126;" horiz-adv-x="724" 
d="M711 1571v-74h-64v-1497h-196v920h-168v-920h-197v1497h-72v74h72v364h197v-364h168v364h196v-364h64zM451 1090v407h-168v-407h168z" />
    <glyph glyph-name="hbar" unicode="&#x127;" horiz-adv-x="690" 
d="M465 1694q156 -4 156 -195v-1499h-193v1446q0 76 -68 76q-37 0 -63.5 -30t-26.5 -79v-1413h-192v1763h-51v74h51v109h192v-109h78v-74h-78v-213q78 144 195 144z" />
    <glyph glyph-name="Imacron" unicode="&#x12a;" horiz-adv-x="366" 
d="M0 2089h360v-74h-360v74zM86 1935h195v-1935h-195v1935z" />
    <glyph glyph-name="imacron" unicode="&#x12b;" horiz-adv-x="348" 
d="M-10 1835h360v-74h-360v74zM78 1681h192v-1681h-192v1681z" />
    <glyph glyph-name="Iogonek" unicode="&#x12e;" horiz-adv-x="366" 
d="M207 -106q51 0 96 20v-74q-78 -43 -158 -43q-49 0 -83.5 28t-34.5 73q0 63 59 106v1931h195v-1935h-48q-29 -4 -48 -21.5t-19 -46.5q0 -38 41 -38z" />
    <glyph glyph-name="iogonek" unicode="&#x12f;" horiz-adv-x="348" 
d="M270 1946v-197h-192v197h192zM199 -104q51 0 96 20v-74q-78 -43 -158 -43q-49 0 -84 28t-35 73q0 63 60 106v1675h192v-1681h-55q-57 -14 -57 -66q0 -38 41 -38z" />
    <glyph glyph-name="Idotaccent" unicode="&#x130;" horiz-adv-x="366" 
d="M127 2136h115v-143h-115v143zM86 1935h195v-1935h-195v1935z" />
    <glyph glyph-name="dotlessi" unicode="&#x131;" horiz-adv-x="348" 
d="M78 1681h192v-1681h-192v1681z" />
    <glyph glyph-name="uni0136" unicode="&#x136;" 
d="M471 1004l252 -1004h-223l-203 911h-16v-911h-195v1935h197l-2 -856h16l197 856h206zM307 -109v78h170v-98q0 -84 -106 -84h-64v51h53q39 0 39 33v20h-92z" />
    <glyph glyph-name="uni0137" unicode="&#x137;" horiz-adv-x="692" 
d="M467 899l213 -899h-215l-176 801l-17 2v-803h-194v1946h194v-975h15l172 708h207zM274 -109v78h170v-98q0 -84 -106 -84h-64v51h54q39 0 39 33v20h-93z" />
    <glyph glyph-name="Lacute" unicode="&#x139;" horiz-adv-x="518" 
d="M315 2136h144l-154 -147h-78zM281 170h237v-170h-432v1935h195v-1765z" />
    <glyph glyph-name="lacute" unicode="&#x13a;" horiz-adv-x="348" 
d="M209 2136h143l-153 -147h-78zM78 1946h192v-1946h-192v1946z" />
    <glyph glyph-name="uni013B" unicode="&#x13b;" horiz-adv-x="518" 
d="M281 170h237v-170h-432v1935h195v-1765zM209 -109v78h170v-98q0 -84 -107 -84h-63v51h53q39 0 39 33v20h-92z" />
    <glyph glyph-name="uni013C" unicode="&#x13c;" horiz-adv-x="348" 
d="M270 1946v-1946h-192v1946h192zM102 -31h170v-98q0 -84 -106 -84h-64v51h54q39 0 39 33v20h-93v78z" />
    <glyph glyph-name="Lcaron" unicode="&#x13d;" horiz-adv-x="583" 
d="M281 1935v-1765h237v-170h-432v1935h195zM414 1935h133v-456q0 -121 -111 -121h-22v72h20q41 0 41 55v149h-61v301z" />
    <glyph glyph-name="lcaron" unicode="&#x13e;" horiz-adv-x="348" 
d="M344 2140l-100 -149h-133l-107 149h86l84 -94l86 94h84zM78 1946h192v-1946h-192v1946z" />
    <glyph glyph-name="Lslash" unicode="&#x141;" horiz-adv-x="518" 
d="M281 170h237v-170h-432v844l-92 -62v121l92 62v970h195v-839l125 84v-121l-125 -84v-805z" />
    <glyph glyph-name="lslash" unicode="&#x142;" horiz-adv-x="348" 
d="M379 1225v-121l-109 -74v-1030h-192v901l-111 -74v121l111 74v924h192v-795z" />
    <glyph glyph-name="Nacute" unicode="&#x143;" horiz-adv-x="745" 
d="M418 2136h143l-153 -147h-78zM492 778l-15 619v538h182v-1935h-192l-203 1255h-10l14 -587v-668h-182v1935h205l188 -1157h13z" />
    <glyph glyph-name="nacute" unicode="&#x144;" horiz-adv-x="692" 
d="M379 1882h143l-153 -147h-78zM465 1694q156 -4 156 -195v-1499h-193v1446q0 76 -68 76q-37 0 -63.5 -30t-26.5 -79v-1413h-192v1681h170l18 -131q31 59 83.5 101.5t115.5 42.5z" />
    <glyph glyph-name="uni0145" unicode="&#x145;" horiz-adv-x="745" 
d="M477 1935h182v-1935h-192l-203 1255h-10l14 -587v-668h-182v1935h205l188 -1157h13l-15 619v538zM311 -109v78h170v-98q0 -84 -106 -84h-64v51h54q39 0 38 33v20h-92z" />
    <glyph glyph-name="uni0146" unicode="&#x146;" horiz-adv-x="692" 
d="M465 1694q156 -4 156 -195v-1499h-193v1446q0 76 -68 76q-37 0 -63.5 -30t-26.5 -79v-1413h-192v1681h170l18 -131q31 59 83.5 101.5t115.5 42.5zM272 -109v78h170v-98q0 -84 -106 -84h-64v51h54q39 0 39 33v20h-93z" />
    <glyph glyph-name="Ncaron" unicode="&#x147;" horiz-adv-x="745" 
d="M553 2140l-100 -149h-134l-106 149h86l84 -94l86 94h84zM492 778l-15 619v538h182v-1935h-192l-203 1255h-10l14 -587v-668h-182v1935h205l188 -1157h13z" />
    <glyph glyph-name="ncaron" unicode="&#x148;" horiz-adv-x="692" 
d="M514 1886l-100 -149h-133l-107 149h86l84 -94l86 94h84zM465 1694q156 -4 156 -195v-1499h-193v1446q0 76 -68 76q-37 0 -63.5 -30t-26.5 -79v-1413h-192v1681h170l18 -131q31 59 83.5 101.5t115.5 42.5z" />
    <glyph glyph-name="Eng" unicode="&#x14a;" horiz-adv-x="745" 
d="M477 1935h182v-1929q0 -86 -47 -133t-127 -47h-123v166h60q45 0 45 59v33l-203 1171h-10l14 -573v-682h-182v1935h205l188 -1157h13l-15 619v538z" />
    <glyph glyph-name="eng" unicode="&#x14b;" horiz-adv-x="692" 
d="M465 1694q156 -4 156 -195v-1485q0 -86 -47.5 -133t-127.5 -47q-63 0 -116 14v134h53q45 0 45 59v1405q0 76 -68 76q-37 0 -63.5 -30t-26.5 -79v-1413h-192v1681h170l18 -131q31 59 83.5 101.5t115.5 42.5z" />
    <glyph glyph-name="Omacron" unicode="&#x14c;" 
d="M180 2093h361v-74h-361v74zM364.5 1948q139.5 0 214 -80t74.5 -223v-1350q0 -147 -74.5 -227t-216.5 -80q-139 0 -212.5 79.5t-73.5 227.5v1350q0 143 74.5 223t214 80zM455 272v1393q0 49 -23.5 80t-64.5 31q-43 0 -68 -31t-25 -80v-1393q0 -51 25 -81.5t66 -30.5
q43 0 66.5 29.5t23.5 82.5z" />
    <glyph glyph-name="omacron" unicode="&#x14d;" horiz-adv-x="688" 
d="M160 1835h360v-74h-360v74zM346 1694q131 0 205 -77t74 -218v-1112q0 -145 -74 -222t-207 -77t-207 76.5t-74 222.5v1112q0 141 75 218t208 77zM428 274v1135q0 119 -82 119q-88 0 -88 -119v-1135q0 -121 86 -120q84 -1 84 120z" />
    <glyph glyph-name="Ohungarumlaut" unicode="&#x150;" 
d="M289 2140h143l-153 -147h-78zM463 2138h143l-153 -147h-78zM364.5 1948q139.5 0 214 -80t74.5 -223v-1350q0 -147 -74.5 -227t-216.5 -80q-139 0 -212.5 79.5t-73.5 227.5v1350q0 143 74.5 223t214 80zM455 272v1393q0 49 -23.5 80t-64.5 31q-43 0 -68 -31t-25 -80v-1393
q0 -51 25 -81.5t66 -30.5q43 0 66.5 29.5t23.5 82.5z" />
    <glyph glyph-name="ohungarumlaut" unicode="&#x151;" horiz-adv-x="688" 
d="M268 1882h144l-154 -147h-78zM442 1880h144l-154 -147h-78zM346 1694q131 0 205 -77t74 -218v-1112q0 -145 -74 -222t-207 -77t-207 76.5t-74 222.5v1112q0 141 75 218t208 77zM428 274v1135q0 119 -82 119q-88 0 -88 -119v-1135q0 -121 86 -120q84 -1 84 120z" />
    <glyph glyph-name="OE" unicode="&#x152;" horiz-adv-x="950" 
d="M905 172v-172h-444q-43 -12 -99 -12q-139 0 -212.5 79.5t-73.5 227.5v1350q0 143 74.5 223t214.5 80q55 0 98 -13h436v-172h-242v-676h226v-169h-226v-746h248zM455 272v1393q0 49 -23.5 80t-64.5 31q-43 0 -68 -31t-25 -80v-1393q0 -51 25 -81.5t66 -30.5
q43 0 66.5 29.5t23.5 82.5z" />
    <glyph glyph-name="oe" unicode="&#x153;" horiz-adv-x="1046" 
d="M625 860v-586q0 -121 88 -120q82 0 82 98v512h188v-524q0 -115 -72.5 -183.5t-195.5 -68.5q-117 0 -189 53q-72 -53 -182 -53q-133 0 -207 76.5t-74 222.5v1112q0 141 75 218t208 77q113 0 180 -56q72 55 185 56q135 0 203.5 -75t68.5 -212v-547h-358zM625 1417v-401h168
v401q0 113 -82 113q-86 0 -86 -113zM428 274v1135q0 119 -82 119q-88 0 -88 -119v-1135q0 -121 86 -120q84 -1 84 120z" />
    <glyph glyph-name="Racute" unicode="&#x154;" 
d="M545 2136l-154 -147h-78l88 147h144zM682 0h-195l-88 758h-118v-758h-195v1935h297q129 0 201.5 -72.5t72.5 -207.5v-602q0 -139 -84 -219zM283 926h69q106 0 107 123v598q0 117 -107 116h-69v-837z" />
    <glyph glyph-name="racute" unicode="&#x155;" horiz-adv-x="655" 
d="M379 1882h143l-153 -147h-78zM461 1692q68 0 108.5 -50.5t40.5 -154.5v-715h-192v662q0 88 -62 88q-37 0 -61.5 -40t-24.5 -122v-1360h-192v1681h170l14 -133q37 74 82 109t117 35z" />
    <glyph glyph-name="uni0156" unicode="&#x156;" 
d="M573 834l109 -834h-195l-88 758h-118v-758h-195v1935h297q129 0 201.5 -72.5t72.5 -207.5v-602q0 -139 -84 -219zM283 926h69q106 0 107 123v598q0 117 -107 116h-69v-837zM295 -109v78h170v-98q0 -84 -107 -84h-63v51h53q39 0 39 33v20h-92z" />
    <glyph glyph-name="uni0157" unicode="&#x157;" horiz-adv-x="655" 
d="M461 1692q68 0 108.5 -50.5t40.5 -154.5v-715h-192v662q0 88 -62 88q-37 0 -61.5 -40t-24.5 -122v-1360h-192v1681h170l14 -133q37 74 82 109t117 35zM272 -109v78h170v-98q0 -84 -106 -84h-64v51h54q39 0 39 33v20h-93z" />
    <glyph glyph-name="Rcaron" unicode="&#x158;" 
d="M436 1991h-133l-106 149h86l84 -94l86 94h84zM682 0h-195l-88 758h-118v-758h-195v1935h297q129 0 201.5 -72.5t72.5 -207.5v-602q0 -139 -84 -219zM283 926h69q106 0 107 123v598q0 117 -107 116h-69v-837z" />
    <glyph glyph-name="rcaron" unicode="&#x159;" horiz-adv-x="655" 
d="M514 1886l-100 -149h-133l-107 149h86l84 -94l86 94h84zM461 1692q68 0 108.5 -50.5t40.5 -154.5v-715h-192v662q0 88 -62 88q-37 0 -61.5 -40t-24.5 -122v-1360h-192v1681h170l14 -133q37 74 82 109t117 35z" />
    <glyph glyph-name="Sacute" unicode="&#x15a;" horiz-adv-x="720" 
d="M387 2140h143l-153 -147h-78zM641 1257h-192v424q0 94 -91 95q-43 0 -65.5 -23.5t-22.5 -60.5v-416q0 -59 18.5 -89t65.5 -54l99 -41q106 -47 154 -108.5t48 -190.5v-527q0 -131 -76.5 -204.5t-211.5 -73.5q-137 0 -213 68.5t-76 189.5v520h196v-506q0 -45 24 -72.5
t69 -27.5q43 0 66.5 26.5t23.5 69.5v500q0 66 -21.5 99.5t-68.5 55.5l-109 47q-98 43 -140 106.5t-42 184.5v441q0 113 71.5 185.5t212.5 72.5q135 0 208 -66.5t73 -179.5v-445z" />
    <glyph glyph-name="sacute" unicode="&#x15b;" horiz-adv-x="667" 
d="M371 1882h143l-154 -147h-77zM438 954q94 -35 136 -94t42 -168v-448q0 -121 -74.5 -188.5t-201.5 -67.5q-281 0 -281 254v450h191v-456q0 -37 22.5 -59.5t61.5 -22.5q41 0 63.5 21.5t22.5 57.5v437q0 86 -82 116l-121 37q-88 33 -125 90.5t-37 159.5v373q0 111 74 179.5
t203 68.5q131 0 200.5 -64.5t69.5 -165.5v-385h-190v363q0 41 -21.5 64.5t-58.5 23.5q-39 0 -61.5 -21.5t-22.5 -56.5v-356q0 -41 16.5 -63.5t61.5 -41.5z" />
    <glyph glyph-name="Scedilla" unicode="&#x15e;" horiz-adv-x="720" 
d="M453 1092q106 -47 154 -108.5t48 -190.5v-527q0 -129 -74.5 -202.5t-207.5 -75.5l-49 -82q41 37 71 37q59 0 60 -68v-18q0 -45 -30 -70t-77 -25q-49 0 -78.5 24t-29.5 67v12h90v-29q0 -20 16 -20t16 22v27q0 29 -24 29h-90l57 98q-109 14 -168 80.5t-59 173.5v520h196
v-506q0 -45 24 -72.5t69 -27.5q43 0 66.5 26.5t23.5 69.5v500q0 66 -21.5 99.5t-68.5 55.5l-109 47q-98 43 -140 106.5t-42 184.5v441q0 113 71.5 185.5t212.5 72.5q135 0 208 -66.5t73 -179.5v-445h-192v424q0 94 -91 95q-43 0 -65.5 -23.5t-22.5 -60.5v-416
q0 -59 18.5 -89t65.5 -54z" />
    <glyph glyph-name="scedilla" unicode="&#x15f;" horiz-adv-x="667" 
d="M438 954q94 -35 136 -94t42 -168v-448q0 -117 -71.5 -184.5t-192.5 -71.5l-49 -82q41 37 72 37q59 0 59 -68v-18q0 -45 -29.5 -70t-76.5 -25q-49 0 -79 24t-30 67v12h90v-29q0 -20 16.5 -20t16.5 22v27q0 29 -25 29h-90l58 96q-225 27 -226 252v450h191v-456
q0 -37 22.5 -59.5t61.5 -22.5q41 0 63.5 21.5t22.5 57.5v437q0 86 -82 116l-121 37q-88 33 -125 90.5t-37 159.5v373q0 111 74 179.5t203 68.5q131 0 200.5 -64.5t69.5 -165.5v-385h-190v363q0 41 -21.5 64.5t-58.5 23.5q-39 0 -61.5 -21.5t-22.5 -56.5v-356
q0 -41 16.5 -63.5t61.5 -41.5z" />
    <glyph glyph-name="Scaron" unicode="&#x160;" horiz-adv-x="720" 
d="M522 2144l-100 -149h-133l-107 149h86l84 -94l86 94h84zM641 1257h-192v424q0 94 -91 95q-43 0 -65.5 -23.5t-22.5 -60.5v-416q0 -59 18.5 -89t65.5 -54l99 -41q106 -47 154 -108.5t48 -190.5v-527q0 -131 -76.5 -204.5t-211.5 -73.5q-137 0 -213 68.5t-76 189.5v520h196
v-506q0 -45 24 -72.5t69 -27.5q43 0 66.5 26.5t23.5 69.5v500q0 66 -21.5 99.5t-68.5 55.5l-109 47q-98 43 -140 106.5t-42 184.5v441q0 113 71.5 185.5t212.5 72.5q135 0 208 -66.5t73 -179.5v-445z" />
    <glyph glyph-name="scaron" unicode="&#x161;" horiz-adv-x="667" 
d="M506 1886l-100 -149h-134l-106 149h86l84 -94l86 94h84zM438 954q94 -35 136 -94t42 -168v-448q0 -121 -74.5 -188.5t-201.5 -67.5q-281 0 -281 254v450h191v-456q0 -37 22.5 -59.5t61.5 -22.5q41 0 63.5 21.5t22.5 57.5v437q0 86 -82 116l-121 37q-88 33 -125 90.5
t-37 159.5v373q0 111 74 179.5t203 68.5q131 0 200.5 -64.5t69.5 -165.5v-385h-190v363q0 41 -21.5 64.5t-58.5 23.5q-39 0 -61.5 -21.5t-22.5 -56.5v-356q0 -41 16.5 -63.5t61.5 -41.5z" />
    <glyph glyph-name="uni0162" unicode="&#x162;" horiz-adv-x="598" 
d="M2 1935h594v-172h-199v-1763h-78l-53 -88q41 37 72 37q59 0 59 -68v-18q0 -45 -29.5 -69.5t-76.5 -24.5q-49 0 -79 23.5t-30 66.5v12h90v-29q0 -20 16.5 -20t16.5 22v27q0 29 -24 29h-91l60 100h-49v1763h-199v172z" />
    <glyph glyph-name="uni0163" unicode="&#x163;" horiz-adv-x="491" 
d="M354 0q-27 0 -39 2l-53 -90q39 37 72 37q59 0 59 -68v-18q0 -45 -29.5 -69.5t-76.5 -24.5q-49 0 -79 23.5t-30 66.5v12h90v-29q0 -20 16.5 -20t16.5 22v27q0 29 -25 29h-90l68 116q-127 45 -127 199v1305h-117v161q96 0 126 49.5t44 186.5h144v-236h149v-161h-154v-1260
q0 -90 74 -90h82v-170h-121z" />
    <glyph glyph-name="Tcaron" unicode="&#x164;" horiz-adv-x="598" 
d="M469 2140l-100 -149h-133l-107 149h86l84 -94l86 94h84zM596 1935v-172h-199v-1763h-196v1763h-199v172h594z" />
    <glyph glyph-name="tcaron" unicode="&#x165;" horiz-adv-x="657" 
d="M319 260q0 -90 74 -90h82v-170h-121q-111 0 -169 56.5t-58 158.5v1305h-117v161q96 0 126 49.5t44 186.5h144v-236h149v-161h-154v-1260zM512 1917h127v-293q0 -119 -111 -119h-16v70h12q41 0 41 53v101h-53v188z" />
    <glyph glyph-name="Tbar" unicode="&#x166;" horiz-adv-x="598" 
d="M596 1763h-199v-757h90v-74h-90v-932h-196v932h-92v74h92v757h-199v172h594v-172z" />
    <glyph glyph-name="tbar" unicode="&#x167;" horiz-adv-x="471" 
d="M393 170h82v-170h-121q-111 0 -169 56.5t-58 158.5v635h-119v74h119v596h-117v161q96 0 126 49.5t44 186.5h144v-236h149v-161h-154v-596h154v-74h-154v-590q0 -90 74 -90z" />
    <glyph glyph-name="Umacron" unicode="&#x16a;" 
d="M180 2089h361v-74h-361v74zM645 1935v-1687q0 -127 -74.5 -194.5t-208.5 -67.5q-131 0 -204.5 66.5t-73.5 193.5v1689h197v-1675q0 -100 84 -100t84 100v1675h196z" />
    <glyph glyph-name="umacron" unicode="&#x16b;" horiz-adv-x="692" 
d="M158 1835h360v-74h-360v74zM422 1681h192v-1681h-170l-18 129q-76 -141 -201 -141q-70 0 -112.5 49t-42.5 151v1493h192v-1445q0 -76 68 -76q37 0 64.5 29.5t27.5 78.5v1413z" />
    <glyph glyph-name="Uring" unicode="&#x16e;" 
d="M369 1952q-41 0 -70 26.5t-29 65.5q0 41 28 66.5t71 25.5q41 0 67.5 -25.5t26.5 -66.5q0 -39 -26.5 -65.5t-67.5 -26.5zM367 1999q18 0 32.5 13t12.5 32q0 20 -13.5 32.5t-31.5 12.5q-45 0 -45 -45q0 -18 12.5 -31.5t32.5 -13.5zM645 1935v-1687q0 -127 -74.5 -194.5
t-208.5 -67.5q-131 0 -204.5 66.5t-73.5 193.5v1689h197v-1675q0 -100 84 -100t84 100v1675h196z" />
    <glyph glyph-name="uring" unicode="&#x16f;" horiz-adv-x="692" 
d="M346 1698q-41 0 -69.5 26.5t-28.5 65.5q0 41 27.5 66.5t70.5 25.5q41 0 67.5 -25.5t26.5 -66.5q0 -39 -26.5 -65.5t-67.5 -26.5zM344 1745q18 0 32.5 13.5t12.5 31.5q0 20 -13.5 32.5t-31.5 12.5q-45 0 -45 -45q0 -18 12.5 -31.5t32.5 -13.5zM422 1681h192v-1681h-170
l-18 129q-76 -141 -201 -141q-70 0 -112.5 49t-42.5 151v1493h192v-1445q0 -76 68 -76q37 0 64.5 29.5t27.5 78.5v1413z" />
    <glyph glyph-name="Uhungarumlaut" unicode="&#x170;" 
d="M289 2136h143l-153 -147h-78zM463 2134h143l-153 -147h-78zM645 1935v-1687q0 -127 -74.5 -194.5t-208.5 -67.5q-131 0 -204.5 66.5t-73.5 193.5v1689h197v-1675q0 -100 84 -100t84 100v1675h196z" />
    <glyph glyph-name="uhungarumlaut" unicode="&#x171;" horiz-adv-x="692" 
d="M266 1882h144l-154 -147h-78zM440 1880h144l-154 -147h-78zM422 1681h192v-1681h-170l-18 129q-76 -141 -201 -141q-70 0 -112.5 49t-42.5 151v1493h192v-1445q0 -76 68 -76q37 0 64.5 29.5t27.5 78.5v1413z" />
    <glyph glyph-name="Uogonek" unicode="&#x172;" 
d="M449 1935h196v-1687q0 -117 -61.5 -183.5t-175.5 -76.5q-29 -20 -29 -54q0 -39 41 -38q51 0 96 20v-74q-78 -43 -158 -43q-49 0 -83.5 28t-34.5 73q0 51 43 94q-199 39 -199 252v1689h197v-1675q0 -100 84 -100t84 100v1675z" />
    <glyph glyph-name="uogonek" unicode="&#x173;" horiz-adv-x="692" 
d="M535 0q-29 -4 -48.5 -21.5t-19.5 -46.5q0 -39 41 -38q51 0 96 20v-74q-78 -43 -158 -43q-49 0 -83.5 28t-34.5 73q0 41 29.5 78.5t82.5 52.5l-14 100q-76 -141 -201 -141q-70 0 -112.5 49t-42.5 151v1493h192v-1445q0 -76 68 -76q37 0 64.5 29.5t27.5 78.5v1413h192
v-1681h-79z" />
    <glyph glyph-name="Wcircumflex" unicode="&#x174;" horiz-adv-x="1091" 
d="M717 1987h-84l-86 94l-84 -94h-86l106 149h133zM778 539h17l18 438l61 958h207l-168 -1935h-241l-90 987l-31 412h-14l-27 -412l-92 -987h-242l-164 1935h207l60 -958l20 -438h16l27 438l98 958h213l97 -958z" />
    <glyph glyph-name="wcircumflex" unicode="&#x175;" horiz-adv-x="997" 
d="M670 1733h-84l-86 94l-84 -94h-86l106 149h133zM715 477l14 264l41 942h197l-138 -1683h-217l-77 745l-25 435h-18l-25 -435l-80 -745h-221l-135 1683h196l45 -942l15 -264h16l21 264l92 942h172l88 -942l20 -264h19z" />
    <glyph glyph-name="Ycircumflex" unicode="&#x176;" horiz-adv-x="716" 
d="M524 1987h-84l-86 94l-84 -94h-86l107 149h133zM373 973l35 284l86 678h213l-250 -1392v-543h-197v547l-246 1388h217l91 -678l34 -284h17z" />
    <glyph glyph-name="ycircumflex" unicode="&#x177;" horiz-adv-x="659" 
d="M492 1733h-84l-86 94l-84 -94h-86l106 149h133zM342 424l31 407l55 850h201l-178 -1669q-45 -231 -263 -231h-159v162h104q72 0 88 53l-190 1685h198l66 -850l31 -407h16z" />
    <glyph glyph-name="Ydieresis" unicode="&#x178;" horiz-adv-x="716" 
d="M199 2136h114v-143h-114v143zM395 2136h115v-143h-115v143zM373 973l35 284l86 678h213l-250 -1392v-543h-197v547l-246 1388h217l91 -678l34 -284h17z" />
    <glyph glyph-name="Zacute" unicode="&#x179;" horiz-adv-x="612" 
d="M344 2136h143l-153 -147h-78zM254 172h330v-172h-551v156l315 1607h-311v172h526l-4 -159z" />
    <glyph glyph-name="zacute" unicode="&#x17a;" horiz-adv-x="552" 
d="M297 1882h143l-153 -147h-78zM236 162h288v-162h-493v150l276 1368h-268v163h477v-151z" />
    <glyph glyph-name="Zdotaccent" unicode="&#x17b;" horiz-adv-x="612" 
d="M252 2136h115v-143h-115v143zM254 172h330v-172h-551v156l315 1607h-311v172h526l-4 -159z" />
    <glyph glyph-name="zdotaccent" unicode="&#x17c;" horiz-adv-x="552" 
d="M205 1882h114v-143h-114v143zM236 162h288v-162h-493v150l276 1368h-268v163h477v-151z" />
    <glyph glyph-name="Zcaron" unicode="&#x17d;" horiz-adv-x="612" 
d="M479 2140l-100 -149h-133l-107 149h86l84 -94l86 94h84zM254 172h330v-172h-551v156l315 1607h-311v172h526l-4 -159z" />
    <glyph glyph-name="zcaron" unicode="&#x17e;" horiz-adv-x="552" 
d="M432 1886l-100 -149h-133l-107 149h86l84 -94l86 94h84zM236 162h288v-162h-493v150l276 1368h-268v163h477v-151z" />
    <glyph glyph-name="uni0218" unicode="&#x218;" horiz-adv-x="720" 
d="M453 1092q106 -47 154 -108.5t48 -190.5v-527q0 -131 -76.5 -204.5t-211.5 -73.5q-137 0 -213 68.5t-76 189.5v520h196v-506q0 -45 24 -72.5t69 -27.5q43 0 66.5 26.5t23.5 69.5v500q0 66 -21.5 99.5t-68.5 55.5l-109 47q-98 43 -140 106.5t-42 184.5v441
q0 113 71.5 185.5t212.5 72.5q135 0 208 -66.5t73 -179.5v-445h-192v424q0 94 -91 95q-43 0 -65.5 -23.5t-22.5 -60.5v-416q0 -59 18.5 -89t65.5 -54zM285 -115v78h170v-98q0 -84 -107 -84h-63v51h53q39 0 39 33v20h-92z" />
    <glyph glyph-name="uni0219" unicode="&#x219;" horiz-adv-x="667" 
d="M438 954q94 -35 136 -94t42 -168v-448q0 -121 -74.5 -188.5t-201.5 -67.5q-281 0 -281 254v450h191v-456q0 -37 22.5 -59.5t61.5 -22.5q41 0 63.5 21.5t22.5 57.5v437q0 86 -82 116l-121 37q-88 33 -125 90.5t-37 159.5v373q0 111 74 179.5t203 68.5q131 0 200.5 -64.5
t69.5 -165.5v-385h-190v363q0 41 -21.5 64.5t-58.5 23.5q-39 0 -61.5 -21.5t-22.5 -56.5v-356q0 -41 16.5 -63.5t61.5 -41.5zM264 -115v78h170v-98q0 -84 -106 -84h-64v51h53q39 0 39 33v20h-92z" />
    <glyph glyph-name="uni021A" unicode="&#x21a;" horiz-adv-x="598" 
d="M2 1935h594v-172h-199v-1763h-196v1763h-199v172zM227 -109v78h170v-98q0 -84 -106 -84h-64v51h54q39 0 38 33v20h-92z" />
    <glyph glyph-name="uni021B" unicode="&#x21b;" horiz-adv-x="491" 
d="M393 170h82v-170h-121q-111 0 -169 56.5t-58 158.5v1305h-117v161q96 0 126 49.5t44 186.5h144v-236h149v-161h-154v-1260q0 -90 74 -90zM223 -109v78h170v-98q0 -84 -106 -84h-64v51h53q39 0 39 33v20h-92z" />
    <glyph glyph-name="Wgrave" unicode="&#x1e80;" horiz-adv-x="1091" 
d="M524 2134l88 -147h-77l-154 147h143zM778 539h17l18 438l61 958h207l-168 -1935h-241l-90 987l-31 412h-14l-27 -412l-92 -987h-242l-164 1935h207l60 -958l20 -438h16l27 438l98 958h213l97 -958z" />
    <glyph glyph-name="wgrave" unicode="&#x1e81;" horiz-adv-x="997" 
d="M477 1880l88 -147h-78l-153 147h143zM715 477l14 264l41 942h197l-138 -1683h-217l-77 745l-25 435h-18l-25 -435l-80 -745h-221l-135 1683h196l45 -942l15 -264h16l21 264l92 942h172l88 -942l20 -264h19z" />
    <glyph glyph-name="Wacute" unicode="&#x1e82;" horiz-adv-x="1091" 
d="M582 2136h143l-154 -147h-77zM778 539h17l18 438l61 958h207l-168 -1935h-241l-90 987l-31 412h-14l-27 -412l-92 -987h-242l-164 1935h207l60 -958l20 -438h16l27 438l98 958h213l97 -958z" />
    <glyph glyph-name="wacute" unicode="&#x1e83;" horiz-adv-x="997" 
d="M535 1882h143l-154 -147h-78zM715 477l14 264l41 942h197l-138 -1683h-217l-77 745l-25 435h-18l-25 -435l-80 -745h-221l-135 1683h196l45 -942l15 -264h16l21 264l92 942h172l88 -942l20 -264h19z" />
    <glyph glyph-name="Wdieresis" unicode="&#x1e84;" horiz-adv-x="1091" 
d="M391 2136h115v-143h-115v143zM588 2136h114v-143h-114v143zM778 539h17l18 438l61 958h207l-168 -1935h-241l-90 987l-31 412h-14l-27 -412l-92 -987h-242l-164 1935h207l60 -958l20 -438h16l27 438l98 958h213l97 -958z" />
    <glyph glyph-name="wdieresis" unicode="&#x1e85;" horiz-adv-x="997" 
d="M344 1882h115v-143h-115v143zM541 1882h114v-143h-114v143zM715 477l14 264l41 942h197l-138 -1683h-217l-77 745l-25 435h-18l-25 -435l-80 -745h-221l-135 1683h196l45 -942l15 -264h16l21 264l92 942h172l88 -942l20 -264h19z" />
    <glyph glyph-name="Ygrave" unicode="&#x1ef2;" horiz-adv-x="716" 
d="M332 2134l88 -147h-78l-154 147h144zM373 973l35 284l86 678h213l-250 -1392v-543h-197v547l-246 1388h217l91 -678l34 -284h17z" />
    <glyph glyph-name="ygrave" unicode="&#x1ef3;" horiz-adv-x="659" 
d="M299 1880l88 -147h-78l-153 147h143zM342 424l31 407l55 850h201l-178 -1669q-45 -231 -263 -231h-159v162h104q72 0 88 53l-190 1685h198l66 -850l31 -407h16z" />
    <glyph glyph-name="endash" unicode="&#x2013;" horiz-adv-x="548" 
d="M18 1063h512v-166h-512v166z" />
    <glyph glyph-name="emdash" unicode="&#x2014;" horiz-adv-x="841" 
d="M18 1063h807v-166h-807v166z" />
    <glyph glyph-name="quoteleft" unicode="&#x2018;" horiz-adv-x="376" 
d="M254 1860q-55 0 -55 -58v-55h94v-246h-205v316q0 59 37 93t102 34h68v-84h-41z" />
    <glyph glyph-name="quoteright" unicode="&#x2019;" horiz-adv-x="376" 
d="M84 1935h205v-315q0 -59 -37 -93t-102 -34h-68v84h41q55 0 55 57v56h-94v245z" />
    <glyph glyph-name="quotesinglbase" unicode="&#x201a;" horiz-adv-x="376" 
d="M86 246h205v-316q0 -59 -37 -93t-102 -34h-68v84h41q55 0 55 58v55h-94v246z" />
    <glyph glyph-name="quotedblleft" unicode="&#x201c;" horiz-adv-x="702" 
d="M88 1819q0 59 37 93t102 34h68v-84h-41q-55 0 -55 -58v-55h94v-246h-205v316zM580 1862q-55 0 -56 -58v-55h94v-246h-204v316q0 59 36.5 93t102.5 34h68v-84h-41z" />
    <glyph glyph-name="quotedblright" unicode="&#x201d;" horiz-adv-x="702" 
d="M84 1690v245h205v-315q0 -59 -37 -93t-102 -34h-68v84h41q55 0 55 57v56h-94zM410 1935h204v-315q0 -59 -36.5 -93t-102.5 -34h-67v84h41q55 0 55 57v56h-94v245z" />
    <glyph glyph-name="quotedblbase" unicode="&#x201e;" horiz-adv-x="702" 
d="M86 0v246h205v-316q0 -59 -37 -93t-102 -34h-68v84h41q55 0 55 58v55h-94zM410 246h204v-316q0 -59 -36.5 -93t-102.5 -34h-67v84h41q55 0 55 58v55h-94v246z" />
    <glyph glyph-name="dagger" unicode="&#x2020;" horiz-adv-x="464" 
d="M414 1681v-131h-109v-506q-43 -31 -59.5 -80t-26.5 -147h-59v733h-109v131h111q72 51 84 234h59v-234h109z" />
    <glyph glyph-name="daggerdbl" unicode="&#x2021;" horiz-adv-x="464" 
d="M414 1550h-109v-374h109v-132h-109q-43 -31 -59.5 -80t-26.5 -147h-59v227h-109v132h109v374h-109v131h111q72 51 84 234h59v-234h109v-131z" />
    <glyph glyph-name="bullet" unicode="&#x2022;" horiz-adv-x="552" 
d="M520 1171v-493h-411v493h411z" />
    <glyph glyph-name="ellipsis" unicode="&#x2026;" horiz-adv-x="1126" 
d="M291 246v-246h-205v246h205zM666 246v-246h-205v246h205zM1038 246v-246h-204v246h204z" />
    <glyph glyph-name="guilsinglleft" unicode="&#x2039;" horiz-adv-x="538" 
d="M471 1681l-213 -839l213 -842h-195l-210 840v2l210 839h195z" />
    <glyph glyph-name="guilsinglright" unicode="&#x203a;" horiz-adv-x="538" 
d="M473 840l-211 -840h-194l213 842l-213 839h194l211 -839v-2z" />
    <glyph glyph-name="Euro" unicode="&#x20ac;" horiz-adv-x="776" 
d="M705 1223h-191v446q0 109 -88 109q-39 0 -65.5 -28t-26.5 -81v-567h268v-78h-268v-80h268v-80h-268v-596q0 -55 26.5 -83.5t65.5 -28.5q88 0 88 112v475h191v-491q0 -121 -73 -192.5t-206 -71.5q-137 0 -213 72.5t-76 207.5v596h-100v80h100v80h-100v78h100v567
q0 133 76 206t213 73q133 0 206 -71t73 -189v-465z" />
    <glyph glyph-name="trademark" unicode="&#x2122;" horiz-adv-x="751" 
d="M293 1935v-92h-80v-774h-113v774h-80v92h273zM317 1935h136l47 -381l16 -196l12 196l52 381h133v-866h-105v311l6 306l-67 -617h-66l-65 619l6 -308v-311h-105v866z" />
    <glyph glyph-name="lozenge" unicode="&#x25ca;" horiz-adv-x="978" 
d="M893 868v-2l-211 -1067h-385l-211 1067v2l211 1067h385zM489 -190l211 1058l-211 1057l-210 -1057z" />
    <glyph glyph-name="i.aalt" horiz-adv-x="348" 
d="M78 1882h192v-143h-192v143zM78 1681h192v-1681h-192v1681z" />
    <glyph glyph-name="glyph295" horiz-adv-x="2127" 
 />
    <glyph glyph-name="glyph296" horiz-adv-x="1308" 
 />
    <glyph glyph-name="glyph297" horiz-adv-x="2129" 
 />
    <glyph glyph-name="glyph298" horiz-adv-x="1269" 
 />
    <glyph glyph-name="glyph299" horiz-adv-x="1253" 
 />
    <glyph glyph-name="glyph300" horiz-adv-x="1259" 
 />
    <glyph glyph-name="glyph301" horiz-adv-x="1228" 
 />
    <glyph glyph-name="glyph302" horiz-adv-x="1228" 
 />
    <glyph glyph-name="glyph303" horiz-adv-x="1368" 
 />
    <glyph glyph-name="glyph304" horiz-adv-x="1380" 
 />
    <glyph glyph-name="glyph305" horiz-adv-x="1273" 
 />
    <glyph glyph-name="glyph306" horiz-adv-x="1138" 
 />
    <glyph glyph-name="glyph307" horiz-adv-x="1402" 
 />
    <glyph glyph-name="glyph308" horiz-adv-x="1406" 
 />
    <glyph glyph-name="glyph309" horiz-adv-x="1210" 
 />
    </font>
</defs>
</svg>
