<?xml version="1.0" encoding="utf-8"?>
<!-- Generator: Adobe Illustrator 24.0.1, SVG Export Plug-In . SVG Version: 6.00 Build 0)  -->
<svg version="1.1" id="Layer_1" xmlns="http://www.w3.org/2000/svg" xmlns:xlink="http://www.w3.org/1999/xlink" x="0px" y="0px"
	 viewBox="0 0 257 205.7" style="enable-background:new 0 0 257 205.7;" xml:space="preserve">
<style type="text/css">
	.st0{fill-rule:evenodd;clip-rule:evenodd;fill:#6F42C1;}
</style>
<g>
	<path class="st0" d="M257,97.7c-0.8,3.2-3.6,4.4-6,6c-3.1,0.7-1.9-2.7-5-2C245,92.7,252.8,94.8,257,97.7z"/>
	<path class="st0" d="M186,81.7c-10.2,40.9-26.3,79-31,124c-15.3-2.8-14.4-26.9-16-40c4.3,10.7,6.2,23.8,12,33
		c3.9-52.1,31.3-100.2,38-156c0.9-7.1-0.3-17.9,1-21c-22,21-40.8,49.6-55,82c-14,32.1-23.3,68.1-44,94c-23.2-8.1-41.2-21.4-60-34
		c-2.4-2.5-2.1,2.1-6,1c-1.2-1.2-1.1-3.5-1-6c-13-13.6-24-25.3-24-46c0-22.6,13.9-43.6,25-58c13.6-17.6,35.7-37,54-47
		c20.6-11.2,47.4-12.4,53,11c-10.8-2.8-10.4-15.2-30-13c-14.1,1.6-34,14-45,23C39.8,43,7.2,81.4,6,106.7c-0.9,18.6,6.7,30.5,18,42
		c6-18.8,9.1-35.3,15-53c0.7-4.4-2,0.8-2-2c5.5-7.9,2.3-21,10-28c6.5,7-2.5,23.1-3,33c6.4-2.6,9-21.8,20-20c5.9,1,8.2,12.7,9,20
		c1.7,15-5.3,39.4-3,53c11.3-30,17.9-52.6,31-81c9-5.3,8.4-20.2,21-22c2.2,6.2-5,9-8,13c-7.5,10.1-13.1,23.9-18,37
		c3.8-6.8,2.7-1.2,10-1c3-3.4-2.7-0.1,0-2c-0.3-1.8,0.9-2.1,1-1c1,0,0.8,1.2,1,2c7.6-2.4,18-2,24-6c2.4,0.8-2.8,2.5-1,6
		c-7.8-0.9-17.3,4.6-26,6c-2.2,1,6,3,2,6c-4.2-1.2-9.4-1.3-14-2c-10.6,15.1-9.6,41.7-23,54c-16.5-10.2,5.8-55.4-7-75
		c-18.2,15.5-24.4,43-31,70c17.4,14.8,33.9,24.2,56,34c13.3-11.9,18.5-30.4,25-47c18.6-47.4,41.7-98.6,80-131
		C200.3,35.5,191.4,59.8,186,81.7z"/>
	<path class="st0" d="M132,90.7c2.4,0.8-2.8,2.5-1,6c-7.8-0.9-17.3,4.6-26,6c-2.2,1,6,3,2,6c-4.2-1.2-9.4-1.3-14-2
		c-10.6,15.1-9.6,41.7-23,54c-16.5-10.2,5.8-55.4-7-75c-18.2,15.5-24.4,43-31,70c17.4,14.8,33.9,24.2,56,34
		c13.3-11.9,18.5-30.4,25-47c18.6-47.4,41.7-98.6,80-131c7.3,23.7-1.6,48.1-7,70c-10.2,40.9-26.3,79-31,124
		c-15.3-2.8-14.4-26.9-16-40c4.3,10.7,6.2,23.8,12,33c3.9-52.1,31.3-100.2,38-156c0.9-7.1-0.3-17.9,1-21c-22,21-40.8,49.6-55,82
		c-14,32.1-23.3,68.1-44,94c-23.2-8.1-41.2-21.4-60-34c-2.4-2.5-2.1,2.1-6,1c-1.2-1.2-1.1-3.5-1-6c-13-13.6-24-25.3-24-46
		c0-22.6,13.9-43.6,25-58c13.6-17.6,35.7-37,54-47c20.6-11.2,47.4-12.4,53,11c-10.8-2.8-10.4-15.2-30-13c-14.1,1.6-34,14-45,23
		C39.8,43,7.2,81.4,6,106.7c-0.9,18.6,6.7,30.5,18,42c6-18.8,9.1-35.3,15-53c0.7-4.4-2,0.8-2-2c5.5-7.9,2.3-21,10-28
		c6.5,7-2.5,23.1-3,33c6.4-2.6,9-21.8,20-20c5.9,1,8.2,12.7,9,20c1.7,15-5.3,39.4-3,53c11.3-30,17.9-52.6,31-81
		c9-5.3,8.4-20.2,21-22c2.2,6.2-5,9-8,13c-7.5,10.1-13.1,23.9-18,37c3.8-6.8,2.7-1.2,10-1c3-3.4-2.7-0.1,0-2c-0.3-1.8,0.9-2.1,1-1
		c1,0,0.8,1.2,1,2C115.6,94.3,126,94.7,132,90.7z"/>
</g>
</svg>
